<?xml version="1.0" encoding="utf-8"?>
<!-- Generator: Adobe Illustrator 21.0.0, SVG Export Plug-In . SVG Version: 6.00 Build 0)  -->
<svg version="1.1" id="Layer_1" xmlns="http://www.w3.org/2000/svg" xmlns:xlink="http://www.w3.org/1999/xlink" x="0px" y="0px"
	 viewBox="0 0 1410 832" style="enable-background:new 0 0 1410 832;" xml:space="preserve">
<style type="text/css">
	.st0{fill:#6D6E70;}
	.st1{fill:none;stroke:#6D6E70;stroke-width:1.8113;stroke-miterlimit:22.9256;}
	.st2{fill-rule:evenodd;clip-rule:evenodd;fill:#6D6E70;}
	.st3{fill:#DBDCDD;}
	.st4{fill:none;stroke:#DBDCDD;stroke-width:1.8113;stroke-miterlimit:22.9256;}
	.st5{fill-rule:evenodd;clip-rule:evenodd;fill:#DBDCDD;}
	.st6{fill-rule:evenodd;clip-rule:evenodd;fill:#231C1E;}
	.st7{fill-rule:evenodd;clip-rule:evenodd;fill:#231F20;}
	.st8{fill-rule:evenodd;clip-rule:evenodd;fill:#FFFFFF;}
	.st9{fill:#231F20;}
	.st10{fill-rule:evenodd;clip-rule:evenodd;fill:#00A6E8;}
	.st11{fill-rule:evenodd;clip-rule:evenodd;fill:#FFF100;}
	.st12{fill-rule:evenodd;clip-rule:evenodd;fill:#EB008B;}
	.st13{fill:none;stroke:#231F20;stroke-width:2;stroke-miterlimit:22.9256;}
</style>
<g>
	<g>
		<path class="st0" d="M1040.4,335.6c-46.7,0-90-6.7-126-19.8c-51.1-18.6-81.6-48.1-86-83.2c-4.4-35.7,18.8-72.7,65.4-104.2
			c95.5-63.9,261.6-83.3,370.3-43.3c52.4,19.3,83.4,49.2,87.1,84.3c3.8,35.5-20.5,71.8-68.5,102.4c-47.2,30.4-111.5,51.7-181,60
			C1081,334.3,1060.4,335.6,1040.4,335.6z M1133.5,66.2c-85.9,0-177,22.6-238.6,63.8c-46,31-68.9,67.4-64.6,102.4
			c4.2,34.4,34.3,63.4,84.8,81.7l0,0c36.4,13.2,80,19.5,125.3,19.5c85.7,0,178-22.5,241.5-63.3c47.4-30.2,71.4-65.9,67.6-100.7
			c-3.7-34.3-34.2-63.7-86-82.8C1225.5,72.9,1180.2,66.2,1133.5,66.2z"/>
	</g>
	<path class="st1" d="M914.8,315"/>
	<path class="st2" d="M983.6,173.7c-31.6,26.9-28.2,58.3,8.3,76.9l72.1-47.5L983.6,173.7z"/>
	<path class="st2" d="M1017.5,260c46.8,11.8,109,4.4,152.6-18.1l-80.3-29.4L1017.5,260z"/>
	<path class="st2" d="M1159.6,140.5c-47.2-12-109.7-4.7-153,18l80.5,29.4L1159.6,140.5z"/>
	<path class="st2" d="M1193.3,226.8c32.2-26.6,29-58-7.8-76.8l-72.6,47.3L1193.3,226.8z"/>
	<path class="st2" d="M991.9,250.6l-196,131l25.2,9.1L1017.5,260c-4.7-1.2-9.6-2.3-13.9-3.9C999.2,254.5,995.6,252.5,991.9,250.6z"
		/>
	<path class="st2" d="M1185.5,150l200.8-129.2l-26.2-9.7l-200.4,129.4c4.8,1.2,9.7,2.4,14.1,4C1178.2,146.1,1181.7,148.1,1185.5,150
		z"/>
	<path class="st2" d="M1414,307.5l-220.6-80.7c-3.3,2.7-6.4,5.4-10.4,8c-4,2.6-8.5,4.8-12.9,7.1l220.3,80.5L1414,307.5z"/>
	<path class="st2" d="M1006.7,158.4L786,77.7l-22.7,15.5l220.3,80.6c3.2-2.7,6.3-5.5,10.2-8.1C997.8,163,1002.3,160.8,1006.7,158.4z
		"/>
	<g>
		<path class="st3" d="M1036.2,324.5c-46.7,0-90-6.7-126-19.8c-51.1-18.6-81.6-48.1-86-83.2c-4.4-35.7,18.8-72.7,65.4-104.2
			c95.5-63.9,261.6-83.3,370.3-43.3c52.4,19.3,83.4,49.2,87.1,84.3c3.8,35.5-20.5,71.8-68.5,102.4c-47.2,30.4-111.5,51.7-181,60
			C1076.8,323.3,1056.2,324.5,1036.2,324.5z M910.9,303.1c105.3,38.2,269.8,18.6,366.8-43.7c47.4-30.2,71.4-65.9,67.6-100.7
			c-3.7-34.3-34.2-63.7-86-82.8c-108.2-39.8-273.6-20.5-368.6,43.1c-46,31-68.9,67.4-64.6,102.4
			C830.3,255.7,860.4,284.7,910.9,303.1z"/>
	</g>
	<path class="st4" d="M910.6,303.9"/>
	<path class="st5" d="M979.4,162.7c-31.6,26.9-28.2,58.3,8.3,76.9l72.1-47.5L979.4,162.7z"/>
	<path class="st5" d="M1013.3,248.9c46.8,11.8,109,4.4,152.6-18.1l-80.3-29.4L1013.3,248.9z"/>
	<path class="st5" d="M1155.4,129.5c-47.2-12-109.7-4.7-153,18l80.5,29.4L1155.4,129.5z"/>
	<path class="st5" d="M1189.1,215.7c32.2-26.6,29-58-7.8-76.8l-72.6,47.3L1189.1,215.7z"/>
	<path class="st5" d="M987.7,239.6l-196,131l25.2,9.1l196.4-130.8c-4.7-1.2-9.6-2.3-13.9-3.9C995,243.4,991.4,241.5,987.7,239.6z"/>
	<path class="st5" d="M1181.3,138.9L1382,9.7l-26.2-9.7l-200.4,129.4c4.8,1.2,9.7,2.4,14.1,4C1174,135.1,1177.5,137,1181.3,138.9z"
		/>
	<path class="st5" d="M1409.8,296.4l-220.6-80.7c-3.3,2.7-6.4,5.4-10.3,8c-4,2.6-8.5,4.8-12.9,7.1l220.3,80.5L1409.8,296.4z"/>
	<path class="st5" d="M1002.4,147.4L781.8,66.7l-22.7,15.5l220.3,80.6c3.2-2.7,6.3-5.5,10.2-8.1
		C993.6,151.9,998.1,149.7,1002.4,147.4z"/>
	<g>
		<polygon class="st6" points="495.5,528.6 495.5,648.7 473.3,648.7 473.3,528.6 451.1,528.6 451.1,515.2 518.1,515.2 518.1,528.6 
					"/>
		<path class="st6" d="M628.4,515.2v114.7c0,3.7,6.4,7.5,12.5,7.5c6.4,0,12.8-3.9,12.8-7.5V515.2h22.2v114.7c0,11.5-16.1,21-35,21
			c-19,0-34.6-9.5-34.6-21V515.2H628.4z"/>
		<path class="st6" d="M821.4,538.3v-9.6c0,0-9.4,0-12.8,0c-6,0-12.5,3.9-12.5,7.6v93.6c0,3.7,6.4,7.6,12.5,7.6
			c6.4,0,12.8-3.9,12.8-7.6V625h22.2v4.8c0,11.5-16.1,21-35,21c-19,0-34.6-9.5-34.6-21v-93.6c0-11.5,15.7-21,34.6-21
			c3.4,0,35,0,35,0v23.1H821.4z"/>
		<path class="st6" d="M984.6,598.1v50.7h22.2V534.3c0-11.5-16.1-21.2-35-21.2c-19,0-34.6,9.8-34.6,21.2v114.5h22.2v-50.7H984.6z
			 M959.3,584.6v-50.3c0-3.9,6.4-7.5,12.5-7.5c6.4,0,12.8,3.6,12.8,7.5v50.3H959.3z"/>
		<polygon class="st6" points="1126.6,546.8 1152.3,572.1 1152.3,515.2 1174.5,515.2 1174.5,648.7 1152.3,648.7 1152.3,598 
			1126.6,572.7 1126.6,648.7 1104.4,648.7 1104.4,515.2 1126.6,515.2 		"/>
		<path class="st6" d="M1272.6,534.3v95.5c0,11.5,15.7,21,34.6,21c18.9,0,35-9.5,35-21v-95.5c0-11.5-16.1-21.3-35-21.3
			C1288.3,513.1,1272.6,522.8,1272.6,534.3z M1294.8,534.3c0-3.9,6.4-7.6,12.5-7.6c6.4,0,12.8,3.7,12.8,7.6v95.5
			c0,3.7-6.4,7.6-12.8,7.6c-6,0-12.5-3.9-12.5-7.6V534.3z"/>
		<rect x="440" y="409.2" class="st7" width="914.3" height="82"/>
		<path class="st8" d="M497.2,476.3h-0.9c-0.4,0.2-0.9,0.1-1.5-0.3c-0.6-0.4-1.1-0.6-1.5-0.6c-0.7,0-1.4,0-2.1,0c-0.7,0-1.3,0-2,0.1
			c-0.9,0-1.5,0-1.9-0.1c-1.8-0.4-3.2-1.4-4.3-3.2c-1-1.8-1.6-3.9-1.6-6.4v-1.2c0.5-5,1.4-10.4,2.5-16.3c1.1-5.9,2.2-11.6,3.3-17.2
			c0.2-3.5,0.4-6.7,0.7-9.6c0.3-2.9,1.3-4.3,3.1-4.3c0.5,0,0.9,0,1.2,0.1c2.1,0.7,3.1,2.3,3.1,4.9c0,1.4-0.3,2.8-0.7,4.5
			c-0.5,1.6-1,3.1-1.4,4.5c-1.2,5.2-2.2,10.5-3.1,16c-0.9,5.4-1.8,11-2.8,16.5c0,2.8,1.6,5,4.9,6.5c3.2,1.6,5.3,3.3,6.1,5.2
			L497.2,476.3z"/>
		<path class="st8" d="M561.9,431c0.9,0.4,1.5,1.5,1.9,3.5c0.4,2,0.5,4.3,0.5,6.9c0,3.9-0.1,6.6-0.3,8.2c-0.2,1.6-0.6,3.3-1.2,5.2
			c-0.6,1.9-0.8,3.5-0.8,4.9c0,1.3,0,2.5,0.1,3.8c0.1,1.3,0.2,2.5,0.3,3.8c0,2.3-0.4,4.2-1.2,5.6c-0.8,1.4-2.5,2.2-5.1,2.6
			c-0.3-1-0.5-2-0.5-3.1c-0.1-1.1-0.1-2.4-0.1-3.8c0-2.3,0.2-4.9,0.6-7.8c0.4-2.9,0.8-5.3,1.1-7c0.3-1.7,0.5-3.6,0.6-5.6
			c0.1-2,0.1-4.8,0.1-8.2v-9c0.1,0,0.4,0,0.8,0c0.5,0,1,0,1.8,0C561.2,430.9,561.7,431,561.9,431z"/>
		<path class="st8" d="M660.3,425.2c1.6,0.7,2.7,1.6,3.2,2.6c0.5,1,0.7,2.4,0.7,4.3c-0.7-0.1-3.2-0.4-7.4-1
			c-1.8-0.2-3.2-0.4-4.1-0.4c-2.3,0-4.6,0.5-7.2,1.5c0.5,1.2,0.9,2.4,1.1,3.7c0.2,1.3,0.3,2.7,0.3,4.2c0,1.7-0.1,3.7-0.4,6.1
			c-0.6,5.6-1,9.1-1,10.6v12.8c0,2.3-0.1,3.8-0.4,4.3c-0.3,0.5-1.5,1-3.6,1.5c-0.6-1.7-1.1-3.7-1.4-6.1c-0.3-2.3-0.4-4.7-0.4-7.2
			c0-3,0.2-6.6,0.6-11c0.4-4.4,0.8-8.5,1.2-12.2c0-2.4-0.5-4.2-1.4-5.2c-0.9-1-2.3-1.6-4.1-1.6c-1.9,0-4.4,0.6-7.6,1.9
			c-2.5,1-5,2-7.5,3c-0.5-2.2-0.8-3.3-0.8-3.4c0-0.8,0.6-1.7,1.9-2.6c1.6-1.2,3.5-2,5.7-2.6c2.2-0.5,4.9-1,8.1-1.4
			c5.7-0.7,10-1.3,12.9-1.7c2.9-0.4,5.5-0.8,7.8-1.3c0.2,0.3,0.7,0.5,1.6,0.6C658.7,425,659.5,425.1,660.3,425.2z"/>
		<path class="st8" d="M745.6,429c-6.2,0.7-11.7,3.8-16.5,9.2c-4.1,4.7-7.1,10.6-9.2,17.6c-0.6,2-0.9,4-0.9,6
			c0,4.4,1.5,7.8,4.5,10.2c3,2.3,7.1,3.5,12.2,3.5c6.8,0,13.4-3.3,19.8-10.1c6.5-6.7,9.7-13.5,9.7-20.3c0-1.7-0.3-3.4-0.8-5
			c-1.2-3.7-3.1-6.5-5.8-8.3c-2.7-1.8-5.9-2.8-9.6-2.8c-1.1,0-1.9,0-2.4,0H745.6z M730.9,448.2c0.3-0.1,0.6-0.2,0.9-0.3H731
			c0.4-1.2,1.2-2.6,2.5-4.2c1.3-1.7,2.8-3.2,4.4-4.7c0.4-0.4,1.3-1.1,2.4-2.2c1.6-1.3,3-2.2,4.2-2.6c1.2-0.4,2.3-0.5,3.4-0.5
			c3.5,0,6.6,1.2,9.3,3.5c2.7,2.3,3.8,5.2,3.4,8.7c-0.6,4.6-3.9,9.8-9.9,15.8c-6,6-11.6,8.9-16.9,8.9c-3,0-5.5-1.1-7.7-3.2
			c-1.3-1.3-1.9-2.8-1.9-4.5c0-1.3,0.4-2.9,1.3-4.8c0.9-1.9,1.7-3.6,2.5-5.2l0.9-1.1v-1.9C729,449.3,729.7,448.7,730.9,448.2z"/>
		<path class="st8" d="M857.5,455.9c0,0.4,0,0.9,0,1.6v2.7c0,2-0.3,3.5-0.8,4.5c-1.7,3.2-4.7,5.9-8.9,8.2c-4.2,2.3-8.4,3.4-12.6,3.4
			c-2.4,0-4.6-0.4-6.4-1.3c-1.8-0.9-3.4-2.3-4.7-4.4c-1.9-3.1-2.8-6.3-2.8-9.7c0-2.6,0.6-5.5,1.8-8.7c0.9-2.5,2.2-5.3,4.1-8.3
			c2.7-4.5,5.9-8.2,9.7-11.1c4.5-3.4,8.9-5.1,13.2-5.1c1.2,0,2.4,0.1,3.6,0.4c-0.8,1.8-2.3,3.4-4.5,4.7c-2.8,1.4-4.9,2.5-6.4,3.2
			c-2.9,1.4-5.8,3.8-8.7,7.1c-2.9,3.3-5,6.5-6.2,9.7c-0.8,2.2-1.2,4.2-1.2,6.1c0,3.3,1.1,6.1,3.3,8.2c2.2,2.1,4.9,3.2,8.2,3.2
			c2.1,0,4.1-0.5,6.1-1.4c2-0.9,3.8-2.4,5.5-4.4c1.7-2,2.5-3.8,2.5-5.4c0-1.4-1-3-3.1-4.6c-3-2.3-4.8-3.9-5.3-4.6
			c1.3-1.3,2.6-2.1,4.1-2.5c1.4-0.4,3.3-0.6,5.7-0.6c2.2,0.1,3.8,0.1,5,0.1h7.3c2.6,0,4.7,0.1,6.3,0.2c1.6,0.1,3.3,0.4,5.1,0.7
			c-2.4,2.1-5.4,3.4-9,4.1c-3.7,0.7-7.3,1.3-10.8,1.8V455.9z"/>
		<path class="st8" d="M934.3,467.4l-1.1-0.9v-3c0-2.4,0.3-5.2,0.9-8.3c0-0.2,0.7-3,2-8.4c0.5-2.2,1.1-4.5,1.6-6.9
			c0.8-2.7,1.9-4.4,3.4-5c2.6-1.2,5.3-2.3,8-3.5c3.6-1.4,6.6-2.2,9.1-2.2c1.6,0,3.2,0.3,4.6,0.9c1.4,0.6,2.8,1.6,4.1,3
			c1.3,1.4,1.9,2.9,1.9,4.5c0,2.6-1.8,5.3-5.5,8.1c-2.8,2.1-5.8,3.7-9.1,5c1.2,2.4,3.8,5.8,7.8,10.1c7.7,8.2,11.5,14.3,11.5,18.3
			c0,1.4-0.3,2.7-0.8,4.1c-3.6-3.2-7.6-7.6-11.9-13c-2.9-3.6-6.5-8.4-10.8-14.5c-1.3-1.6-2.1-2.7-2.6-3.4c-0.8-1.2-1.2-2.1-1.2-2.8
			c0-1.2,1.4-2.1,4.2-2.8c2.8-0.7,5.1-1.7,7.1-3c1.9-1.3,3.7-3.3,5.3-5.9c-2.7-1.4-5.3-2.2-7.7-2.2c-2.3,0-4.5,0.7-6.4,2
			c-1.9,1.3-3.4,3.4-4.5,6.1c-0.6,1.5-1.3,5-1.9,10.5c-1,8.3-3.6,13-8,14V467.4z"/>
		<path class="st8" d="M1057.1,425.6c-1.5-1.5-2.9-2.3-4-2.3c-2.8,3.4-5.5,7.9-8.1,13.4c-1.4,3.1-3.7,7.7-6.7,13.8
			c-3,6.2-4.8,9.9-5.3,11.3c-1.7,4.1-2.9,8-3.5,11.7c0.5,0.1,1.3,0.1,2.2,0.1c2.4,0,4.1-1.1,5.1-3.4c0.8-2.5,1.7-5.1,2.6-7.6
			c1.3-3.3,3.1-5.9,5.2-7.7c2.1-1.8,4.7-2.6,7.7-2.6c1.2,0,2.4,0.1,3.8,0.4c1.4,0.3,2.4,0.9,3,1.9c0.6,1,0.9,2.3,0.9,3.9
			c0,2-0.5,4.9-1.4,8.7c-1,3.8-1.4,6.2-1.4,7.2c4-0.9,6.7-4.6,7.9-11.1c0.6-3.2,0.9-8.3,0.9-15.5c0-3.4-0.5-6.7-1.4-9.9
			c-0.9-3.2-2.5-6.1-4.5-8.9C1058.8,427.5,1057.8,426.4,1057.1,425.6z M1055.1,431.3c2.9,5.1,4.8,10.6,5.9,16.5
			c-2.4,0.5-4.8,0.8-7.3,0.8c-2.6,0-5.1-0.3-7.5-0.8c2.1-3.7,3.2-5.7,3.4-6c0.5-1.2,1.1-2.4,1.6-3.7c0.1-0.4,0.4-1.4,1.1-3
			c0.6-1.6,1.2-2.6,1.7-2.9L1055.1,431.3z"/>
		<path class="st8" d="M1131.7,475.4c-0.3,0.1-1-0.2-2.1-0.8c-1.1-0.6-1.7-1-1.8-1.1c-0.9-0.9-1.7-2.3-2.4-4.3
			c-0.7-1.9-1.2-3.8-1.5-5.6c-0.3-1.8-0.5-4-0.8-6.7c-0.3-2.7-0.4-5-0.4-7c0-7,1-13.5,3-19.5c2-6,5.3-11.1,9.9-15.2
			c1.7-1.6,4.4-3.1,8-4.4c3.6-1.3,7.1-2,10.3-2c2.7,0,4.8,0.5,6.3,1.5c1.5,1,2.3,2.7,2.3,5c0,0.8-0.1,1.8-0.4,2.8
			c-2.2-1.1-4-1.9-5.5-2.5c-1.5-0.6-3-0.8-4.5-0.8c-1.8,0-4.1,0.5-6.8,1.6c-3.8,1.5-7.1,4.4-10,8.7c-2.4,3.6-4.4,7.8-5.8,12.7
			c0.6,0.2,1.6,0.3,3,0.5c1.4,0.1,2.9,0.2,4.6,0.2c1,0,2.5,0,4.5,0c2,0,3.5,0,4.5,0c2.8,0,5.1,0.1,6.9,0.4c1.8,0.3,3.6,0.9,5.3,1.9
			c-2.9,1.2-5.5,2-7.8,2.4c-2.3,0.4-5.3,0.6-9,0.6c-5.4,0-8.6,0.2-9.7,0.5c-2.7,0.9-4.1,3.2-4.1,7c0,1,0,1.8,0.1,2.3
			c1.6,7.2,3.2,14.4,4.8,21.6H1131.7z"/>
		<path class="st8" d="M1216,431c0.9,0.4,1.5,1.5,1.9,3.5c0.4,2,0.5,4.3,0.5,6.9c0,3.9-0.1,6.6-0.3,8.2c-0.2,1.6-0.6,3.3-1.2,5.2
			c-0.6,1.9-0.8,3.5-0.8,4.9c0,1.3,0,2.5,0.1,3.8c0.1,1.3,0.2,2.5,0.3,3.8c0,2.3-0.4,4.2-1.2,5.6c-0.8,1.4-2.5,2.2-5.1,2.6
			c-0.3-1-0.4-2-0.5-3.1c-0.1-1.1-0.1-2.4-0.1-3.8c0-2.3,0.2-4.9,0.6-7.8c0.4-2.9,0.8-5.3,1.1-7c0.3-1.7,0.5-3.6,0.6-5.6
			c0.1-2,0.1-4.8,0.1-8.2v-9c0.1,0,0.4,0,0.8,0c0.5,0,1,0,1.8,0C1215.3,430.9,1215.8,431,1216,431z"/>
		<path class="st8" d="M1301.5,425.6c-1.5-1.5-2.9-2.3-4-2.3c-2.8,3.4-5.5,7.9-8.1,13.4c-1.4,3.1-3.7,7.7-6.7,13.8
			c-3,6.2-4.8,9.9-5.3,11.3c-1.7,4.1-2.9,8-3.5,11.7c0.5,0.1,1.3,0.1,2.2,0.1c2.4,0,4.1-1.1,5.1-3.4c0.8-2.5,1.7-5.1,2.6-7.6
			c1.3-3.3,3.1-5.9,5.2-7.7c2.1-1.8,4.7-2.6,7.7-2.6c1.2,0,2.4,0.1,3.8,0.4c1.4,0.3,2.4,0.9,3,1.9c0.6,1,0.9,2.3,0.9,3.9
			c0,2-0.5,4.9-1.4,8.7c-1,3.8-1.4,6.2-1.4,7.2c4-0.9,6.7-4.6,7.9-11.1c0.6-3.2,0.9-8.3,0.9-15.5c0-3.4-0.5-6.7-1.4-9.9
			c-0.9-3.2-2.5-6.1-4.5-8.9C1303.2,427.5,1302.3,426.4,1301.5,425.6z M1299.5,431.3c2.9,5.1,4.8,10.6,5.9,16.5
			c-2.4,0.5-4.8,0.8-7.3,0.8c-2.6,0-5.1-0.3-7.5-0.8c2.1-3.7,3.2-5.7,3.4-6c0.5-1.2,1.1-2.4,1.6-3.7c0.1-0.4,0.4-1.4,1.1-3
			c0.6-1.6,1.2-2.6,1.7-2.9L1299.5,431.3z"/>
	</g>
	<g>
		<path class="st7" d="M252.8,342.1c-19.3-9.4-35.8-7.9-61.6-19.9c-25.8-12.1-40.7-47.9-40.7-81.1c0-55.8,54.1-88.8,110-88.8
			c0.6,0-0.2-11.4,0.4-11.3l-7.4-1C121.7,139.9,12.5,243.6,2,370.9C-19,571,132.3,634.3,132.3,634.3l-0.2,197.6
			c0,0,217.7-5.7,259.7-208.7c3-14.7,4.7-29.8,4.7-45.2C396.4,473.3,337.6,383.1,252.8,342.1z"/>
		<path class="st6" d="M632.9,346.3c0,0,2.6-77.9-10.9-111.6c-19.7-49.3-55-85.1-122-88.5l0,0H294.4v200.1H632.9z"/>
		<g>
			<path class="st9" d="M232.1,237.1c-15.3,0-27.7-12.4-27.7-27.7c0-15.3,12.4-27.7,27.7-27.7c15.3,0,27.7,12.4,27.7,27.7
				C259.9,224.7,247.4,237.1,232.1,237.1z M232.1,183.7c-14.2,0-25.7,11.5-25.7,25.7c0,14.2,11.5,25.7,25.7,25.7
				c14.2,0,25.7-11.5,25.7-25.7C257.9,195.2,246.3,183.7,232.1,183.7z"/>
		</g>
		<path class="st7" d="M219.3,211.2c0.8,5.8,5.3,10.3,11.1,11.1v-11.1H219.3z"/>
		<path class="st7" d="M233.9,222.3c5.8-0.8,10.3-5.3,11.1-11.1h-11.1V222.3z"/>
		<path class="st7" d="M230.3,196.5c-5.8,0.8-10.3,5.3-11.1,11.1h11.1V196.5z"/>
		<path class="st7" d="M245,207.6c-0.8-5.8-5.3-10.3-11.1-11.1v11.1H245z"/>
		<path class="st7" d="M230.3,222.3v30.4h3.5v-30.4c-0.6,0.1-1.2,0.2-1.8,0.2C231.5,222.4,230.9,222.3,230.3,222.3z"/>
		<path class="st7" d="M233.9,196.5v-30.4h-3.5v30.4c0.6-0.1,1.2-0.2,1.8-0.2C232.7,196.4,233.3,196.5,233.9,196.5z"/>
		<path class="st7" d="M275.4,207.6H245c0.1,0.6,0.2,1.2,0.2,1.8c0,0.6-0.1,1.2-0.2,1.8h30.4V207.6z"/>
		<path class="st7" d="M219.3,207.6h-30.4v3.5h30.4c-0.1-0.6-0.2-1.2-0.2-1.8C219.1,208.8,219.2,208.2,219.3,207.6z"/>
		<g>
			<rect x="294.4" y="146.3" class="st10" width="68.5" height="200.1"/>
		</g>
		<g>
			<rect x="431.5" y="146.3" class="st11" width="68.5" height="200.1"/>
		</g>
		<g>
			<rect x="363" y="146.3" class="st12" width="68.5" height="200.1"/>
		</g>
		<line class="st13" x1="363" y1="346.3" x2="363" y2="146.3"/>
		<line class="st13" x1="431.5" y1="346.3" x2="431.5" y2="146.3"/>
		<path class="st9" d="M498.1,148.3v196.1H296.4V148.3H498.1 M500.1,146.3H294.4v200.1h205.6V146.3L500.1,146.3z"/>
	</g>
</g>
</svg>
