<?xml version="1.0" encoding="utf-8"?>
<!-- Generator: Adobe Illustrator 21.0.0, SVG Export Plug-In . SVG Version: 6.00 Build 0)  -->
<svg version="1.1" id="Layer_1" xmlns="http://www.w3.org/2000/svg" xmlns:xlink="http://www.w3.org/1999/xlink" x="0px" y="0px"
	 viewBox="0 0 600 600" style="enable-background:new 0 0 600 600;" xml:space="preserve">
<style type="text/css">
	.st0{fill:#B82418;}
	.st1{fill:#F4B936;}
	.st2{fill:#FFFFFF;}
</style>
<g>
	<path id="path14-0" class="st0" d="M100,349h375.9c13.3,0,24.1-10.9,24.1-24.1V251H124.1
		c-13.3,0-24.1,10.9-24.1,24.1V349"/>
	<path id="path18-4" class="st1" d="M444.8,297.4c-1.2-5.4-6-9.5-11.8-9.5
		c-6.7,0-12.1,5.4-12.1,12.1c0,6.7,5.4,12.1,12.1,12.1c5.8,0,10.6-4.1,11.8-9.5h-6.2v-5.1H444.8"/>
	<path class="st2" d="M244.7,282.7c-9.5,0-17.2,7.7-17.2,17.2c0,9.5,7.7,17.2,17.2,17.2c9.5,0,17.2-7.7,17.2-17.2
		C261.9,290.4,254.2,282.7,244.7,282.7z M244.7,312c-6.7,0-12.1-5.4-12.1-12.1s5.4-12.1,12.1-12.1c6.7,0,12.1,5.4,12.1,12.1
		S251.3,312,244.7,312z"/>
	<path class="st2" d="M156.6,282.7H146c-5.3,0-9.7,4.4-9.7,9.7l0,0c0,5.3,4.4,9.7,9.7,9.7h0.3h2.5h0.3c2.5,0,4.6,2.1,4.6,4.6
		c0,2.5-2.1,4.6-4.6,4.6h-10.5v5.1H149c5.3,0,9.7-4.4,9.7-9.7l0,0c0-5.3-4.4-9.7-9.7-9.7h-0.3h-2.5H146c-2.5,0-4.6-2.1-4.6-4.6
		c0-2.5,2.1-4.6,4.6-4.6h10.5V282.7z"/>
	<path class="st2" d="M199.2,282.7h-18.3v5.6h4.1v28.8h5.1v-13.6c8,1.5,18.8,0.8,18.8-10.1C208.9,287.5,204.6,282.7,199.2,282.7z
		 M190.1,297.8v-9.5h9.1c2.5,0,4.6,2.3,4.6,5C203.8,300.1,194.8,299.2,190.1,297.8z"/>
	<polygon class="st2" points="304.8,317.1 304.8,312 291.8,312 291.8,282.7 286.6,282.7 282.7,282.7 282.7,287.9 286.6,287.9 
		286.6,317.1 289.2,317.1 291.8,317.1 	"/>
	<polygon class="st2" points="347.5,287.9 347.5,282.7 325.3,282.7 325.3,287.9 329.3,287.9 329.3,317.1 331.9,317.1 334.5,317.1 
		347.5,317.1 347.5,312 334.5,312 334.5,302.5 347.5,302.5 347.5,297.4 334.5,297.4 334.5,287.9 	"/>
	<polygon class="st2" points="397,287.9 397,282.7 371.9,282.7 371.9,287.9 381.9,287.9 381.9,317.1 387,317.1 387,287.9 	"/>
	<path class="st2" d="M450,297.4c-1.2-8.3-8.4-14.6-17-14.6c-9.5,0-17.2,7.7-17.2,17.2c0,9.5,7.7,17.2,17.2,17.2
		c8.6,0,15.8-6.3,17-14.6h13.7v-5.1H450z M444.8,302.5c-1.2,5.4-6,9.5-11.8,9.5c-6.7,0-12.1-5.4-12.1-12.1s5.4-12.1,12.1-12.1
		c5.8,0,10.6,4.1,11.8,9.5h-6.2v5.1H444.8z"/>
</g>
</svg>
