<?xml version="1.0" encoding="utf-8"?>
<!-- Generator: Adobe Illustrator 21.0.0, SVG Export Plug-In . SVG Version: 6.00 Build 0)  -->
<svg version="1.1" id="Layer_1" xmlns="http://www.w3.org/2000/svg" xmlns:xlink="http://www.w3.org/1999/xlink" x="0px" y="0px"
	 viewBox="0 0 600 600" style="enable-background:new 0 0 600 600;" xml:space="preserve">
<style type="text/css">
	.st0{display:none;fill:#002856;}
	.st1{fill:#002856;}
	.st2{fill:#E9004C;}
</style>
<rect class="st0" width="600" height="600"/>
<g id="marca">
	<path class="st1" d="M433.7,394.5c-0.8-1-3-3.2-4.2-2.4c-1,0.6-8,6.5-17.8,6.5c-8.4,0-12.5-2.9-17.1-6c-5-3.5-10.8-7.4-21.7-7.4
		c-11,0-16.7,3.9-21.7,7.4c-4.7,3.2-8.7,6-17.1,6c-8.4,0-12.5-2.9-17.1-6c-5-3.5-10.8-7.4-21.7-7.4c-11,0-16.7,3.9-21.7,7.4
		c-4.7,3.2-8.6,6-17.1,6c-8.4,0-12.5-2.9-17.1-6c-5-3.5-10.8-7.4-21.7-7.4c-11,0-16.7,3.9-21.7,7.4c-4.7,3.2-8.6,6-17.1,6
		c-8.7,0-17.3-6.4-18.1-6.7c-1.4-0.9-3,1-3.6,2c-0.6,1-2.2,3.9-0.9,4.8c1.1,0.8,10.9,8.1,22.5,8.1c11,0,16.7-3.9,21.7-7.4
		c4.7-3.2,8.6-6,17.1-6c8.4,0,12.5,2.7,17.1,6c5,3.5,10.8,7.4,21.7,7.4c11,0,16.7-3.9,21.7-7.4c4.7-3.2,8.6-6,17.1-6
		c8.4,0,12.5,2.7,17.1,6c5,3.5,10.8,7.4,21.7,7.4c11,0,16.7-3.9,21.7-7.4c4.7-3.2,8.7-6,17.1-6c8.4,0,12.5,2.7,17.1,6
		c5,3.5,10.8,7.4,21.7,7.4c14.3,0,21.8-7.5,22.7-8.3C435.6,397.5,434.4,395.5,433.7,394.5z"/>
	<g>
		<g>
			<path class="st2" d="M247.1,200.6c-10.8,0-19.6,3.1-19.6,13.5v107.6l0,0l0,0c0,1.5,1.2,2.6,2.6,2.6h6.5c1.4,0,2.6-1.2,2.6-2.6
				l0,0v-32.9h8l0,0c10.9,0,19.6-3.7,19.6-14v-60.8C266.7,203.8,257.9,200.6,247.1,200.6z M255,270.9c0,6-3.9,6-8,6l0,0h-7.9v-59.1
				c0-4.2,3.9-5.5,7.9-5.5c4.1,0,8,1.2,8,5.5V270.9z"/>
		</g>
		<g>
			<path class="st2" d="M437.5,287.2L437.5,287.2h-4v-68.9c0-1.5-1.2-2.7-2.6-2.7h-6.4c-1.4,0-2.6,1.2-2.6,2.7v68.9h-19.2v-68.9l0,0
				l0,0c0-1.5-1.2-2.7-2.6-2.7h-6.5c-1.4,0-2.6,1.2-2.6,2.7l0,0v68.9h-3.7c-1.5,0-2.7,1.2-2.7,2.7v6.5c0,1.4,1.2,2.6,2.7,2.6h3.7
				v36.3v1.7c0,1.5,1.2,2.7,2.6,2.7h6.5c1.4,0,2.6-1.2,2.6-2.7l0,0v-38.2h19.2V337c0,1.5,1.2,2.6,2.6,2.6h6.4c1.4,0,2.6-1.2,2.6-2.6
				v-37.9h4c1.5,0,2.7-1.2,2.7-2.6V290C440.2,288.5,439,287.2,437.5,287.2z"/>
		</g>
		<g>
			<path class="st2" d="M497.6,317.5L497.6,317.5h-4v-58.1c0-10.1-8.7-13.5-19.6-13.5c-10.9,0-19.6,3.1-19.6,13.5v58.1h-3.7
				c-1.5,0-2.7,1.2-2.7,2.7v6.5c0,1.4,1.2,2.7,2.7,2.7h3.6v37.9c0,1.5,1.2,2.7,2.6,2.7h6.5c1.4,0,2.6-1.2,2.6-2.7v-37.8h15.8v37.8
				c0,1.5,1.2,2.7,2.6,2.7h6.4c1.4,0,2.6-1.2,2.6-2.7v-37.8h4c1.5,0,2.7-1.2,2.7-2.7v-6.5C500.2,318.8,499,317.5,497.6,317.5z
				 M481.9,317.5H466v-54.3c0-4.2,3.4-5.6,7.9-5.6s8,1.3,8,5.6L481.9,317.5L481.9,317.5z"/>
		</g>
		<g>
			<path class="st2" d="M206.8,287.2L206.8,287.2h-4v-58.1c0-10.1-8.7-13.5-19.6-13.5c-10.8,0-19.6,3.1-19.6,13.5v58.1H160
				c-1.5,0-2.7,1.2-2.7,2.7v6.5c0,1.5,1.2,2.7,2.7,2.7h3.6v37.8c0,1.4,1.2,2.7,2.6,2.7h6.5c1.4,0,2.6-1.2,2.6-2.7v-37.8H191v37.8
				c0,1.4,1.2,2.7,2.6,2.7h6.4c1.4,0,2.6-1.2,2.6-2.7v-37.8h4c1.5,0,2.7-1.2,2.7-2.7v-6.5C209.4,288.5,208.3,287.2,206.8,287.2z
				 M191.1,287.2h-15.8v-54.3c0-4.2,3.4-5.6,7.9-5.6c4.5,0,8,1.3,8,5.6L191.1,287.2L191.1,287.2z"/>
		</g>
		<g>
			<path class="st2" d="M139.2,248.7c0-1.4-1.2-2.6-2.7-2.6h-6.4c-1.4,0-2.6,1.2-2.6,2.6v103.6c0,4.2-3,5.7-8,5.7
				c-4.8,0-7.9-1.5-7.9-5.7v-20.2c0-1.4-1.2-2.6-2.6-2.6h-6.5c-1.4,0-2.6,1.2-2.6,2.6l0,0l0,0v24.3c0,10.1,8.9,13.5,19.6,13.5
				s19.6-3.1,19.6-13.5L139.2,248.7L139.2,248.7z"/>
		</g>
		<g>
			<path class="st2" d="M298.2,193.2H292c-1.4,0-2.6,1.2-2.6,2.7v1.4v116.9c0,1.5,1.2,2.6,2.6,2.6h6.4c1.4,0,2.6-1.2,2.6-2.6V195.8
				l0,0C300.9,194.4,299.9,193.2,298.2,193.2z"/>
		</g>
		<g>
			<path class="st2" d="M366.7,200.5h-6.4c-1.4,0-2.6,1.2-2.6,2.7l1.1,93.2l-23.5-93.2c-0.6-2.2-1.6-2.7-3.9-2.7h-7
				c-1.4,0-2.6,1.2-2.6,2.7v118.3l0,0c0,1.5,1.2,2.7,2.6,2.7h6.5c1.4,0,2.6-1.2,2.6-2.7l-1.1-84.7l22.6,84.7
				c0.6,2.2,1.5,2.7,3.7,2.7h7.9c1.4,0,2.6-1.2,2.6-2.7V203.3C369.3,201.6,368.2,200.5,366.7,200.5z"/>
		</g>
	</g>
	<g>
		<path class="st1" d="M237.6,344.4c-1-0.5-2.2-0.8-3.7-0.8H229c-0.8,0-1.3,0.6-1.3,1.3v23.2c0,0.4,0.1,0.6,0.4,1
			c0.2,0.2,0.5,0.4,1,0.4h4.9c1,0,1.9-0.1,2.7-0.4c0.8-0.4,1.5-0.6,2.1-1.2c1.2-1.1,1.9-2.7,1.9-4.7v-11.8c0-1.5-0.1-3.6-1.1-5.1
			C239.1,345.5,238.4,344.9,237.6,344.4z M236.5,362.3c0,1.3-0.2,2.2-0.8,2.9c-0.6,0.7-1.3,1-2.5,1c-0.6,0-1-0.1-1.2-0.4
			c-0.2-0.2-0.4-0.6-0.4-1.2v-15.8c0-0.4,0.1-0.9,0.4-1.1c0.4-0.4,0.6-0.4,1.2-0.4c2.1,0,3.2,1,3.2,2.9L236.5,362.3L236.5,362.3
			L236.5,362.3z"/>
		<path class="st1" d="M257.3,365.9h-4.8c-0.9,0-1.5-0.6-1.5-1.5v-4.8c0-0.9,0.6-1.5,1.5-1.5h2.6c0.8,0,1.3-0.6,1.3-1.3v-1.1
			c0-0.8-0.6-1.3-1.3-1.3h-2.6c-0.4,0-0.8-0.1-1.1-0.4c-0.3-0.4-0.4-0.6-0.4-1.1v-3.9c0-0.9,0.6-1.5,1.5-1.5h4.4
			c0.4,0,0.6-0.1,1-0.4c0.2-0.2,0.4-0.5,0.4-1v-1c0-0.4-0.1-0.6-0.4-1c-0.2-0.2-0.5-0.4-1-0.4h-8.6c-0.8,0-1.3,0.6-1.3,1.3V368
			c0,0.4,0.1,0.6,0.4,1c0.2,0.2,0.5,0.4,1,0.4h9.1c0.4,0,0.6-0.1,1-0.4c0.2-0.2,0.4-0.5,0.4-1v-0.8
			C258.7,366.4,258.1,365.9,257.3,365.9z"/>
		<path class="st1" d="M274.8,365.9h-3.9c-0.9,0-1.5-0.6-1.5-1.5v-19.3c0-0.8-0.6-1.3-1.3-1.3h-1.4c-0.8,0-1.3,0.6-1.3,1.3v23.2
			c0,0.4,0.1,0.6,0.4,1c0.2,0.2,0.5,0.4,1,0.4h8.2c0.4,0,0.6-0.1,1-0.4c0.2-0.2,0.4-0.5,0.4-1v-1
			C276.2,366.4,275.5,365.9,274.8,365.9z"/>
		<path class="st1" d="M284.8,343.6h-1.4c-0.4,0-0.6,0.1-1,0.4c-0.2,0.2-0.4,0.5-0.4,1v23.2c0,0.8,0.6,1.3,1.3,1.3h1.4
			c0.4,0,0.6-0.1,1-0.4c0.2-0.2,0.4-0.5,0.4-1V345C286.1,344.4,285.5,343.6,284.8,343.6z"/>
		<path class="st1" d="M306.5,343.6h-1.3c-0.8,0-1.4,0.6-1.5,1.3l-2.6,15.2c-0.1,0.4-0.1,0.8-0.2,1c-0.1,0.4-0.1,0.5-0.2,0.5h-0.1
			v-0.1c0,0-0.1-0.6-0.2-1.4l-2.6-15.2c-0.1-0.4-0.2-0.6-0.5-1c-0.4-0.2-0.6-0.4-1-0.4h-1.5c-0.4,0-0.6,0.1-0.9,0.4
			c-0.2,0.2-0.2,0.5-0.2,0.9l4.7,23.2c0.1,0.4,0.4,0.6,0.5,1c0.4,0.2,0.6,0.4,1.1,0.4h1.4c0.8,0,1.4-0.5,1.6-1.3l4.7-23.2
			c0.1-0.4,0-0.6-0.2-0.9C307.1,343.9,306.9,343.6,306.5,343.6z"/>
		<path class="st1" d="M324.2,365.9h-4.8c-0.9,0-1.5-0.6-1.5-1.5v-4.8c0-0.9,0.6-1.5,1.5-1.5h2.6c0.8,0,1.3-0.6,1.3-1.3v-1.1
			c0-0.8-0.5-1.3-1.3-1.3h-2.6c-0.9,0-1.5-0.6-1.5-1.5v-3.9c0-0.9,0.6-1.5,1.5-1.5h4.4c0.8,0,1.3-0.5,1.3-1.3v-1
			c0-0.8-0.5-1.3-1.3-1.3h-8.6c-0.8,0-1.3,0.6-1.3,1.3v23.2c0,0.8,0.6,1.3,1.3,1.3h9.1c0.4,0,0.6-0.1,1-0.4c0.2-0.2,0.4-0.5,0.4-1
			v-1C325.4,366.4,324.9,365.9,324.2,365.9z"/>
		<path class="st1" d="M341.3,358.3L341.3,358.3L341.3,358.3c1.6-1.3,2.5-3.1,2.5-5.5v-1.4c0-1.5-0.1-3.6-1.1-5.1
			c-0.4-0.8-1.2-1.4-2-1.9c-1-0.5-2.2-0.8-3.7-0.8h-4.9l0,0c-0.8,0-1.3,0.6-1.3,1.3v23.2c0,0.8,0.6,1.3,1.3,1.3h1.4
			c0.4,0,0.6-0.1,1-0.4c0.2-0.2,0.4-0.5,0.4-1v-8.6v-0.1h0.1c0.8,0,2.3,0,2.3,0h0.1v0.1c0.8,2.1,2.7,8.6,2.7,8.7
			c0.2,0.8,1,1.3,1.7,1.3h1.5c0.4,0,0.6-0.1,0.8-0.4c0.2-0.2,0.2-0.5,0.1-0.9L341.3,358.3z M339.8,352c0,1.3-0.2,2.2-0.6,2.9
			c-0.5,0.6-1.3,1-2.5,1c-1,0-1.5-0.4-1.5-1.3l0,0l0,0v-5.9l0,0l0,0c0-0.4,0.2-0.8,0.4-1c0.2-0.2,0.6-0.4,1.1-0.4
			c2.1,0,3.2,1,3.2,2.9L339.8,352L339.8,352L339.8,352z"/>
		<path class="st1" d="M362.6,344.1c-0.2-0.2-0.4-0.4-0.8-0.4h-1.5c-0.8,0-1.5,0.6-1.7,1.3l-2.1,7.2c-0.2,0.8-0.4,1.4-0.4,1.4
			L356,354l-0.1-0.4c0,0-0.2-0.6-0.4-1.4l-2.2-7.2c-0.2-0.6-1-1.3-1.7-1.3h-1.5c-0.4,0-0.6,0.1-0.8,0.4c-0.2,0.2-0.2,0.5-0.1,0.9
			l4.2,12.6c0.2,0.8,0.4,2.1,0.4,2.9v8c0,0.8,0.5,1.3,1.3,1.3h1.4c0.4,0,0.6-0.1,1-0.4c0.2-0.2,0.4-0.5,0.4-1v-8
			c0-0.8,0.2-2.1,0.4-2.9l4.2-12.6C362.7,344.6,362.7,344.4,362.6,344.1z"/>
	</g>
</g>
</svg>
