<?xml version="1.0" encoding="utf-8"?>
<!-- Generator: Adobe Illustrator 21.0.0, SVG Export Plug-In . SVG Version: 6.00 Build 0)  -->
<svg version="1.1" id="Layer_1" xmlns="http://www.w3.org/2000/svg" xmlns:xlink="http://www.w3.org/1999/xlink" x="0px" y="0px"
	 viewBox="0 0 600 600" style="enable-background:new 0 0 600 600;" xml:space="preserve">
<style type="text/css">
	.st0{fill:#FFFFFF;}
	.st1{fill:#C12A21;}
	.st2{opacity:0.5;fill:#893529;enable-background:new    ;}
</style>
<rect width="600" height="600"/>
<g>
	<path class="st0" d="M259.9,402.6c-27.5,0-50.6-12.1-62.3-32c-4,1.5-8.2,2.9-12.7,4.2c-21.1,5.9-47.8,9.1-79.5,9.4l-8.4,0.1
		l-1.3-180.4l7.1-1.2c8.2-1.4,25.6-2.1,38.6-2.1c75.4,0,91.2,26.1,91.2,48.1c0,10-3.6,19.7-10.2,27.3c1.2,0.9,2.3,1.8,3.3,2.7
		c13.2-6.9,27.9-10.4,42.7-10.2c7.6-0.1,15.2,1,22.5,3.1v-74.1h66.7v48.8c5.8-1.1,11.6-1.6,17.5-1.7c4.4,0,8.7,0.3,13,1.1
		c-6.5-13.7-0.7-30.1,13-36.6c3.8-1.8,7.9-2.7,12-2.6c14.8-0.1,26.8,11.9,26.9,26.7c0,0.2,0,0.4,0,0.6c0,3.2-0.5,6.4-1.5,9.4
		c9.5-2.5,19.3-3.7,29.1-3.7c6.9,0,20.3,0.3,26.5,1.3l7.1,1.2v52.3l-10.7-0.8c9.9,10.8,13.9,22.1,13.9,31c0,16.8-8.5,44.9-65.7,44.9
		c-7.1,0-20.8-0.3-26.9-1.3l-7-1.2v-29.3c-11.8,13-26.8,22.7-43.4,28.2c-10.6,3.6-21.6,5.5-32.8,5.5c-1.5,0-3.1,0-4.5-0.2
		C310.4,390.6,286.3,402.6,259.9,402.6z"/>
	<path class="st1" d="M462.3,282.7l30.6,2.4V249c-8.3-0.9-16.7-1.3-25.1-1.2c-12.9,0-41.6,2.4-52.2,20c0-16.5,16.1-18,16.1-34.1
		c0.3-10.1-7.6-18.5-17.7-18.8c-0.3,0-0.5,0-0.8,0c-10.6,0-19.2,7.9-19.2,18.8c0,15.7,16,18.1,16,33.7c-7.4-10.6-20.8-14.6-35-14.6
		c-8.8,0.1-17.5,1.4-25.9,3.9v-51h-49.7v78.1c-9.6-4.9-20.2-7.3-31-7.2c-17.2,0-32.3,4.5-44.1,12.4c-4.4-5.1-9.9-9.2-15.9-12
		c1.5-1,2.8-2.1,4.2-3.3c7.3-6.4,11.6-15.6,11.5-25.3c0-36.9-58.1-39.6-82.8-39.6c-13.7,0.1-30.2,0.9-37.3,2l1.2,164.8
		c19-0.2,50.3-1.5,77.2-9.1c6.5-1.8,12.9-4.1,19.1-6.9c8.5,21.1,30.8,34.4,58.3,34.4c26.5,0,48.8-12.8,59.9-32.3
		c2.9,0.6,5.8,0.9,8.7,0.9c10.2-0.1,20.4-1.8,30.1-5.1c28.6-9.6,53.1-32.3,56.6-61.2c4.7,9.4,14.5,18.8,29.8,25.4l-31.8-0.4v38
		c4.7,0.8,16.5,1.2,25.5,1.2c17.3,0,57.3-2.4,57.3-36.5C496,312.2,486.6,295.3,462.3,282.7z M155.1,253.6c0-5.5,3.5-7.4,7-7.4
		c4.7,0,8.2,2,8.2,7.5v9.5c0,5.5-3.5,7.5-8.2,7.5c-3.5,0-7-2-7-7.5L155.1,253.6z M170.8,321.6c0,5.5-3.5,7.4-8.2,7.4
		c-3.9,0-7.4-2-7.4-7.4V307c0-5.5,3.5-7.5,7.4-7.5c4.7,0,8.2,2,8.2,7.5V321.6z M270.4,344.7c0,5.5-3.5,7.4-8.2,7.4
		c-3.9,0-7.5-2-7.5-7.4v-18.4c0-5.5,3.5-7.5,7.5-7.5c4.7,0,8.2,2,8.2,7.5V344.7z M365,310.6c0,4.7-2.6,6.8-6.4,7.3
		c-0.6,0.1-1.2,0.1-1.9,0.1c-3.9,0-7.4-2-7.4-7.4v-15.7c0-5.5,3.5-7.5,7.4-7.5c0.6,0,1.2,0,1.9,0.1c3.7,0.5,6.4,2.6,6.4,7.3V310.6z"
		/>
	<path class="st2" d="M319.8,361.9c5-8.8,7.6-18.8,7.6-28.9c0-22.9-10.7-40-27.9-49v46.6C299.5,347.7,306.1,358.7,319.8,361.9z
		 M234,316.9c0-11.5-3.7-20.6-9.6-27.6c-16.5,11.1-26.5,29-26.5,50.7c0,6.7,1.2,13.4,3.7,19.7C220.4,351.1,234,337.6,234,316.9z"/>
</g>
</svg>
