<?xml version="1.0" encoding="utf-8"?>
<!-- Generator: Adobe Illustrator 21.0.0, SVG Export Plug-In . SVG Version: 6.00 Build 0)  -->
<svg version="1.1" id="Layer_1" xmlns="http://www.w3.org/2000/svg" xmlns:xlink="http://www.w3.org/1999/xlink" x="0px" y="0px"
	 viewBox="0 0 600 600" style="enable-background:new 0 0 600 600;" xml:space="preserve">
<style type="text/css">
	.st0{fill-rule:evenodd;clip-rule:evenodd;fill:#0074AC;}
	.st1{fill:#0074AC;}
	.st2{fill-rule:evenodd;clip-rule:evenodd;fill:#E61E29;}
</style>
<g>
	<path class="st0" d="M316.5,384.6c5.3,0,9.6,4.3,9.6,9.6c0,5.3-4.3,9.6-9.6,9.6c-5.3,0-9.6-4.3-9.6-9.6
		C306.9,388.9,311.2,384.6,316.5,384.6L316.5,384.6z M446.3,419.9c0.5-16.2,26.4-17.6,41.5-8.5l-5.6,10.9c-5.2-3.6-9.7-5.3-15.4-4.8
		c-5.4,0.4-6,6.3,2.8,6.1c13.7-0.3,21.1,6.9,20.4,16.1c-1.2,14.9-24.7,21.1-45.4,8l7.6-11.1c5.7,3.3,11.5,6.2,17.2,5.6
		c6-0.7,9-5.5-1.7-6.7C453.3,434,446.1,429.3,446.3,419.9L446.3,419.9z M333.1,454.9v-46h16.8v6.5c6.5-10.8,31.8-10.9,31.8,5.9
		l0,33.7h-16.7l-0.2-23.1c-0.1-9.3-3.4-10.1-8-9.6c-3.8,0.4-7.1,1.8-7.1,9.6v23.1H333.1L333.1,454.9z M307.8,408h17.4v46.9h-17.4
		V408L307.8,408z M222.9,454.9v-46h16.8v6.5c5-8.4,24.4-12.5,29.9,0.5c7.9-11.8,31-11.3,31,4.8l0,34.3h-17.8v-25.2
		c0-6.8-1.2-7.4-6.8-7.2c-4.7,0.2-5.7,4.1-5.7,8.4l-0.1,23.9h-16.7l-0.2-23.1c-0.1-9.3-2.1-10-6.7-9.6c-4.5,0.4-6.5,1.1-6.5,9.6
		v23.1H222.9L222.9,454.9z M192.7,405.5c13.7,0,24.7,11.1,24.7,24.7c0,13.7-11.1,24.7-24.7,24.7c-13.7,0-24.7-11.1-24.7-24.7
		C168,416.5,179,405.5,192.7,405.5L192.7,405.5z M192.7,421.4c4.9,0,8.8,3.9,8.8,8.8c0,4.9-3.9,8.8-8.8,8.8c-4.9,0-8.8-3.9-8.8-8.8
		C183.9,425.3,187.8,421.4,192.7,421.4L192.7,421.4z M100,454.9v-65.2h19.4c6.2,0,11.4,0.3,15.8,1c4.3,0.7,7.9,1.7,10.6,3.1
		c5.8,3,10.2,6.9,13.3,11.8c3.1,4.9,4.6,10.5,4.6,16.7c0,6.2-1.5,11.8-4.6,16.7c-3.1,4.9-7.5,8.8-13.3,11.8
		c-2.8,1.4-6.4,2.5-10.7,3.1c-4.3,0.7-10.2,1-17.4,1H100L100,454.9z M119.4,437.7v-30.7h7.9c2.5,0,4.7,0.2,6.4,0.5
		c1.8,0.3,3.2,0.8,4.3,1.5c2.4,1.4,4.2,3.3,5.4,5.6c1.3,2.3,1.9,4.9,1.9,7.9c0,2.9-0.6,5.6-1.9,7.9c-1.2,2.3-3.1,4.2-5.4,5.6
		c-1.1,0.7-2.6,1.2-4.4,1.5c-1.8,0.3-4.1,0.5-7.1,0.5H119.4L119.4,437.7z M411,405.5c13.7,0,24.7,11.1,24.7,24.7
		c0,13.7-11.1,24.7-24.7,24.7c-13.7,0-24.7-11.1-24.7-24.7C386.3,416.5,397.3,405.5,411,405.5L411,405.5z M411,421.4
		c4.9,0,8.8,3.9,8.8,8.8c0,4.9-3.9,8.8-8.8,8.8c-4.9,0-8.8-3.9-8.8-8.8C402.2,425.3,406.1,421.4,411,421.4L411,421.4z M440.9,384.7
		c3.8,0,7.1,2.3,8.5,5.5c1.1,2.5,1.2,5.7,0.5,8.4c-1,4.1-4.5,8.2-11.9,12l-2-2.7c1.4-1.2,2.9-2.4,3.5-3.3c1.1-1.6-0.3-1.2-1.5-1.6
		c-3.8-1.2-6.6-4.7-6.6-8.9C431.5,388.9,435.7,384.7,440.9,384.7L440.9,384.7z"/>
	<path class="st1" d="M495.9,407.6c0.7,0,1.3,0.2,2,0.5c0.6,0.4,1.2,0.9,1.5,1.5c0.4,0.7,0.5,1.3,0.5,2c0,0.7-0.2,1.4-0.5,2
		c-0.4,0.6-0.9,1.1-1.5,1.5c-0.6,0.4-1.3,0.5-2,0.5c-0.7,0-1.4-0.2-2-0.5c-0.6-0.4-1.1-0.9-1.5-1.5c-0.4-0.6-0.5-1.3-0.5-2
		c0-0.7,0.2-1.4,0.5-2c0.4-0.7,0.9-1.2,1.5-1.5C494.6,407.8,495.3,407.6,495.9,407.6L495.9,407.6z M495.9,408.3
		c-0.6,0-1.1,0.1-1.7,0.4c-0.5,0.3-1,0.7-1.3,1.3c-0.3,0.5-0.5,1.1-0.5,1.7c0,0.6,0.2,1.1,0.5,1.7c0.3,0.5,0.7,1,1.3,1.3
		c0.5,0.3,1.1,0.5,1.7,0.5c0.6,0,1.1-0.2,1.7-0.5c0.5-0.3,1-0.7,1.3-1.3c0.3-0.5,0.4-1.1,0.4-1.7c0-0.6-0.2-1.2-0.5-1.7
		c-0.3-0.5-0.7-1-1.3-1.3C497.1,408.4,496.5,408.3,495.9,408.3L495.9,408.3z M494.2,413.9v-4.4h1.5c0.5,0,0.9,0,1.1,0.1
		c0.2,0.1,0.4,0.2,0.5,0.4c0.1,0.2,0.2,0.4,0.2,0.6c0,0.3-0.1,0.6-0.3,0.8c-0.2,0.2-0.5,0.4-0.9,0.4c0.2,0.1,0.3,0.1,0.4,0.2
		c0.2,0.2,0.4,0.5,0.6,0.9l0.5,0.9H497l-0.4-0.7c-0.3-0.5-0.5-0.9-0.7-1c-0.1-0.1-0.3-0.2-0.6-0.2h-0.4v1.9H494.2L494.2,413.9z
		 M494.9,411.5h0.9c0.4,0,0.7-0.1,0.8-0.2c0.1-0.1,0.2-0.3,0.2-0.5c0-0.1,0-0.2-0.1-0.3c-0.1-0.1-0.2-0.2-0.3-0.2
		c-0.1-0.1-0.4-0.1-0.7-0.1h-0.8V411.5L494.9,411.5z"/>
	<path class="st2" d="M266.1,207.5l60.8-60.5c2.5-2.5,6.7-2.5,9.2,0l57.3,57.5c2.5,2.5,2.5,6.7,0,9.2l-60.8,60.5L266.1,207.5
		L266.1,207.5z M320.6,196.8c6.4-6.4,16.7-6.3,23.1,0c6.4,6.4,6.3,16.7,0,23.1c-6.4,6.4-16.7,6.3-23.1,0
		C314.2,213.5,314.2,203.1,320.6,196.8L320.6,196.8z"/>
	<path class="st0" d="M274.7,266.2c6.4-6.4,16.7-6.3,23.1,0c6.4,6.4,6.3,16.7,0,23.1c-6.4,6.4-16.7,6.3-23.1,0
		C268.3,282.9,268.3,272.6,274.7,266.2L274.7,266.2z M227,266.4c6.4-6.4,16.7-6.3,23.1,0c6.4,6.4,6.3,16.7,0,23.1
		c-6.4,6.4-16.7,6.3-23.1,0C220.6,283.1,220.6,272.7,227,266.4L227,266.4z M201,272.5l60.8-60.5l66.5,66.8l-60.8,60.5
		c-2.5,2.5-6.7,2.5-9.2,0L201,281.7C198.4,279.1,198.5,275,201,272.5L201,272.5z"/>
	<path class="st1" d="M288.6,341.4v-8.1h-3.1v-1.4h7.8v1.4h-3.1v8.1H288.6L288.6,341.4z M294.4,341.4v-9.6h2.3l2.4,7.6l2.3-7.6h2.3
		v9.6h-1.5v-8l-2.5,8h-1.4l-2.6-8.1v8.1H294.4L294.4,341.4z"/>
</g>
</svg>
