<?xml version="1.0" encoding="utf-8"?>
<!-- Generator: Adobe Illustrator 21.0.0, SVG Export Plug-In . SVG Version: 6.00 Build 0)  -->
<svg version="1.1" id="Layer_1" xmlns="http://www.w3.org/2000/svg" xmlns:xlink="http://www.w3.org/1999/xlink" x="0px" y="0px"
	 viewBox="0 0 600 600" style="enable-background:new 0 0 600 600;" xml:space="preserve">
<style type="text/css">
	.st0{fill:#FFFFFF;}
	.st1{fill:#C12A21;}
	.st2{opacity:0.5;fill:#893529;enable-background:new    ;}
</style>
<g>
	<path class="st0" d="M260.7,400.4c-26.9,0-49.5-11.8-61-31.3c-3.9,1.5-8,2.8-12.4,4.1c-20.7,5.8-46.8,8.9-77.8,9.2l-8.2,0.1
		L100,205.9l6.9-1.2c8-1.4,25.1-2.1,37.8-2.1c73.8,0,89.3,25.5,89.3,47.1c0,9.8-3.5,19.3-10,26.7c1.2,0.9,2.3,1.8,3.2,2.6
		c12.9-6.8,27.3-10.2,41.8-10c7.4-0.1,14.9,1,22,3v-72.5h65.3v47.8c5.7-1.1,11.4-1.6,17.1-1.7c4.3,0,8.5,0.3,12.7,1.1
		c-6.4-13.4-0.7-29.5,12.7-35.8c3.7-1.8,7.7-2.6,11.7-2.5c14.5-0.1,26.2,11.6,26.3,26.1c0,0.2,0,0.4,0,0.6c0,3.1-0.5,6.3-1.5,9.2
		c9.3-2.4,18.9-3.6,28.5-3.6c6.8,0,19.9,0.3,25.9,1.3l6.9,1.2v51.2l-10.5-0.8c9.7,10.6,13.6,21.6,13.6,30.3
		c0,16.4-8.3,43.9-64.3,43.9c-6.9,0-20.4-0.3-26.3-1.3l-6.9-1.2v-28.7C391,349.5,376.3,359,360,364.4c-10.4,3.5-21.1,5.4-32.1,5.4
		c-1.5,0-3,0-4.4-0.2C310.1,388.6,286.5,400.4,260.7,400.4z"/>
	<path class="st1" d="M458.8,283l29.9,2.3V250c-8.1-0.9-16.3-1.3-24.6-1.2c-12.6,0-40.7,2.3-51.1,19.6c0-16.1,15.8-17.6,15.8-33.4
		c0.3-9.9-7.4-18.1-17.3-18.4c-0.3,0-0.5,0-0.8,0c-10.4,0-18.8,7.7-18.8,18.4c0,15.4,15.7,17.7,15.7,33
		c-7.2-10.4-20.4-14.3-34.3-14.3c-8.6,0.1-17.1,1.4-25.3,3.8v-49.9h-48.6v76.4c-9.4-4.8-19.8-7.1-30.3-7c-16.8,0-31.6,4.4-43.2,12.1
		c-4.3-5-9.7-9-15.6-11.7c1.5-1,2.7-2.1,4.1-3.2c7.1-6.3,11.4-15.3,11.3-24.8c0-36.1-56.9-38.8-81-38.8c-13.4,0.1-29.6,0.9-36.5,2
		l1.2,161.3c18.6-0.2,49.2-1.5,75.6-8.9c6.4-1.8,12.6-4,18.7-6.8c8.3,20.7,30.1,33.7,57.1,33.7c25.9,0,47.8-12.5,58.6-31.6
		c2.8,0.6,5.7,0.9,8.5,0.9c10-0.1,20-1.8,29.5-5c28-9.4,52-31.6,55.4-59.9c4.6,9.2,14.2,18.4,29.2,24.9l-31.1-0.4V358
		c4.6,0.8,16.1,1.2,25,1.2c16.9,0,56.1-2.3,56.1-35.7C491.8,311.9,482.6,295.4,458.8,283z M158.1,254.5c0-5.4,3.4-7.2,6.9-7.2
		c4.6,0,8,2,8,7.3v9.3c0,5.4-3.4,7.3-8,7.3c-3.4,0-6.9-2-6.9-7.3V254.5z M173.5,321.1c0,5.4-3.4,7.2-8,7.2c-3.8,0-7.2-2-7.2-7.2
		v-14.3c0-5.4,3.4-7.3,7.2-7.3c4.6,0,8,2,8,7.3V321.1z M271,343.7c0,5.4-3.4,7.2-8,7.2c-3.8,0-7.3-2-7.3-7.2v-18
		c0-5.4,3.4-7.3,7.3-7.3c4.6,0,8,2,8,7.3V343.7z M363.6,310.3c0,4.6-2.5,6.7-6.3,7.1c-0.6,0.1-1.2,0.1-1.9,0.1c-3.8,0-7.2-2-7.2-7.2
		V295c0-5.4,3.4-7.3,7.2-7.3c0.6,0,1.2,0,1.9,0.1c3.6,0.5,6.3,2.5,6.3,7.1V310.3z"/>
	<path class="st2" d="M319.3,360.5c4.9-8.6,7.4-18.4,7.4-28.3c0-22.4-10.5-39.1-27.3-48v45.6C299.5,346.6,305.9,357.4,319.3,360.5z
		 M235.4,316.5c0-11.3-3.6-20.2-9.4-27c-16.1,10.9-25.9,28.4-25.9,49.6c0,6.6,1.2,13.1,3.6,19.3C222,350,235.4,336.8,235.4,316.5z"
		/>
</g>
</svg>
