<?xml version="1.0" encoding="utf-8"?>
<!-- Generator: Adobe Illustrator 21.0.0, SVG Export Plug-In . SVG Version: 6.00 Build 0)  -->
<svg version="1.1" id="Layer_1" xmlns="http://www.w3.org/2000/svg" xmlns:xlink="http://www.w3.org/1999/xlink" x="0px" y="0px"
	 viewBox="0 0 600 600" style="enable-background:new 0 0 600 600;" xml:space="preserve">
<style type="text/css">
	.st0{fill:#00361B;}
	.st1{fill:#D9950E;}
	.st2{fill:#E4C312;}
</style>
<title>941b02f0-3ddd-48f9-b138-61920a968629</title>
<g>
	<g>
		<path class="st0" d="M186.6,173.8l5.2-4.1c2.1-1.6,4.2-1.8,5.5,0c0.9,1.1,0.9,2.7-0.1,3.8c1.5-0.7,3.1-0.9,4.3,0.6
			c1.6,2,1,4.2-1.6,6.2l-5.1,4l-1.5-1.9l0.8-0.6l-5.3-6.8l-0.8,0.6L186.6,173.8z M194.5,174.5c0.7-0.4,0.9-1.3,0.5-2
			c0,0-0.1-0.1-0.1-0.1c-0.5-0.6-1.4-0.8-2-0.3c0,0-0.1,0.1-0.1,0.1l-1.1,0.9l1.8,2.3L194.5,174.5z M198.1,178.6
			c0.8-0.5,1-1.5,0.6-2.3c-0.5-0.8-1.5-1-2.3-0.6c-0.1,0.1-0.2,0.2-0.3,0.3l-1.3,1l2,2.6L198.1,178.6z"/>
		<path class="st0" d="M204.1,168.9c-2.1-3.4-0.8-7.5,2.5-9.6c3.4-2.1,7.6-1.4,9.7,2c2.1,3.4,0.9,7.6-2.5,9.6
			S206.2,172.4,204.1,168.9z M213.1,163.3c-1.2-1.9-3.2-2.7-5-1.6s-2,3.3-0.8,5.2c1.2,1.9,3.2,2.7,5,1.6
			C214.2,167.4,214.3,165.2,213.1,163.3z"/>
		<path class="st0" d="M227,151.7l-1.2,0.6l3.5,7.4l0.9-0.4l1,2.2l-5,2.4l-1-2.2l0.9-0.4l-3.5-7.4l-1.2,0.6l0.8,1.7l-2.4,1.1l-2-4.2
			l10.4-4.9l2,4.2l-2.4,1.1L227,151.7z"/>
		<path class="st0" d="M241.5,145.8l-2.8,1l0.9,2.6l3.1-1.1l0.8,2.3l-3.1,1.1l1,2.7l3.1-1.1l-0.7-1.8l2.7-1l1.6,4.4l-10,3.6
			l-0.8-2.3l0.9-0.3l-2.9-8.1l-0.9,0.3l-0.8-2.3l9.8-3.5l1.5,4.3l-2.6,1L241.5,145.8z"/>
		<path class="st0" d="M259.9,142.6c-0.6-1.2-2-1.7-3.2-1.3c-2.1,0.5-2.9,2.5-2.4,4.8c0.6,2.3,2.3,3.7,4.4,3.2
			c1.3-0.4,2.2-1.4,2.4-2.7l2.9,0.9c-0.7,2.5-2.3,3.8-4.9,4.5c-3.7,0.9-7.4-0.8-8.4-4.9c-1-3.6,1.2-7.3,4.8-8.3c0,0,0.1,0,0.1,0
			c1.6-0.4,3-0.2,3.7,0.4l-0.3-1.1l2.3-0.6l1.1,4.5L259.9,142.6z"/>
		<path class="st0" d="M267.9,143c-0.5-4,2.3-7.2,6.2-7.7s7.5,1.9,8,5.9c0.5,4-2.3,7.2-6.2,7.8C272,149.4,268.4,147,267.9,143z
			 M278.5,141.6c-0.3-2.2-1.8-3.8-3.9-3.5c-2.2,0.3-3.2,2.1-2.9,4.4s1.8,3.8,3.9,3.5C277.7,145.7,278.8,143.8,278.5,141.6
			L278.5,141.6z"/>
		<path class="st0" d="M306.9,138.9c-0.2-1.3-1.4-2.2-2.7-2.1c-2.1-0.1-3.5,1.6-3.6,3.9s1.2,4.2,3.3,4.3c1.3,0,2.5-0.7,3.1-1.9
			l2.6,1.7c-1.4,2.2-3.3,3.1-6,3c-3.9-0.2-6.9-2.8-6.7-7.1c0.1-3.8,3.2-6.7,6.9-6.7c0,0,0.1,0,0.1,0c1.7,0.1,2.9,0.6,3.4,1.4l0-1.1
			l2.3,0.1l-0.2,4.7L306.9,138.9z"/>
		<path class="st0" d="M318,135.3l8,1.2l-0.4,2.4l-1-0.1l1.3,8.9l1,0.1l-0.4,2.4l-5.6-0.8l0.3-2.3l1.1,0.2l-0.2-1.3l-4-0.6l-0.5,1.2
			l1.1,0.2l-0.3,2.3l-5.1-0.8l0.4-2.4l0.9,0.1l3.9-8.1l-1-0.1L318,135.3z M319.3,143l2.6,0.4l-0.6-4.9L319.3,143z"/>
		<path class="st0" d="M337.9,148.3l-1.7-0.4l-0.5,1.9l1,0.3l-0.6,2.3l-5.5-1.4l0.6-2.3l1,0.3l2.2-8.3l-1-0.2l0.6-2.3l6.2,1.6
			c3.3,0.9,4.7,3.1,4,5.8c-0.4,1.5-1.6,2.6-3.1,2.9l0.6,3.1l1.2,0.3l-0.6,2.3l-3.7-1L337.9,148.3z M338.5,145.9c0.9,0.4,2-0.1,2.3-1
			c0.1-0.1,0.1-0.3,0.1-0.4c0.3-1.1-0.3-1.9-1.5-2.3l-1.6-0.4l-1,3.7L338.5,145.9z"/>
		<path class="st0" d="M351.2,142.9l5.2,1.9l-0.8,2.3l-0.9-0.3l-2.9,8.1l0.9,0.3l-0.8,2.3l-5.2-1.9l0.8-2.3l0.9,0.3l2.9-8.1
			l-0.9-0.3L351.2,142.9z"/>
		<path class="st0" d="M359,152.8c1.7-3.7,5.8-4.9,9.4-3.2s5.3,5.6,3.6,9.3c-1.7,3.7-5.8,4.9-9.4,3.2S357.3,156.5,359,152.8z
			 M368.7,157.3c1-2.1,0.5-4.1-1.5-5c-2-0.9-3.8,0.1-4.8,2.1c-1,2.1-0.5,4.1,1.5,5.1S367.7,159.4,368.7,157.3L368.7,157.3z"/>
		<path class="st0" d="M386.4,165c0.4-1.3-0.2-2.6-1.3-3.2c-1.8-1.1-3.8-0.3-5,1.7s-1,4.2,0.8,5.3c1.1,0.6,2.5,0.6,3.6-0.1l1.4,2.7
			c-2.3,1.2-4.3,1.1-6.7-0.3c-3.3-2-4.6-5.8-2.4-9.4c1.9-3.2,6.1-4.3,9.3-2.4c0,0,0.1,0,0.1,0.1c1.4,0.9,2.3,2,2.3,2.9l0.6-0.9
			l2,1.2l-2.4,4L386.4,165z"/>
		<path class="st0" d="M397.9,167.3l6.4,4.9l-1.5,1.9l-0.8-0.6l-3.2,8.4l0.8,0.6l-1.5,1.9l-4.5-3.5l1.4-1.8l0.9,0.7l0.5-1.2
			l-3.2-2.4l-1,0.8l0.9,0.7l-1.4,1.8l-4-3.1l1.5-1.9l0.7,0.6l7.4-5.1l-0.8-0.6L397.9,167.3z M395.2,174.7l2.1,1.6l1.9-4.5
			L395.2,174.7z"/>
	</g>
	<path class="st0" d="M296.4,115.7c7.1,0,14.2,0.4,21.2,1.2c19.7,2.2,39,7.6,57.1,15.9c5.8,2.7,11.4,5.6,16.9,8.9
		c7.4,4.4,14.5,9.4,21.2,15c3.6,3.1,4.6,4.2,4.5,4.3c-0.1,0.1-1.3-0.7-5.1-3.5c-6.9-5.2-14-9.9-21.4-14.2c-3.1-1.8-9-5.1-16.8-8.7
		c-17.9-8.2-37-13.4-56.5-15.6c-13.9-1.6-28-1.6-41.9,0c-19.5,2.2-38.6,7.4-56.5,15.6c-7.8,3.5-13.7,6.9-16.8,8.7
		c-7.4,4.3-14.6,9.1-21.4,14.2c-3.8,2.8-5,3.7-5.1,3.5s0.9-1.2,4.5-4.3c6.6-5.6,13.7-10.6,21.2-15c5.5-3.3,11.1-6.2,16.9-8.9
		c18-8.3,37.3-13.7,57.1-15.9C282.3,116.1,289.4,115.7,296.4,115.7z"/>
	<polygon class="st0" points="125.5,380.2 216.8,380.2 216.8,382 125.5,382 125.5,380.2 	"/>
	<polygon class="st0" points="376.1,380.2 467.4,380.2 467.4,382 376.1,382 376.1,380.2 	"/>
	<g>
		<path class="st0" d="M190.2,418.8c0.6-1.1,0.3-2.5-0.7-3.2c-1.5-1.4-3.5-1-5,0.7s-1.7,3.8-0.2,5.1c0.9,0.8,2.3,1,3.4,0.5l0.8,2.8
			c-2.3,0.8-4.3,0.2-6.2-1.5c-2.7-2.5-3.3-6.3-0.6-9.3c2.3-2.7,6.4-3,9.1-0.6c0,0,0.1,0.1,0.1,0.1c1.2,1.1,1.8,2.2,1.6,3.1l0.7-0.8
			l1.7,1.5l-3,3.3L190.2,418.8z"/>
		<path class="st0" d="M204.4,427.5l-2.3-1.7l-1.5,2.1l2.5,1.8l-1.3,1.9l-2.5-1.8l-1.6,2.2l2.5,1.8l1.1-1.5l2.2,1.6l-2.6,3.6
			l-8.2-5.9l1.3-1.9l0.8,0.5l4.8-6.6l-0.8-0.6l1.3-1.9l8,5.8l-2.5,3.5l-2.2-1.6L204.4,427.5z"/>
		<path class="st0" d="M214.5,441l-1.5-0.8l-0.9,1.6l0.9,0.5l-1.1,2l-4.7-2.7l1.1-2l0.8,0.5l4-7.1l-0.8-0.5l1.1-2l5.3,3
			c2.8,1.6,3.5,4,2.2,6.3c-0.7,1.3-2.1,2-3.5,2l-0.2,3l1,0.6l-1.1,2l-3.2-1.8L214.5,441z M215.6,438.9c0.7,0.6,1.8,0.4,2.4-0.3
			c0.1-0.1,0.2-0.2,0.2-0.4c0.5-0.8,0.3-1.8-0.5-2.3c-0.1-0.1-0.2-0.1-0.3-0.2l-1.3-0.8l-1.8,3.1L215.6,438.9z"/>
		<path class="st0" d="M228.4,438.7l5.1,2.2l-0.9,2.1l-1-0.5l-0.3,5.9l4-4.3l-0.9-0.4l0.9-2.1l4.4,1.9l-0.9,2.1l-0.9-0.4l-8,8
			l-1.9-0.8l0.3-11.3l-0.9-0.4L228.4,438.7z"/>
		<path class="st0" d="M246,445.8l7.3,2.3l-0.7,2.2l-0.9-0.3l-0.1,8.6l0.9,0.3l-0.7,2.2l-5.2-1.6l0.6-2.1l1,0.3l0-1.2l-3.6-1.1
			l-0.7,1l1,0.3l-0.6,2.1l-4.7-1.4l0.7-2.2l0.8,0.3l4.9-7.1l-0.9-0.3L246,445.8z M246.1,453.3l2.4,0.8l0.2-4.7L246.1,453.3z"/>
		<path class="st0" d="M267.7,455.4c0-1-0.8-1.7-1.7-1.9c-0.8-0.2-1.4,0.2-1.5,0.7c-0.1,0.5,0.2,0.9,0.8,1.2l1.6,0.9
			c2.3,1.3,3,2.7,2.6,4.4c-0.4,2.3-2.2,3.7-5.1,3.1c-1.1-0.1-2.1-0.8-2.7-1.7l-0.2,1l-2.2-0.4l0.8-4.1l2.2,0.4c0,1.1,0.8,2.1,2,2.3
			c0.9,0.2,1.7-0.2,1.8-0.8c0.1-0.6-0.3-1.1-1.1-1.5l-1.4-0.8c-1.7-1-2.8-2.3-2.4-4.4c0.5-2.5,2.8-3.3,4.8-3c1.4,0.3,2,0.9,2.2,1.5
			l0.2-0.8l2.2,0.4l-0.8,3.9L267.7,455.4z"/>
		<path class="st0" d="M295.4,465.9c-0.9,0.7-1.9,1-3,0.9c-2.8-0.1-4.9-1.5-4.8-3.7c0-1.8,1.2-2.9,3-3.7c-0.5-0.8-0.8-1.7-0.8-2.7
			c0-1.9,1.7-3.1,3.8-3c2.1,0,3.6,1,3.6,2.9c0,1.4-1,2.4-2.5,3.1l1.7,2.2c0.3-0.6,0.5-1.2,0.5-1.9l2.7,0c-0.1,1.5-0.7,2.8-1.7,3.9
			l0.4,0.5l1.6,0l0,2.3l-3.6-0.1L295.4,465.9z M294,464.2l-2.3-3c-0.5,0.4-0.8,0.9-0.8,1.6c-0.1,0.9,0.6,1.7,1.5,1.8
			c0.1,0,0.2,0,0.2,0C293.2,464.6,293.6,464.5,294,464.2z M294.4,456.8c0.1-0.5-0.3-0.9-0.7-0.9c-0.5-0.1-0.9,0.3-0.9,0.7
			c0,0.1,0,0.1,0,0.2c0,0.6,0.2,1.1,0.6,1.5C293.9,458,294.3,457.4,294.4,456.8L294.4,456.8z"/>
		<path class="st0" d="M316.3,452.8l6.2-1c2.5-0.4,4.3,0.4,4.6,2.5c0.3,1.4-0.5,2.7-1.8,3.1c1.5,0.1,3,0.7,3.3,2.5
			c0.4,2.4-1.1,4-4.2,4.5l-6.1,1l-0.4-2.3l0.9-0.2l-1.3-8.1l-0.9,0.1L316.3,452.8z M322.6,457.1c0.8,0,1.4-0.7,1.3-1.5
			c0,0,0-0.1,0-0.1c-0.1-0.7-0.8-1.3-1.5-1.2c-0.1,0-0.1,0-0.2,0l-1.3,0.2l0.4,2.7L322.6,457.1z M323.6,462.1c0.9,0,1.5-0.8,1.5-1.6
			c0-0.9-0.8-1.5-1.6-1.5c-0.1,0-0.3,0-0.4,0.1l-1.5,0.2l0.5,3.1L323.6,462.1z"/>
		<path class="st0" d="M333.2,449.7l5.1-1.3l0.6,2.2l-0.9,0.2l2,7.9l0.9-0.2l0.6,2.2l-5.1,1.3l-0.6-2.2l0.9-0.2l-2-7.9l-0.9,0.2
			L333.2,449.7z"/>
		<path class="st0" d="M352.8,452.8l-1.6,0.6l0.6,1.8l1-0.3l0.8,2.2l-5.1,1.8l-0.8-2.2l0.9-0.3l-2.8-7.7l-0.9,0.3l-0.8-2.2l5.7-2.1
			c3.1-1.1,5.3-0.1,6.2,2.4c0.5,1.4,0.2,2.9-0.8,4l2.2,2.1l1.1-0.4l0.8,2.2l-3.5,1.2L352.8,452.8z M351.8,450.6
			c0.9-0.2,1.5-1.1,1.3-2c0-0.1-0.1-0.3-0.1-0.4c-0.3-0.9-1.2-1.4-2.1-1.1c-0.1,0-0.2,0.1-0.3,0.1l-1.5,0.5l1.2,3.4L351.8,450.6z"/>
		<path class="st0" d="M360.7,440.3l4.8-2.2l1,2.1l-0.8,0.4l3.5,7.4l0.9-0.4l1,2.1l-4.8,2.2l-1-2.1l0.9-0.4l-3.5-7.4l-0.9,0.4
			L360.7,440.3z"/>
		<path class="st0" d="M379.7,433.4l-1.1,0.6l3.9,6.7l0.8-0.5l1.2,2l-4.6,2.7l-1.2-2l0.8-0.5l-3.9-6.8l-1.1,0.6l0.9,1.5l-2.2,1.3
			l-2.2-3.8l9.4-5.5l2.2,3.8l-2.2,1.3L379.7,433.4z"/>
		<path class="st0" d="M386.8,425.6l6.2-4.6l1.4,1.8l-0.8,0.6l6.9,5.1l0.7-0.5l1.4,1.8l-4.4,3.2l-1.3-1.8l0.9-0.6l-1-0.8l-3.1,2.3
			l0.4,1.2l0.9-0.6l1.3,1.8l-3.9,2.9l-1.4-1.8l0.7-0.5l-2.8-8.1l-0.8,0.6L386.8,425.6z M392.9,429.9l2-1.5l-3.7-2.9L392.9,429.9z"/>
		<path class="st0" d="M407.4,413.9c-0.8-0.5-1.9-0.4-2.5,0.3c-0.5,0.4-0.7,1.1-0.3,1.6c0,0,0,0,0,0c0.3,0.4,0.8,0.4,1.4,0.1
			l1.6-0.7c2.4-1.1,3.9-0.8,5.1,0.5c1.6,1.7,1.7,4-0.5,5.9c-0.8,0.8-1.9,1.2-3,1.1l0.7,0.7l-1.6,1.5l-2.9-3.1l1.7-1.5
			c0.9,0.7,2.2,0.6,3-0.2c0.7-0.6,0.9-1.4,0.4-1.9c-0.4-0.5-1-0.4-1.8,0l-1.4,0.6c-1.8,0.8-3.5,0.9-4.9-0.7c-1.7-1.9-1-4.2,0.5-5.6
			c1-0.9,1.9-1.1,2.5-0.9l-0.6-0.6l1.6-1.5l2.7,2.9L407.4,413.9z"/>
	</g>
	<path class="st0" d="M296.5,482.2c-7,0-14-0.4-21-1.2c-19.5-2.2-38.6-7.4-56.5-15.6c-7.8-3.5-13.7-6.9-16.8-8.7
		c-7.4-4.3-14.6-9.1-21.4-14.2c-3.8-2.8-5-3.7-5.1-3.5c-0.1,0.1,0.9,1.2,4.5,4.3c6.6,5.6,13.7,10.6,21.2,15
		c5.5,3.3,11.1,6.2,16.9,8.9c18,8.3,37.3,13.7,57.1,15.9c14.1,1.6,28.3,1.6,42.4,0c19.7-2.2,39-7.6,57.1-15.9
		c5.8-2.7,11.4-5.6,16.9-8.9c7.4-4.4,14.5-9.4,21.2-15c3.6-3.1,4.6-4.2,4.5-4.3c-0.1-0.2-1.3,0.7-5.1,3.5c-6.9,5.2-14,9.9-21.4,14.2
		c-3.1,1.8-9,5.1-16.8,8.7c-8.8,4-17.9,7.3-27.3,10c-9.6,2.7-19.3,4.5-29.2,5.6C310.4,481.8,303.4,482.2,296.5,482.2z"/>
	<path class="st0" d="M296.5,436.4c5.3,0,10.6-0.3,15.8-0.9c7.4-0.8,14.8-2.2,22-4.2c11.6-3.3,22.7-8,33.2-14
		c5.6-3.3,11-6.8,16.2-10.7c2.9-2.1,3.8-2.7,3.9-2.6c0.1,0.1-0.6,1-3.3,3.4c-5,4.2-10.3,8-16,11.4c-17.1,10.1-36.1,16.5-55.8,18.8
		c-10.7,1.2-21.5,1.2-32.1,0c-19.7-2.2-38.8-8.6-55.8-18.8c-5.6-3.3-11-7.1-16-11.4c-2.7-2.4-3.4-3.2-3.3-3.4c0.1-0.1,1.1,0.5,4,2.6
		c5.2,3.9,10.6,7.4,16.2,10.7c10.4,6,21.6,10.7,33.2,14c7.2,2,14.6,3.4,22,4.2C285.9,436.1,291.2,436.4,296.5,436.4z"/>
	<g>
		<path class="st0" d="M134.9,358.6c2.2,0,4.3-0.3,6.4-1c-3.5,2.9-7.9,4.5-12.4,4.5H100v-84.9h3.6v81.3H134.9z M154.8,295.7V332
			c0,13-6,24.2-19.9,24.2H106v-84.9h28.9c9.1,0,16.7,5.9,18.7,14.2C154.4,288.9,154.8,292.3,154.8,295.7L154.8,295.7z M139.6,295.7
			c0-6.8-1.5-12-8.1-12h-9.5V344h9.5c6.5,0,8.1-5.2,8.1-12L139.6,295.7z M137.2,295.8v36.4c0,6.8-1.7,9-3.8,9.7
			c0.1-1.3,0.3-2.7,0.3-4.1v-36.2c0-6.9-1.5-12.1-8-12.1h-1.3v-3.5h7.2C134.6,285.8,137.2,287.2,137.2,295.8z"/>
		<path class="st0" d="M177.9,358.6l-3.6,3.4h-15l18.3-84.9l3-2.7l-18.3,84.1H177.9z M198.9,336.5h-15.5l-3.1,19.8h-15.1l18.5-84.9
			h16l18.5,84.9h-16L198.9,336.5z M215.7,358.6l-3.6,3.4h-16l-3.1-19.6h-8.1l0.5-3.4H197l3,19.6H215.7z M196.3,324.4l-4.9-30.4h-0.4
			l-5,30.4H196.3z M191.2,307.8l2.3,14.5H189l-0.1-0.8L191.2,307.8z"/>
		<path class="st0" d="M276,359.7c3.3,0,6.5-0.4,9.6-1.3c-3.7,2.9-9,4.8-15.7,4.8c-17.8,0-24.2-10.4-24.2-19.2v-48.9
			c0-4.4,1.6-8.6,4.5-11.9c-0.5,2-0.9,4.1-0.9,6.2v49C249.3,349,257.5,359.7,276,359.7z M299.4,295.9h-16.2v-6.4c0-2.5-2.6-7-7.2-7
			c-5.6,0-8.2,4.5-8.2,7v48.7c0,2.5,2.6,7,8.2,7c5.9,0,9-4.1,9-11v-12.8h-9v-12.1h23.4v26.2c0,11.4-7.3,21.9-23.4,21.9
			c-17.8,0-24.4-10.3-24.4-19v-49c0-8.7,6.5-19,24.4-19c16,0,23.4,10.3,23.4,19V295.9z M279.1,340v-12.9h-8.9v-12.1h3.5v8.7h9v10.5
			c0,4.5-1.3,7.2-3.8,8.2C279,341.7,279.1,340.9,279.1,340L279.1,340z M277.3,301.7v-6.4c-0.3-3.7-3.2-6.6-6.8-7
			c0.9-2.2,3.1-3.7,5.5-3.5c3.2,0,4.9,3.4,4.9,4.8v8.7h12.6v3.4L277.3,301.7z"/>
		<path class="st0" d="M313.6,358.6h37v3.5H310v-84.9h3.6V358.6z M356.6,344v12.2H316v-84.9h38.7v12.2h-22.7v20.7h16.2v12.1h-16.2
			V344L356.6,344z M334.4,289.4v-3.5h14.4v3.5H334.4z M334.4,322.2v-3.4h8v3.4H334.4z"/>
		<path class="st0" d="M366.5,358.7h12.3v3.4h-16v-84.9h3.7L366.5,358.7z M432.8,271.4v84.9h-16v-52.4l-10.4,52.4h-11.2l-10.1-52.4
			h-0.3v52.4h-16v-84.9h21.7l10.3,50.8h0.3l10.3-50.8L432.8,271.4z M393.3,358.7h7.8l-0.6,3.4h-11.3l-2.1-10.5v-24.1L393.3,358.7z
			 M400.8,311.2l-1.3-6.1l5.6-27.9h2.4L400.8,311.2z M414.4,358.7h12.4v3.4h-16v-16l3.6-18.7L414.4,358.7z"/>
		<path class="st0" d="M459.7,358.6l-3.6,3.4h-15l18.3-84.9l2.9-2.7l-18.3,84.1H459.7z M480.8,336.5h-15.5l-3.1,19.8H447l18.5-84.9
			h16l18.5,84.9h-16L480.8,336.5z M497.6,358.6L494,362h-16l-3.1-19.6h-8.1l0.5-3.4h11.5l3,19.6H497.6z M478.2,324.4l-4.9-30.4h-0.4
			l-5,30.4H478.2z M473.1,307.8l2.3,14.5h-4.5l-0.1-0.8L473.1,307.8z"/>
	</g>
	<g>
		<polygon class="st0" points="125.5,255.1 216.7,255.1 216.7,256.9 125.5,256.9 125.5,255.1 		"/>
		<rect x="125.5" y="220.2" class="st0" width="91.2" height="1.8"/>
	</g>
	<g>
		<polygon class="st0" points="375.8,255.1 467.4,255.1 467.4,256.9 375.8,256.9 375.8,255.1 		"/>
		<rect x="375.8" y="220.2" class="st0" width="91.6" height="1.8"/>
	</g>
	<g>
		<path class="st0" d="M127.8,230.5h3l4.8,9.2v-9.2h3.2v16.9h-2.8l-5-9.6v9.6h-3.2V230.5z"/>
		<path class="st0" d="M144.2,230.5h3.3l4.7,17h-3.3l-0.9-3.5h-4.4l-0.9,3.5h-3.2L144.2,230.5z M147.1,241l-1.4-5.6l-1.4,5.6H147.1z
			"/>
		<path class="st0" d="M156.6,230.5h3.3l3,6.5l2.9-6.5h3.3v16.9H166v-10.5l-3.1,6.7h0l-3.1-6.7v10.5h-3.1V230.5z"/>
		<path class="st0" d="M170.5,239.3v-0.6c0-5.3,2.5-8.4,6.2-8.4s6.1,3.1,6.1,8.4v0.6c0,5.3-2.5,8.5-6.2,8.5S170.5,244.6,170.5,239.3
			z M179.4,239.2v-0.3c0-3.8-1.2-5.6-2.9-5.6c-1.6,0-2.8,1.8-2.8,5.6v0.3c0,3.8,1.2,5.6,2.9,5.6S179.4,243,179.4,239.2L179.4,239.2z
			"/>
		<path class="st0" d="M184.1,230.5h4.8c1.6-0.1,3.1,0.5,4.2,1.5c1,1.1,1.5,2.5,1.4,4v0.1c0.1,2-0.9,3.8-2.6,4.8l3,6.5h-3.6
			l-2.5-5.7h-1.4v5.7h-3.2V230.5z M188.6,238.8c1.3,0.1,2.5-0.8,2.7-2.2c0-0.2,0-0.3,0-0.5c0-1.8-1-2.7-2.7-2.7h-1.2v5.3H188.6z"/>
		<path class="st0" d="M199.5,230.5h3.3l4.7,17h-3.3l-0.9-3.5h-4.3l-0.9,3.5h-3.2L199.5,230.5z M202.5,241l-1.4-5.6l-1.4,5.6H202.5z
			"/>
		<path class="st0" d="M208.2,230.5h3.2v13.9h5.1v3h-8.3V230.5z"/>
	</g>
	<g>
		<path class="st0" d="M379.8,230.2h3.4l3,6.7l3-6.7h3.4v17.2h-3.2v-10.7l-3.2,6.8h0l-3.2-6.8v10.7h-3.2L379.8,230.2z"/>
		<path class="st0" d="M396.2,230.2h9v3.1h-5.7v4h5v3.1h-5v4.1h5.8v3.1h-9.1V230.2z"/>
		<path class="st0" d="M408.5,230.2h4.9c1.6-0.1,3.1,0.5,4.3,1.5c1,1.1,1.5,2.6,1.4,4v0.1c0.1,2-0.9,3.9-2.6,4.9l3,6.7h-3.7
			l-2.6-5.8h-1.5v5.8h-3.3V230.2z M413.1,238.7c1.4,0.1,2.6-0.9,2.7-2.2c0-0.2,0-0.3,0-0.5c0-1.8-1-2.7-2.8-2.7h-1.2v5.4
			L413.1,238.7z"/>
		<path class="st0" d="M422.3,230.2h3.4l3,6.7l3-6.7h3.4v17.2h-3.2v-10.7l-3.2,6.8h-0.1l-3.2-6.8v10.7h-3.2L422.3,230.2z"/>
		<path class="st0" d="M442.5,230.1h3.3l4.8,17.3h-3.4l-0.9-3.6h-4.4l-0.9,3.6h-3.3L442.5,230.1z M444.1,228.6
			c-0.4-0.2-0.8-0.3-1.2-0.4c-0.5,0-0.7,0.3-0.9,1l-1.8-0.5c0.4-2,1-2.9,2.3-2.9c0.7,0,1.3,0.2,1.9,0.5c0.4,0.2,0.8,0.3,1.2,0.4
			c0.5,0,0.7-0.3,0.9-1l1.8,0.5c-0.4,2-1,3-2.3,3C445.3,229,444.7,228.9,444.1,228.6z M445.5,240.9l-1.4-5.7l-1.5,5.7H445.5z"/>
		<path class="st0" d="M452.1,239.1v-0.6c0-5.4,2.6-8.6,6.3-8.6c3.7,0,6.3,3.2,6.3,8.6v0.6c0,5.4-2.6,8.6-6.3,8.6
			S452.1,244.5,452.1,239.1z M461.3,239v-0.3c0-3.9-1.3-5.7-2.9-5.7s-2.9,1.8-2.9,5.7v0.3c0,3.9,1.3,5.7,2.9,5.7
			C460.1,244.7,461.3,242.9,461.3,239L461.3,239z"/>
	</g>
	<g>
		<path class="st1" d="M242.9,371.6h0.2c4,0,7.2,1.9,9.4,5.7c1.4,2.4,2.1,5.1,2,7.9c0,4.5-1.5,9-4.5,13.5c-0.6,0.9-1.2,1.7-1.9,2.5
			c-0.8,0.9-1.6,1.6-2.1,2.1c-1,0.8-2,1.5-3.1,2.2c-2,1.2-4.2,1.9-6.5,2.1c-3.1,0-5.2-1.8-6.3-5.3c-0.4-1.5-0.7-3.1-0.6-4.7
			c0-3.7,0.9-7.3,2.7-10.6c0.5-0.9,1.1-1.8,1.9-2.6c1.7-1.7,3.4-2.6,5.2-2.6h0.4c0.5-0.1,1.1,0.1,1.5,0.5c0.6,0.6,0.9,1.5,0.9,2.4
			v0.2c0,1.4-0.6,2.7-1.7,3.5c-0.8,0.4-1.6,0.9-2.3,1.5c-0.9,0.8-1.6,1.8-2.2,2.9c-1.2,1.9-1.9,4.1-2,6.4v0.1c0,1.6,0.6,2.7,1.7,3.2
			c0.5,0.2,1,0.3,1.5,0.3h0.2c1.9,0,4-1.3,6.1-3.8c0.7-0.9,1.4-1.9,2-2.9c2.1-3.5,3.3-7.5,3.4-11.6v-0.1c0-3.1-1-5.2-2.9-6.2
			c-0.6-0.3-1.3-0.4-2-0.4h-0.3c-1.8,0-4,0.9-6.5,2.6c-1,0.7-1.8,1.5-2.7,2.4c-1.2,1.3-2.3,2.7-3.2,4.2c-0.2,0.4-0.5,0.9-0.8,1.4h0
			c-0.8-0.2-1.5-0.6-2.1-1.2c-1-0.8-1.5-2-1.6-3.2c0-2,1.3-4.3,4-6.8c1.1-1,2.3-1.8,3.5-2.6C236.6,372.7,239.7,371.7,242.9,371.6z
			 M260.7,378.3c0.7,0,1.4,0.3,2,0.7c0.6,0.4,1,1.1,1,1.8v0.2c-0.1,0.8-0.3,1.6-0.7,2.3c-0.2,0.4-0.3,0.8-0.3,1.2
			c0,0.1,0.1,0.1,0.2,0.1c0.7-0.1,1.4-0.4,2.1-0.7c0.6-0.2,1.2-0.3,1.8-0.4h0.3c1-0.1,2,0.5,2.3,1.5c0,0.1,0,0.3,0.1,0.4v0.1
			c-0.6,1.8-1.3,3.6-2.1,5.4l-2.9,7.1c-0.1,0.2-0.1,0.3-0.1,0.5c0,0.2,0.1,0.3,0.1,0.3c0.5,0,2.1-1.6,4.8-4.9c1.2-1.4,2.4-3,3.6-4.8
			c0.9-1.3,1.7-2.6,2.4-4c0.3-0.4,0.6-0.6,0.7-0.6h0.1c0.2,0,0.3,0.2,0.3,0.5c0,0.8-1,3-3,6.5c-1.3,2.3-2.7,4.5-4.3,6.6
			c-2.4,3.2-4.3,4.8-5.7,4.8c-1.5,0-3-0.9-3.6-2.3c-0.2-0.4-0.3-0.9-0.3-1.3v-0.2c0.1-0.9,0.4-1.9,0.8-2.7
			c2.5-6.7,3.7-10.1,3.7-10.2v0c0,0,0,0-0.1-0.1c-0.8,0.3-1.6,0.7-2.3,1.2c-0.3,0.1-0.7,0.2-1,0.2c-0.2,0-0.5,0-0.7-0.1
			c-0.4,1-1.5,3.8-3.2,8.2c-0.6,1.7-1.4,3.4-2.4,4.9c-1.3,1.7-2.7,2.5-4.4,2.5c-0.7,0-1.3-0.1-1.9-0.4l0,0c1.5-0.7,3-2.5,4.5-5.2
			c0.9-1.5,2.2-4,4-7.5c0.8-1.5,1.4-2.6,1.9-3.4c-0.3-0.3-0.5-0.7-0.6-1.2c0-0.2-0.1-0.4-0.1-0.5v-0.1c0.1-1,0.4-1.9,0.8-2.8
			c0.3-1.1,0.8-2.2,1.2-3.2C260,378.4,260.4,378.3,260.7,378.3L260.7,378.3z"/>
		<path class="st1" d="M276.7,379.7c0.7,0,1.6,0.5,2.7,1.4c0.3,0.3,0.5,0.7,0.5,1.1c0,0.6-0.7,2.5-2.1,5.7c-1.5,3.5-2.7,6.6-3.5,9
			c-0.2,0.6-0.3,1.2-0.4,1.7c0,0.2,0.1,0.3,0.2,0.3c0.7-0.2,2.2-1.7,4.6-4.6c3.1-3.9,5.1-6.8,6.1-8.8c0.4-0.7,0.8-1.1,1-1.1h0
			c0.2,0,0.3,0.2,0.3,0.5c0,0.9-1.2,3.5-3.6,7.7c-4.2,6.9-7.3,10.3-9.2,10.3c-1.4,0-2.7-0.8-3.3-2.1c-0.3-0.6-0.5-1.3-0.5-2
			c0-0.9,0.6-2.9,1.7-6c1.7-5.1,3.1-9.1,4.3-11.9c0.2-0.4,0.4-0.8,0.7-1.1C276.3,379.8,276.5,379.7,276.7,379.7z M279.5,373.1
			c0.7,0,1.6,0.5,2.7,1.4c0.3,0.3,0.5,0.6,0.5,1v0c-0.1,0.9-0.4,1.7-0.8,2.5c-0.2,0.3-0.5,0.5-0.9,0.5c-0.8-0.2-1.6-0.5-2.3-0.9
			c-0.8-0.6-1.2-1.1-1.2-1.5c0.3-0.8,0.6-1.6,1-2.4C278.9,373.4,279.1,373.1,279.5,373.1L279.5,373.1z"/>
		<path class="st1" d="M290,379.7c1.6,0,3.1,0.9,4.5,2.6l0.7,1c0.3-1,0.7-2,1.1-3c0.1-0.4,0.5-0.6,0.9-0.6h0.1
			c0.7,0,1.6,0.5,2.8,1.4c0.3,0.3,0.4,0.6,0.4,1v0.1c0,0.6-0.7,2.5-2.1,5.7c-1.4,3.3-2.6,6.3-3.5,9c-0.2,0.6-0.3,1-0.3,1.3
			c0,0.1,0,0.2,0.1,0.3h0.1c0.5,0,2.1-1.5,4.6-4.4c3.1-3.8,5-6.6,5.9-8.4c0.5-0.8,0.8-1.2,1.1-1.2c0.1,0,0.2,0.1,0.3,0.4v0.2
			c0,1-1.4,3.9-4.3,8.7c-0.8,1.4-1.7,2.7-2.7,3.9c-1.3,1.6-2.8,3-4.4,4.4c-0.7,0.6-1.5,1.2-2.3,1.7c-0.3,0.1-0.5,0.3-0.5,0.3
			c-1.1,3-1.8,5-2.2,5.9c-0.7,1.3-1.8,2.2-3.2,2.7c-0.7,0.3-1.5,0.4-2.2,0.4h-0.3c-1.3,0-2.6-0.5-3.6-1.4c-0.5-0.5-0.8-1.3-0.8-2
			c0-1.5,0.9-3,2.8-4.6c0.9-0.7,1.9-1.3,3-1.8c0.9-0.4,1.7-0.8,2.6-1.1c0.4-0.9,0.8-2,1.3-3.1v0h0c-0.6,0.9-1.4,1.7-2.2,2.4
			c-0.9,0.9-2.1,1.5-3.4,1.5h-0.1c-1.8,0.2-3.4-1-3.9-2.7c-0.2-0.6-0.3-1.3-0.3-1.9v0c0-2.2,0.9-5.6,2.6-10.2
			c0.6-1.6,1.4-3.1,2.3-4.5C286.3,381,288.2,379.7,290,379.7z M283.8,408.6c0,0.3,0.1,0.5,0.4,0.6h0.1c0.4,0,0.9-0.4,1.5-1.3
			c0.4-0.7,0.7-1.4,0.9-2.1h0c-0.9,0.5-1.7,1.1-2.4,1.8C284,407.8,283.8,408.2,283.8,408.6L283.8,408.6z M285.5,396.3
			c0,0.3,0.1,0.6,0.2,0.9c0.1,0.1,0.2,0.2,0.3,0.2h0c0.4,0,0.9-0.4,1.7-1.3c1.1-1.2,2.2-2.4,3-3.8c0.6-0.9,1.2-1.8,1.7-2.8
			c0.7-1.3,1.1-2.8,1.2-4.2V385c0.1-0.7-0.3-1.4-1-1.7c-0.2,0-0.3,0-0.3,0c-0.9,0-1.9,1-3.1,3c-1,1.9-1.9,3.8-2.6,5.8
			c-0.4,1-0.7,2.1-0.9,3.1C285.6,395.5,285.5,395.9,285.5,396.3L285.5,396.3z"/>
		<path class="st1" d="M307.5,379.7c0.7,0,1.6,0.5,2.7,1.4c0.3,0.3,0.5,0.7,0.5,1.1c0,0.6-0.7,2.5-2.1,5.7c-1.5,3.5-2.7,6.6-3.5,9
			c-0.2,0.6-0.3,1.2-0.4,1.7c0,0.2,0.1,0.3,0.2,0.3c0.7-0.2,2.2-1.7,4.6-4.6c3.1-3.9,5.1-6.8,6.1-8.8c0.4-0.7,0.8-1.1,1-1.1h0
			c0.2,0,0.3,0.2,0.3,0.5c0,0.9-1.2,3.5-3.6,7.7c-4.2,6.9-7.3,10.3-9.2,10.3c-1.4,0-2.7-0.8-3.3-2.1c-0.3-0.6-0.5-1.3-0.5-2
			c0-0.9,0.6-2.9,1.7-6c1.7-5.1,3.1-9.1,4.4-11.9c0.2-0.4,0.4-0.8,0.7-1.1C307.1,379.8,307.3,379.7,307.5,379.7z M310.4,373.1
			c0.7,0,1.6,0.5,2.7,1.4c0.3,0.3,0.5,0.6,0.5,1v0c-0.1,0.9-0.4,1.7-0.8,2.5c-0.2,0.3-0.5,0.5-0.9,0.5c-0.8-0.2-1.6-0.5-2.3-0.9
			c-0.8-0.6-1.2-1.1-1.2-1.5c0.3-0.8,0.6-1.6,1-2.4C309.7,373.4,310,373.1,310.4,373.1L310.4,373.1z"/>
		<path class="st1" d="M327.4,379.7h0.2c0.3,0,0.6,0.1,0.8,0.2c0.8,0.3,1.5,0.7,2.1,1.3c0.3,0.3,0.4,0.7,0.4,1.1
			c0,0.6-0.5,2.1-1.5,4.4c-1.4,3.4-2.7,6.7-3.8,9.9c-1.1,3.4-1.7,5.9-1.7,7.6c0,2,0.8,3.3,2.3,4c1.1,0.5,2.3,0.7,3.5,0.6
			c3.7-0.2,7.3-0.7,10.9-1.4c2.9-0.6,5.8-1,8.7-1.1c5.3,0,8.6,1.3,10.1,3.9c0.3,0.5,0.5,1,0.6,1.5c0.2,0.7,0.3,1.3,0.3,2
			c0,0,0,0,0,0c0,0,0,0,0,0c-2.9-1.8-6.9-2.8-12-2.8c-2.4,0-6.1,0.3-11.2,0.8c-2.9,0.3-5.2,0.4-7.1,0.4c-3.1,0-5.2-0.4-6.3-1.1
			c-1.6-0.9-2.8-2.4-3.4-4.1c-0.4-1.1-0.6-2.3-0.6-3.5v-0.3c0-2.2,0.6-5.2,1.9-8.9c0.1-0.2,0.5-1.4,1.2-3.5c0.7-2,1.2-3.2,1.3-3.7
			c0-0.1,0-0.2,0.1-0.3v-0.1c0-0.2-0.1-0.2-0.2-0.2c-0.4,0-1.5,1.1-3.2,3.2c-1.7,2.2-3.3,4.5-4.8,7c-1.5,2.6-2.2,4.4-2.2,5.4v0.7
			c0,0.1,0,0.1,0,0.2l0,0c-1.6,0.1-3.1-0.9-3.6-2.5c-0.2-0.5-0.3-1.1-0.3-1.6c0.2-1.4,0.5-2.8,1.1-4.2c1.7-5.3,3.2-9.4,4.4-12.5
			c0.3-0.7,0.6-1.3,0.9-2c0.1-0.3,0.4-0.5,0.8-0.5c1,0.2,1.9,0.6,2.6,1.3c0.4,0.3,0.6,0.7,0.6,1.2c0,0.6-0.5,2-1.5,4.4l-0.7,1.6v0
			c1-1.6,2.1-3,3.3-4.5C324.1,381,326,379.7,327.4,379.7z"/>
		<path class="st1" d="M339.9,379.8h0.3c1.4,0,2.8,0.8,4.2,2.4c0.2,0.3,0.5,0.7,0.8,1.2c0.3-1,0.7-2.1,1.1-3
			c0.2-0.4,0.5-0.6,0.8-0.6h0.2c0.9,0.2,1.8,0.6,2.5,1.3c0.3,0.3,0.6,0.7,0.6,1.1v0.1c0,0.6-0.7,2.6-2.1,5.8
			c-1.4,3.1-2.5,6.1-3.4,8.9c-0.2,0.7-0.4,1.3-0.5,1.7v0.1c0,0.1,0,0.2,0.1,0.2h0.1c0.6,0,2.2-1.7,4.9-5c3.1-4,5-6.8,5.8-8.6
			c0.4-0.6,0.7-0.9,0.9-0.9h0.1c0.1,0.1,0.2,0.2,0.2,0.3v0.2c0,1-1.4,3.8-4.1,8.4c-1.2,1.9-2.5,3.8-3.9,5.6
			c-2.1,2.6-3.7,3.9-4.8,3.9h-0.2c0,0-0.1,0-0.1,0c0,0,0,0-0.1,0h-0.1c-2-0.1-3.7-1.7-3.8-3.7l0.1-0.4c-0.7,0.9-1.4,1.8-2.2,2.6
			c-0.9,1-2.2,1.6-3.5,1.7h-0.3c-1.7,0.1-3.2-1-3.7-2.6c-0.2-0.7-0.3-1.4-0.3-2.1v0c0-2.3,0.9-5.7,2.6-10.3c0.7-1.7,1.6-3.3,2.6-4.8
			C336.6,380.9,338.2,379.8,339.9,379.8z M335.5,396.4c-0.1,0.4,0.1,0.8,0.4,1l0.2,0.1c0.3,0,0.9-0.4,1.7-1.3c0.9-1,1.8-2,2.6-3.1
			c2.2-3.2,3.2-5.7,3.2-7.7v-0.3c0.1-0.7-0.3-1.4-1-1.7c-0.1,0-0.2,0-0.3,0h-0.1c-0.8,0-1.7,0.9-2.8,2.6c-1.1,2-2.1,4.1-2.9,6.2
			c-0.4,1.1-0.7,2.3-0.9,3.5C335.5,395.9,335.5,396.2,335.5,396.4L335.5,396.4z"/>
		<path class="st1" d="M359.8,373.1c1,0.2,1.9,0.7,2.6,1.3c0.3,0.3,0.5,0.7,0.6,1.1v0.1c0,0.6-0.6,2.3-1.8,5.1
			c-2.3,5.7-4.1,10.1-5.3,13.2c-0.6,1.5-1.1,3-1.5,4.6v0.1c0,0.2,0.1,0.2,0.2,0.2c0.6,0,2.2-1.7,5-5.1c2.2-2.6,4.1-5.4,5.7-8.4
			c0.4-0.7,0.8-1,1.1-1.1c0.2,0,0.3,0.2,0.3,0.5c0,1.2-1.6,4.3-4.7,9.4c-3.7,5.8-6.4,8.6-8.2,8.6h-0.2c-1.4,0-2.6-0.8-3.3-2
			c-0.3-0.5-0.4-1.1-0.5-1.7V399c0.1-0.9,0.4-1.7,0.7-2.5c3.4-9.7,5.7-15.9,6.8-18.8c0.8-2,1.4-3.4,1.8-4.2
			C359.3,373.3,359.5,373.1,359.8,373.1z"/>
	</g>
	<g>
		<path class="st0" d="M327.2,189.4c-0.2-2.1-2.1-20.6-14.7-22.8l-0.1,0l-0.1,0c-0.4,0-0.7-0.1-1.1-0.1c-2.2,0-7.7,0.6-15.7,5
			c-2.6-12.4-7.6-15.4-8.6-15.9l-0.1-0.1l-0.1,0c-1-0.4-2.1-0.6-3.3-0.6c-6,0-10.7,6-14.2,18.3c-1.5,5.2-2.6,10.6-3.4,16l-0.6,4.5
			h62.5L327.2,189.4z M321.4,190h-52l0.3-1.9c0.7-4.7,3.7-28,13.6-28c0.8,0,1.6,0.2,2.4,0.4l0.1,0l0.1,0c0.6,0.3,5.6,4.4,7.7,16.5
			c8.3-4.8,14.6-6,16.7-6c0.3,0,0.5,0,0.8,0l0,0l0.1,0c10.5,1.7,12.1,16.4,12.1,17l0.2,1.9L321.4,190z"/>
		<polygon class="st2" points="273.8,204 280.3,250.2 313.1,250.2 319.5,204.1 		"/>
		<path class="st0" d="M265.3,197.3l8.6,58.4c0.3,2,2.1,3.5,4.1,3.5h37.1c2,0,3.8-1.5,4.1-3.5l8.5-58.4H265.3z M269.6,200.8h54
			l-7.4,52.6h-38.7L269.6,200.8z"/>
		<g>
			<path class="st0" d="M281.4,213.8c-1.2,0.2-2.1,0.8-2.1,1.4l2.6,19.4c0.1,0.6,1.1,1,2.3,0.8c1.2-0.2,2.1-0.8,2.1-1.4l-2.6-19.4
				C283.6,214,282.6,213.7,281.4,213.8z"/>
			<path class="st0" d="M279.8,203.1c-1.2,0.2-2.1,0.8-2.1,1.4l0.7,5.1c0.1,0.6,1.1,1,2.3,0.8c1.2-0.2,2.1-0.8,2.1-1.4l-0.7-5.1
				C282.1,203.3,281.1,202.9,279.8,203.1z"/>
		</g>
	</g>
	<circle class="st0" cx="228.5" cy="318.8" r="3.9"/>
	<g>
		<path class="st0" d="M278,162.8c-18.9,2.4-37.1,8.7-53.4,18.5c-5.6,3.3-11,7.1-16,11.4c-2.7,2.4-3.4,3.2-3.3,3.4
			c0.1,0.1,1.1-0.5,4-2.6c5.2-3.8,10.6-7.4,16.2-10.7c10.4-6,21.6-10.7,33.2-14c5.8-1.6,11.7-2.8,17.6-3.7
			C276.8,164.2,277.4,163.5,278,162.8z"/>
		<path class="st0" d="M384.3,192.6c-5-4.2-10.3-8-16-11.4c-17.1-10.2-36.1-16.6-55.8-18.8c-5.3-0.6-10.7-0.9-16.1-0.9
			c-2.2,0-5.4,0.1-9.3,0.3c0.6,0.6,1.1,1.3,1.5,2c3.1-0.2,5.8-0.2,7.7-0.2c5.3,0,10.6,0.3,15.8,0.9c7.4,0.8,14.8,2.2,22,4.2
			c11.6,3.3,22.7,8,33.2,14c5.6,3.3,11,6.8,16.2,10.7c2.9,2.1,3.8,2.7,3.9,2.6C387.7,195.8,387,195,384.3,192.6z"/>
	</g>
</g>
</svg>
