<?xml version="1.0" encoding="utf-8"?>
<!-- Generator: Adobe Illustrator 21.0.0, SVG Export Plug-In . SVG Version: 6.00 Build 0)  -->
<svg version="1.1" id="Layer_1" xmlns="http://www.w3.org/2000/svg" xmlns:xlink="http://www.w3.org/1999/xlink" x="0px" y="0px"
	 viewBox="0 0 600 600" style="enable-background:new 0 0 600 600;" xml:space="preserve">
<style type="text/css">
	.st0{fill:#007682;}
</style>
<g>
	<path class="st0" d="M390,190.5c-2.1,2.7-4,4.9-5.5,7.3c-1.1,1.7-2.1,1.8-3.5,0.5c-0.4-0.4-0.9-0.8-1.4-1c-2.6-1.3-3.2-2.8-1-5.2
		c1.8-1.9,3.1-4.3,4.8-6.7c-2.8-0.9-5.2-1.8-7.8-2.4c-2.4-0.5-2.6-1.7-1.8-3.6c0.4-0.8,0.7-1.7,0.9-2.6c0.3-1.9,1.2-2,2.9-1.5
		c2.6,0.8,5.7,3.2,7.6,1.7c1.3-1.1,0.5-5,0.4-7.6c-0.1-2.3,0.5-3.5,3-3.2c1,0.1,2.1,0.1,3.1,0c2.2-0.3,2.8,0.8,2.7,2.8
		c-0.1,2.1,0.1,4.2-0.1,6.2c-0.2,2.5,0.8,2.8,2.8,1.8c0.9-0.4,2-0.6,3-0.9c4.6-1.4,4.5-1.4,6.1,3.2c0.8,2.4,0.1,3.2-2.1,3.7
		c-2.4,0.6-4.8,1.5-7.4,2.3c1.9,2.7,3.5,5.2,5.3,7.6c1.4,1.7,1.1,2.8-0.7,3.8c-0.9,0.5-1.8,1.1-2.6,1.8c-1.3,1.1-2.1,0.9-3-0.5
		C393.9,195.5,392,193.2,390,190.5z"/>
	<path class="st0" d="M406.6,252.9c0.2-18.8-8.9-32.7-23-43.9c-4-3.2-8.8-5-14-5.7c-1.4-0.2-2.5-0.4-3.1,1.7c-0.8,2.9-3.4,4.3-6,5.2
		c-4.2,1.5-8.5,2-12.9,2.1c-12.6,0.3-24.9-1.7-37-4.7c-7.1-1.7-14-3.9-20.9-6.9c1.2-0.6,2-0.3,2.7-0.1c13.2,3.5,26.6,5.9,40.3,6.5
		c7.3,0.4,14.6,0.3,21.5-2.5c5.5-2.2,7.2-5.3,6.4-11.1c-1.4-10-5.9-18.6-12-26.5c-7.6-9.8-17.3-17.3-26.7-25.1
		c-6.3-5.2-12.6-10.6-16.9-17.7c-4.2-6.8-4.7-13.6,0.1-20.4c0.7-1,2.1-2.1,0.9-3.3c-1.1-1.1-2.3,0.1-3.4,0.8
		c-16.2,10.6-28.9,24.4-36.8,42.2c-4.9,11.2-7,22.8-1.5,34.5c0.6,1.3,0.1,1.5-1,1.9c-1.8,0.7-3.7,1.3-5.4,2.3
		c-11.7,6.8-20.2,15.8-20.9,30.1c-0.1,1.6-1,1.5-2,1.6c-4.1,0.4-8.3,0.8-12.3,1.8c-17.3,4.5-27.2,17.1-27.2,34.9
		c0,7.4,0,14.8,0,22.2c0,5.2,0,5.7,5.4,5.2c9.7-1,15.8,3.8,20.1,11.7c1,1.8,1.9,3.7,2.8,5.6c4.5,10,8.9,20,13.4,30
		c15.4,34.5,30.9,69,46.3,103.6c0.6,1.3,1.1,2.5,0.5,4c-4.2,10.7-8.3,21.5-15.3,30.9c-9.6,12.9-23.7,15.5-38.4,10.9
		c-2.8-0.9-5.1-2.5-6.4-5.7c0.9,0.2,1.6,0.4,2.3,0.4c8.6,1.1,16.8,0.9,22.7-6.8c8.1-10.5,5-29.2-6.1-36.4
		c-5.1-3.3-10.8-4.4-16.8-4.5c-17.2-0.2-28.2,8.1-31.5,23.7c-1.1,5-1,10.1-0.3,15.2c1.9,14.7,8.9,26,22.4,32.9
		c8.4,4.3,17.5,5.7,26.7,6.3c21.3,1.5,38.6-6,52.4-22.2c12-14.2,20.4-30.5,27.4-47.5c18.4-44.7,36.9-89.3,54.8-134.1
		c4.9-12.3,11.9-19.8,26-17.9c2.4,0.3,2.9-0.8,2.9-3C406.5,267.7,406.5,260.3,406.6,252.9z M344.6,287.7c-1.7,7.7-5.2,14.8-8,22.1
		c-6.3,16.6-12.8,33.1-19.2,49.7c-0.2,0.6-0.6,1.3-1.1,2.5c-6-13.4-11.8-26.2-17.6-39c-4.7-10.5-9.4-21-14.1-31.6
		c-0.7-1.5-1.2-3-1.6-4.6c-0.9-4,0.7-6.7,4.7-8c4.3-1.3,8.7-0.7,13.1-0.8c7.1-0.1,7.1,0,7.1-7.3c0-6.5,0-12.9,0-19.4
		c0-4.8-0.7-6-5.3-7.6c-7.2-2.5-14.8-3.6-22.2-5.1c-10-2-19.9-3.9-29.3-8.1c-5.3-2.4-10.2-5.3-13.1-11.6
		c12.2,10.9,27.1,12,41.5,14.8c10.3,2,20.8,3.1,31,5.6c0.4,0.1,0.9,0.2,1.3,0.3c11.3,3.2,12,4.1,12,15.6c0,6.7,0.2,13.4,0.2,20.1
		c0,2.1,0.7,2.8,2.8,2.7c3.6-0.1,7.2-0.1,10.7,0.2C343.9,278.8,345.9,281.5,344.6,287.7z"/>
</g>
</svg>
