<?xml version="1.0" encoding="utf-8"?>
<!-- Generator: Adobe Illustrator 21.0.0, SVG Export Plug-In . SVG Version: 6.00 Build 0)  -->
<svg version="1.1" id="aladdin-logo" xmlns="http://www.w3.org/2000/svg" xmlns:xlink="http://www.w3.org/1999/xlink" x="0px"
	 y="0px" viewBox="0 0 600 600" style="enable-background:new 0 0 600 600;" xml:space="preserve">
<style type="text/css">
	.st0{fill:#0C1943;}
</style>
<g>
	<path class="st0" d="M183.2,343.7h-0.9c-3.6,0-6.8-1.3-9.4-3.9c-2.6-2.6-3.9-5.7-3.9-9.4v-74.8h0.9c3.6,0,6.8,1.3,9.4,3.9
		c2.6,2.6,3.9,5.7,3.9,9.4V343.7"/>
	<path class="st0" d="M410.9,343.7c-3.7,0-6.9-1.3-9.6-4c-2.7-2.6-4-5.8-4-9.5v-47.1h1.3c3.7,0,6.9,1.3,9.6,4c2.7,2.6,4,5.8,4,9.5
		v47.1H410.9z"/>
	<path class="st0" d="M411.9,280.2h-1.3c-3.7,0-6.9-1.3-9.6-3.9c-2.7-2.6-4-5.7-4-9.3v-11h1.3c3.7,0,6.9,1.3,9.6,3.9
		c2.7,2.6,4,5.7,4,9.3V280.2"/>
	<path class="st0" d="M483.5,343.7h-0.9c-3.6,0-6.8-1.3-9.4-3.9c-2.6-2.6-3.9-5.7-3.9-9.4v-16.9c0-4.5-1.6-8.5-4.8-11.8
		c-3.2-3.4-7-5-11.6-5c-4.6,0-8.4,1.6-11.6,5c-3.2,3.3-4.8,7.3-4.8,11.9v16.9c0,3.6-1.3,6.8-3.9,9.4c-2.6,2.6-5.7,3.9-9.4,3.9h-0.9
		v-30.2c0-8.3,3-15.6,9-21.5c6-5.9,13.3-8.9,21.6-8.9c8.3,0,15.6,3,21.6,8.9c6,5.9,9,13.1,9,21.5V343.7"/>
	<path class="st0" d="M288.3,329.8c4.6,0,8.8-1.7,11.8-4.8c3-3.1,4.3-6.5,4.3-11.8l-0.2-14.9c-1.6,0.7-4,1.3-7,1.3
		c-1.6,0-3.1-0.3-4.5-0.6c-1.6-0.3-3.2-0.7-5.2-0.7c-0.5,0-1,0-1.5,0.1c-3.5,0.3-6.8,1.8-9,4c-3.1,3.2-4.5,6.8-4.5,11.2
		c0,4.6,1.4,8.4,4.4,11.4C279.9,328.1,283.9,329.8,288.3,329.8z M288.4,343.7c-8.3,0-15.5-3-21.4-8.8c-6-5.9-9-13-9-21.3
		c0-8.3,3-15.4,9-21.3c7-6.8,15.2-7.9,19.5-7.9c0.3,0,0.5,0,0.8,0c3,0.1,5.7,0.6,8.4,1.2c2.9,0.6,5.6,1.1,8.7,1.1c0.1,0,0.2,0,0.4,0
		v-17.8c0-3.6,1.3-6.8,3.9-9.4c2.6-2.6,5.7-3.9,9.4-3.9h0.9v27.5c0,0.3,0,0.5,0,0.8l0,0.6v29.1c0,8.3-3,15.5-9,21.3
		C303.9,340.7,296.7,343.7,288.4,343.7L288.4,343.7z"/>
	<path class="st0" d="M356.3,329.8c4.6,0,8.8-1.7,11.8-4.8c3-3.1,4.3-6.5,4.3-11.8l-0.2-14.9c-1.6,0.7-4,1.3-7,1.3
		c-1.7,0-3.1-0.3-4.6-0.6c-1.6-0.3-3.2-0.7-5.2-0.7c-0.5,0-1,0-1.5,0.1c-3.5,0.3-6.8,1.8-9,4c-3.1,3.2-4.5,6.8-4.5,11.2
		c0,4.6,1.4,8.4,4.4,11.4C347.9,328.1,351.8,329.8,356.3,329.8z M356.3,343.7c-8.3,0-15.5-3-21.4-8.8c-6-5.9-9-13-9-21.3
		c0-8.3,3-15.4,9-21.3c7-6.8,15.2-7.9,19.5-7.9c0.3,0,0.5,0,0.8,0c3,0.1,5.7,0.6,8.4,1.2c2.9,0.6,5.6,1.1,8.7,1.1c0.1,0,0.2,0,0.4,0
		v-17.8c0-3.6,1.3-6.8,3.9-9.4c2.6-2.6,5.7-3.9,9.4-3.9h0.9v27.5c0,0.1,0,0.1,0,0.2l0,1.2v29.1c0,8.3-3,15.5-9,21.3
		C371.8,340.7,364.6,343.7,356.3,343.7L356.3,343.7z"/>
	<path class="st0" d="M129.6,330.2l0.3,0c2.1,0,3.8-0.4,5.4-0.8c1.5-0.3,2.9-0.7,4.6-0.7l0.3,0c2.9,0,5.2,0.6,6.8,1.2l0-15
		c-0.1-5.2-1.5-8.7-4.6-11.8c-3-3-7.2-4.7-11.9-4.7l-0.3,0c-4.6,0.1-8.6,1.8-11.6,5c-3,3.1-4.4,6.9-4.3,11.5c0.1,4.4,1.6,8,4.8,11.2
		c2.2,2.2,5.7,3.6,9.3,3.9C128.7,330.2,129.2,330.2,129.6,330.2z M160.9,343.6H160c-3.6,0-6.8-1.3-9.4-3.9c-0.1-0.1-0.2-0.2-0.3-0.3
		c-3.6,0.1-6.1,1-8.8,1.9c-3.3,1.1-6.7,2.3-12.3,2.3c-7.9,0-15.1-2.8-20.3-7.8c-6-5.8-9-13-9-21.3c0-8.3,3-15.5,9-21.3
		c5.9-5.9,13.2-8.8,21.4-8.8c8.3,0,15.5,3,21.5,8.8c6,5.9,9,13,9,21.3V343.6L160.9,343.6z"/>
	<path class="st0" d="M219.6,330.2l0.3,0c2.1,0,3.8-0.4,5.4-0.8c1.5-0.3,2.9-0.7,4.6-0.7l0.3,0c2.9,0,5.2,0.6,6.8,1.2l0-15
		c-0.1-5.2-1.5-8.7-4.6-11.8c-3-3-7.2-4.7-11.8-4.7l-0.3,0c-4.6,0.1-8.6,1.8-11.6,5c-3,3.1-4.4,6.9-4.3,11.5c0.1,4.4,1.6,8,4.8,11.2
		c2.2,2.2,5.7,3.6,9.3,3.9C218.7,330.2,219.2,330.2,219.6,330.2z M250.9,343.6H250c-3.6,0-6.8-1.3-9.4-3.9c-0.1-0.1-0.2-0.2-0.3-0.3
		c-3.6,0.1-6.1,1-8.8,1.9c-3.3,1.1-6.7,2.3-12.3,2.3c-7.9,0-15.1-2.8-20.3-7.8c-6-5.8-9-13-9-21.3c0-8.3,3-15.5,9-21.3
		c5.9-5.9,13.2-8.8,21.4-8.8c8.3,0,15.5,3,21.5,8.8c6,5.9,9,13,9,21.3V343.6L250.9,343.6z"/>
	<path class="st0" d="M493.3,338.4h0.6c0.7,0,1.3-0.2,1.3-0.8c0-0.5-0.4-0.9-1.2-0.9c-0.3,0-0.6,0-0.7,0.1V338.4z M493.3,341.6H492
		v-5.6c0.5-0.1,1.2-0.2,2.2-0.2c1.1,0,1.6,0.2,2,0.5c0.3,0.2,0.6,0.7,0.6,1.2c0,0.7-0.5,1.1-1.2,1.3v0.1c0.6,0.2,0.9,0.6,1,1.4
		c0.2,0.9,0.3,1.2,0.4,1.4h-1.4c-0.2-0.2-0.3-0.7-0.4-1.4c-0.1-0.6-0.4-0.9-1.2-0.9h-0.6V341.6z M494.2,334.1c-2.5,0-4.4,2-4.4,4.5
		c0,2.5,1.9,4.5,4.4,4.5c2.5,0,4.3-2,4.3-4.5C498.5,336.2,496.7,334.1,494.2,334.1L494.2,334.1z M494.2,333c3.3,0,5.8,2.5,5.8,5.7
		c0,3.2-2.5,5.7-5.8,5.7c-3.3,0-5.8-2.5-5.8-5.7C488.3,335.5,490.9,333,494.2,333L494.2,333L494.2,333z"/>
</g>
</svg>
