<?xml version="1.0" encoding="utf-8"?>
<!-- Generator: Adobe Illustrator 21.0.0, SVG Export Plug-In . SVG Version: 6.00 Build 0)  -->
<svg version="1.1" id="Layer_1" xmlns="http://www.w3.org/2000/svg" xmlns:xlink="http://www.w3.org/1999/xlink" x="0px" y="0px"
	 viewBox="0 0 600 600" style="enable-background:new 0 0 600 600;" xml:space="preserve">
<style type="text/css">
	.st0{fill:#1D1D1B;}
</style>
<g>
	<polygon class="st0" points="166.5,291.1 155.2,313.1 143.8,291.1 133.6,291.1 122.2,313.1 110.8,291.1 100,291.1 117.3,322.9 
		125.9,322.9 138.5,298.6 150.8,322.9 158.4,322.9 175.8,291.1 	"/>
	<circle class="st0" cx="197.3" cy="280.8" r="4"/>
	<circle class="st0" cx="212.4" cy="280.8" r="4"/>
	<path class="st0" d="M204.7,290.1c-14.9,0-27,7.4-27,16.6c0,9.1,12.1,16.6,27,16.6s27-7.4,27-16.6
		C231.7,297.5,219.6,290.1,204.7,290.1z M204.7,317.8c-9.5,0-17.2-5-17.2-11.1c0-6.1,7.7-11.1,17.2-11.1c9.5,0,17.2,5,17.2,11.1
		C221.9,312.8,214.2,317.8,204.7,317.8z"/>
	<polygon class="st0" points="249.3,316.9 249.3,290.5 239.3,290.5 239.3,322.9 245.1,322.9 249.3,322.9 281.9,322.9 281.9,316.9 	
		"/>
	<polygon class="st0" points="300.2,316.9 300.2,290.5 290.3,290.5 290.3,322.9 296.1,322.9 300.2,322.9 332.9,322.9 332.9,316.9 	
		"/>
	<polygon class="st0" points="341.3,290.5 341.3,322.9 350.5,322.9 350.5,301.2 381.9,322.9 390.3,322.9 390.3,290.7 381.3,290.7 
		381.3,311.9 351.3,290.5 	"/>
	<polygon class="st0" points="411.1,317 411.1,308.7 433.6,308.7 433.6,303.5 411.1,303.5 411.1,296.4 444.5,296.4 444.5,290.5 
		400.8,290.5 400.8,322.9 444.9,322.9 444.9,317 	"/>
	<path class="st0" d="M486.2,309.4c5.1,0,12.6-3.1,12.6-10c0-3.4-3.4-8.5-18.4-8.5c-6.6,0-27.8,0-27.8,0v32h10.3v-13.5h12.8
		l12.9,13.5H500L486.2,309.4z M463.1,305.2v-8.9h18.6c2.4,0,7.4,0.5,7.4,4.4c0,3.6-4.9,4.4-7.4,4.4H463.1z"/>
</g>
</svg>
