<?xml version="1.0" encoding="utf-8"?>
<!-- Generator: Adobe Illustrator 21.0.0, SVG Export Plug-In . SVG Version: 6.00 Build 0)  -->
<svg version="1.1" id="Layer_1" xmlns="http://www.w3.org/2000/svg" xmlns:xlink="http://www.w3.org/1999/xlink" x="0px" y="0px"
	 viewBox="0 0 600 600" style="enable-background:new 0 0 600 600;" xml:space="preserve">
<style type="text/css">
	.st0{fill:#002856;}
	.st1{fill:#FFFFFF;}
	.st2{fill:#E9004C;}
</style>
<rect class="st0" width="600" height="600"/>
<g id="marca">
	<path class="st1" d="M449,405.4c-0.9-1.1-3.3-3.6-4.7-2.7c-1.1,0.7-8.9,7.3-19.8,7.3c-9.4,0-13.9-3.2-19.1-6.7
		c-5.6-3.9-12-8.3-24.2-8.3c-12.3,0-18.6,4.4-24.2,8.3c-5.2,3.6-9.7,6.7-19.1,6.7s-13.9-3.2-19.1-6.7c-5.6-3.9-12-8.3-24.2-8.3
		c-12.3,0-18.6,4.4-24.2,8.3c-5.2,3.6-9.6,6.7-19.1,6.7c-9.4,0-13.9-3.2-19.1-6.7c-5.6-3.9-12-8.3-24.2-8.3
		c-12.3,0-18.6,4.4-24.2,8.3c-5.2,3.6-9.6,6.7-19.1,6.7c-9.7,0-19.3-7.1-20.2-7.5c-1.6-1-3.3,1.1-4,2.2c-0.7,1.1-2.4,4.4-1,5.4
		c1.2,0.9,12.2,9,25.1,9c12.3,0,18.6-4.4,24.2-8.3c5.2-3.6,9.6-6.7,19.1-6.7c9.4,0,13.9,3,19.1,6.7c5.6,3.9,12,8.3,24.2,8.3
		c12.3,0,18.6-4.4,24.2-8.3c5.2-3.6,9.6-6.7,19.1-6.7c9.4,0,13.9,3,19.1,6.7c5.6,3.9,12,8.3,24.2,8.3c12.3,0,18.6-4.4,24.2-8.3
		c5.2-3.6,9.7-6.7,19.1-6.7s13.9,3,19.1,6.7c5.6,3.9,12,8.3,24.2,8.3c15.9,0,24.3-8.4,25.3-9.2C451.1,408.7,449.8,406.5,449,405.4z"
		/>
	<g>
		<g>
			<path class="st2" d="M241,189.2c-12,0-21.9,3.5-21.9,15v120l0,0l0,0c0,1.7,1.3,2.9,2.9,2.9h7.2c1.6,0,2.9-1.3,2.9-2.9l0,0v-36.7
				h8.9l0,0c12.2,0,21.8-4.1,21.8-15.6v-67.8C262.8,192.8,253,189.2,241,189.2z M249.8,267.6c0,6.7-4.4,6.7-8.9,6.7l0,0h-8.8v-65.9
				c0-4.7,4.3-6.1,8.8-6.1c4.6,0,8.9,1.3,8.9,6.1V267.6z"/>
		</g>
		<g>
			<path class="st2" d="M453.3,285.8L453.3,285.8h-4.5v-76.8c0-1.7-1.3-3-2.9-3h-7.1c-1.6,0-2.9,1.3-2.9,3v76.8h-21.4v-76.8l0,0l0,0
				c0-1.7-1.3-3-2.9-3h-7.2c-1.6,0-2.9,1.3-2.9,3l0,0v76.8h-4.1c-1.7,0-3,1.3-3,3v7.2c0,1.6,1.3,2.9,3,2.9h4.1v40.5v1.9
				c0,1.7,1.3,3,2.9,3h7.2c1.6,0,2.9-1.3,2.9-3l0,0v-42.6h21.4v42.6c0,1.7,1.3,2.9,2.9,2.9h7.1c1.6,0,2.9-1.3,2.9-2.9V299h4.5
				c1.7,0,3-1.3,3-2.9v-7.2C456.2,287.2,454.9,285.8,453.3,285.8z"/>
		</g>
		<g>
			<path class="st2" d="M520.2,319.6L520.2,319.6h-4.5v-64.8c0-11.3-9.7-15-21.8-15s-21.9,3.5-21.9,15v64.8h-4.1c-1.7,0-3,1.3-3,3
				v7.2c0,1.6,1.3,3,3,3h4V375c0,1.7,1.3,3,2.9,3h7.2c1.6,0,2.9-1.3,2.9-3v-42.1h17.6V375c0,1.7,1.3,3,2.9,3h7.1
				c1.6,0,2.9-1.3,2.9-3v-42.1h4.5c1.7,0,3-1.3,3-3v-7.2C523.1,321,521.8,319.6,520.2,319.6z M502.7,319.6H485v-60.5
				c0-4.7,3.8-6.2,8.8-6.2s8.9,1.5,8.9,6.2V319.6z"/>
		</g>
		<g>
			<path class="st2" d="M196.1,285.8L196.1,285.8h-4.5V221c0-11.3-9.7-15-21.8-15c-12,0-21.9,3.5-21.9,15v64.8h-4c-1.7,0-3,1.3-3,3
				v7.2c0,1.7,1.3,3,3,3h4v42.1c0,1.6,1.3,3,2.9,3h7.2c1.6,0,2.9-1.3,2.9-3v-42.1h17.6v42.1c0,1.6,1.3,3,2.9,3h7.1
				c1.6,0,2.9-1.3,2.9-3v-42.1h4.5c1.7,0,3-1.3,3-3v-7.2C199,287.2,197.7,285.8,196.1,285.8z M178.6,285.8h-17.6v-60.5
				c0-4.7,3.8-6.2,8.8-6.2c5,0,8.9,1.5,8.9,6.2V285.8z"/>
		</g>
		<g>
			<path class="st2" d="M120.7,242.9c0-1.6-1.3-2.9-3-2.9h-7.1c-1.6,0-2.9,1.3-2.9,2.9v115.5c0,4.7-3.4,6.4-8.9,6.4
				c-5.4,0-8.8-1.7-8.8-6.4v-22.5c0-1.6-1.3-2.9-2.9-2.9h-7.2c-1.6,0-2.9,1.3-2.9,2.9l0,0l0,0V363c0,11.3,9.9,15,21.9,15
				s21.9-3.5,21.9-15V242.9H120.7z"/>
		</g>
		<g>
			<path class="st2" d="M298,181H291c-1.6,0-2.9,1.3-2.9,3v1.6v130.3c0,1.7,1.3,2.9,2.9,2.9h7.1c1.6,0,2.9-1.3,2.9-2.9v-132l0,0
				C301,182.3,299.8,181,298,181z"/>
		</g>
		<g>
			<path class="st2" d="M374.3,189.1h-7.1c-1.6,0-2.9,1.3-2.9,3l1.2,103.9l-26.2-103.9c-0.7-2.4-1.8-3-4.3-3h-7.8
				c-1.6,0-2.9,1.3-2.9,3V324l0,0c0,1.7,1.3,3,2.9,3h7.2c1.6,0,2.9-1.3,2.9-3l-1.2-94.4l25.2,94.4c0.7,2.4,1.7,3,4.1,3h8.8
				c1.6,0,2.9-1.3,2.9-3V192.2C377.2,190.4,376,189.1,374.3,189.1z"/>
		</g>
	</g>
	<g>
		<path class="st1" d="M230.4,349.6c-1.1-0.6-2.4-0.9-4.1-0.9h-5.5c-0.9,0-1.5,0.7-1.5,1.5v25.9c0,0.4,0.1,0.7,0.5,1.1
			c0.2,0.2,0.6,0.5,1.1,0.5h5.5c1.1,0,2.1-0.1,3-0.5c0.9-0.4,1.7-0.7,2.3-1.3c1.3-1.2,2.1-3,2.1-5.2v-13.1c0-1.7-0.1-4-1.2-5.7
			C232.1,350.8,231.3,350.1,230.4,349.6z M229.2,369.5c0,1.5-0.2,2.4-0.9,3.2s-1.5,1.1-2.8,1.1c-0.7,0-1.1-0.1-1.3-0.5
			c-0.2-0.2-0.4-0.7-0.4-1.3v-17.6c0-0.5,0.1-1,0.5-1.2c0.4-0.4,0.7-0.5,1.3-0.5c2.3,0,3.6,1.1,3.6,3.2v13.7H229.2z"/>
		<path class="st1" d="M252.4,373.5h-5.4c-1,0-1.7-0.7-1.7-1.7v-5.4c0-1,0.7-1.7,1.7-1.7h2.9c0.9,0,1.5-0.7,1.5-1.5v-1.2
			c0-0.9-0.7-1.5-1.5-1.5h-2.9c-0.5,0-0.9-0.1-1.2-0.5s-0.5-0.7-0.5-1.2v-4.3c0-1,0.7-1.7,1.7-1.7h4.9c0.4,0,0.7-0.1,1.1-0.5
			c0.2-0.2,0.5-0.6,0.5-1.1v-1.1c0-0.4-0.1-0.7-0.5-1.1c-0.2-0.2-0.6-0.5-1.1-0.5h-9.6c-0.9,0-1.5,0.7-1.5,1.5v25.9
			c0,0.4,0.1,0.7,0.5,1.1c0.2,0.2,0.6,0.5,1.1,0.5h10.2c0.4,0,0.7-0.1,1.1-0.5c0.2-0.2,0.5-0.6,0.5-1.1V375
			C253.9,374.1,253.2,373.5,252.4,373.5z"/>
		<path class="st1" d="M271.9,373.5h-4.4c-1,0-1.7-0.7-1.7-1.7v-21.5c0-0.9-0.7-1.5-1.5-1.5h-1.6c-0.9,0-1.5,0.7-1.5,1.5v25.9
			c0,0.4,0.1,0.7,0.5,1.1c0.2,0.2,0.6,0.5,1.1,0.5h9.1c0.4,0,0.7-0.1,1.1-0.5c0.2-0.2,0.5-0.6,0.5-1.1v-1.1
			C273.4,374.1,272.7,373.5,271.9,373.5z"/>
		<path class="st1" d="M283,348.7h-1.6c-0.4,0-0.7,0.1-1.1,0.5c-0.2,0.2-0.5,0.6-0.5,1.1v25.9c0,0.9,0.7,1.5,1.5,1.5h1.6
			c0.4,0,0.7-0.1,1.1-0.5c0.2-0.2,0.5-0.6,0.5-1.1v-25.9C284.5,349.5,283.8,348.7,283,348.7z"/>
		<path class="st1" d="M307.2,348.7h-1.5c-0.9,0-1.6,0.7-1.7,1.5l-2.9,17c-0.1,0.5-0.1,0.9-0.2,1.1c-0.1,0.5-0.1,0.6-0.2,0.6h-0.1
			v-0.1c0,0-0.1-0.7-0.2-1.6l-2.9-17c-0.1-0.4-0.2-0.7-0.6-1.1c-0.4-0.2-0.7-0.5-1.1-0.5h-1.7c-0.4,0-0.7,0.1-1,0.4
			c-0.2,0.2-0.2,0.6-0.2,1l5.2,25.9c0.1,0.4,0.4,0.7,0.6,1.1c0.4,0.2,0.7,0.5,1.2,0.5h1.6c0.9,0,1.6-0.6,1.8-1.5l5.2-25.9
			c0.1-0.4,0-0.7-0.2-1C307.9,349,307.7,348.7,307.2,348.7z"/>
		<path class="st1" d="M326.9,373.5h-5.4c-1,0-1.7-0.7-1.7-1.7v-5.4c0-1,0.7-1.7,1.7-1.7h2.9c0.9,0,1.5-0.7,1.5-1.5v-1.2
			c0-0.9-0.6-1.5-1.5-1.5h-2.9c-1,0-1.7-0.7-1.7-1.7v-4.3c0-1,0.7-1.7,1.7-1.7h4.9c0.9,0,1.5-0.6,1.5-1.5v-1.1
			c0-0.9-0.6-1.5-1.5-1.5h-9.6c-0.9,0-1.5,0.7-1.5,1.5v25.9c0,0.9,0.7,1.5,1.5,1.5H327c0.4,0,0.7-0.1,1.1-0.5
			c0.2-0.2,0.5-0.6,0.5-1.1v-1.1C328.3,374.1,327.7,373.5,326.9,373.5z"/>
		<path class="st1" d="M346,365L346,365v-0.1c1.8-1.3,2.8-3.4,2.8-6v-1.6c0-1.7-0.1-4-1.2-5.7c-0.5-0.9-1.3-1.6-2.2-2.1
			c-1.1-0.6-2.4-0.9-4.1-0.9h-5.5l0,0c-0.9,0-1.5,0.7-1.5,1.5v25.9c0,0.9,0.7,1.5,1.5,1.5h1.6c0.4,0,0.7-0.1,1.1-0.5
			c0.2-0.2,0.5-0.6,0.5-1.1v-9.6v-0.1h0.1c0.9,0,2.6,0,2.6,0h0.1v0.1c0.9,2.3,3,9.6,3,9.7c0.2,0.9,1.1,1.5,1.9,1.5h1.7
			c0.4,0,0.7-0.1,0.9-0.4c0.2-0.2,0.2-0.6,0.1-1L346,365z M344.3,358c0,1.5-0.2,2.4-0.7,3.2c-0.6,0.7-1.5,1.1-2.8,1.1
			c-1.1,0-1.7-0.4-1.7-1.5l0,0l0,0v-6.6l0,0l0,0c0-0.5,0.2-0.9,0.5-1.1c0.2-0.2,0.7-0.4,1.2-0.4c2.3,0,3.6,1.1,3.6,3.2v2.1H344.3z"
			/>
		<path class="st1" d="M369.8,349.2c-0.2-0.2-0.5-0.4-0.9-0.4h-1.7c-0.9,0-1.7,0.7-1.9,1.5l-2.3,8c-0.2,0.9-0.5,1.6-0.5,1.6
			l-0.1,0.4l-0.1-0.4c0,0-0.2-0.7-0.5-1.6l-2.4-8c-0.2-0.7-1.1-1.5-1.9-1.5h-1.7c-0.4,0-0.7,0.1-0.9,0.4c-0.2,0.2-0.2,0.6-0.1,1
			l4.7,14c0.2,0.9,0.5,2.3,0.5,3.2v8.9c0,0.9,0.6,1.5,1.5,1.5h1.6c0.4,0,0.7-0.1,1.1-0.5c0.2-0.2,0.5-0.6,0.5-1.1v-8.9
			c0-0.9,0.2-2.3,0.5-3.2l4.7-14C369.9,349.8,369.9,349.5,369.8,349.2z"/>
	</g>
</g>
</svg>
