<?xml version="1.0" encoding="utf-8"?>
<!-- Generator: Adobe Illustrator 21.0.0, SVG Export Plug-In . SVG Version: 6.00 Build 0)  -->
<svg version="1.1" xmlns="http://www.w3.org/2000/svg" xmlns:xlink="http://www.w3.org/1999/xlink" x="0px" y="0px"
	 viewBox="0 0 1848.9 137.8" style="enable-background:new 0 0 1848.9 137.8;" xml:space="preserve">
<style type="text/css">
	.st0{fill:#6D6E70;}
	.st1{fill:none;stroke:#6D6E70;stroke-width:1.8113;stroke-miterlimit:22.9256;}
	.st2{fill-rule:evenodd;clip-rule:evenodd;fill:#6D6E70;}
	.st3{fill:#DBDCDD;}
	.st4{fill:none;stroke:#DBDCDD;stroke-width:1.8113;stroke-miterlimit:22.9256;}
	.st5{fill-rule:evenodd;clip-rule:evenodd;fill:#DBDCDD;}
	.st6{fill-rule:evenodd;clip-rule:evenodd;fill:#231C1E;}
	.st7{fill-rule:evenodd;clip-rule:evenodd;fill:#231F20;}
	.st8{fill-rule:evenodd;clip-rule:evenodd;fill:#FFFFFF;}
	.st9{opacity:0.25;clip-path:url(#SVGID_2_);}
	.st10{fill-rule:evenodd;clip-rule:evenodd;fill:url(#SVGID_3_);}
	.st11{fill-rule:evenodd;clip-rule:evenodd;fill:url(#SVGID_4_);}
	.st12{fill-rule:evenodd;clip-rule:evenodd;fill:url(#SVGID_5_);}
	.st13{fill-rule:evenodd;clip-rule:evenodd;fill:url(#SVGID_6_);}
	.st14{fill-rule:evenodd;clip-rule:evenodd;fill:url(#SVGID_7_);}
	.st15{fill-rule:evenodd;clip-rule:evenodd;fill:url(#SVGID_8_);}
	.st16{fill-rule:evenodd;clip-rule:evenodd;fill:url(#SVGID_9_);}
	.st17{fill-rule:evenodd;clip-rule:evenodd;fill:url(#SVGID_10_);}
	.st18{fill-rule:evenodd;clip-rule:evenodd;fill:url(#SVGID_11_);}
	.st19{fill-rule:evenodd;clip-rule:evenodd;fill:url(#SVGID_12_);}
	.st20{fill-rule:evenodd;clip-rule:evenodd;fill:url(#SVGID_13_);}
	.st21{fill-rule:evenodd;clip-rule:evenodd;fill:url(#SVGID_14_);}
	.st22{fill-rule:evenodd;clip-rule:evenodd;fill:url(#SVGID_15_);}
	.st23{fill-rule:evenodd;clip-rule:evenodd;fill:url(#SVGID_16_);}
	.st24{fill-rule:evenodd;clip-rule:evenodd;fill:url(#SVGID_17_);}
	.st25{fill-rule:evenodd;clip-rule:evenodd;fill:url(#SVGID_18_);}
	.st26{fill-rule:evenodd;clip-rule:evenodd;fill:url(#SVGID_19_);}
	.st27{fill-rule:evenodd;clip-rule:evenodd;fill:url(#SVGID_20_);}
	.st28{fill-rule:evenodd;clip-rule:evenodd;fill:url(#SVGID_21_);}
	.st29{fill-rule:evenodd;clip-rule:evenodd;fill:url(#SVGID_22_);}
	.st30{fill-rule:evenodd;clip-rule:evenodd;fill:url(#SVGID_23_);}
	.st31{fill-rule:evenodd;clip-rule:evenodd;fill:url(#SVGID_24_);}
	.st32{fill-rule:evenodd;clip-rule:evenodd;fill:url(#SVGID_25_);}
	.st33{fill-rule:evenodd;clip-rule:evenodd;fill:url(#SVGID_26_);}
	.st34{fill-rule:evenodd;clip-rule:evenodd;fill:url(#SVGID_27_);}
	.st35{fill-rule:evenodd;clip-rule:evenodd;fill:url(#SVGID_28_);}
	.st36{fill-rule:evenodd;clip-rule:evenodd;fill:url(#SVGID_29_);}
	.st37{fill-rule:evenodd;clip-rule:evenodd;fill:url(#SVGID_30_);}
	.st38{fill-rule:evenodd;clip-rule:evenodd;fill:url(#SVGID_31_);}
	.st39{fill-rule:evenodd;clip-rule:evenodd;fill:url(#SVGID_32_);}
	.st40{fill-rule:evenodd;clip-rule:evenodd;fill:url(#SVGID_33_);}
	.st41{fill-rule:evenodd;clip-rule:evenodd;fill:url(#SVGID_34_);}
	.st42{fill-rule:evenodd;clip-rule:evenodd;fill:url(#SVGID_35_);}
	.st43{fill-rule:evenodd;clip-rule:evenodd;fill:url(#SVGID_36_);}
	.st44{fill-rule:evenodd;clip-rule:evenodd;fill:url(#SVGID_37_);}
	.st45{fill-rule:evenodd;clip-rule:evenodd;fill:url(#SVGID_38_);}
	.st46{fill-rule:evenodd;clip-rule:evenodd;fill:url(#SVGID_39_);}
	.st47{fill-rule:evenodd;clip-rule:evenodd;fill:url(#SVGID_40_);}
	.st48{fill-rule:evenodd;clip-rule:evenodd;fill:url(#SVGID_41_);}
	.st49{fill-rule:evenodd;clip-rule:evenodd;fill:url(#SVGID_42_);}
	.st50{fill-rule:evenodd;clip-rule:evenodd;fill:url(#SVGID_43_);}
	.st51{fill-rule:evenodd;clip-rule:evenodd;fill:url(#SVGID_44_);}
	.st52{fill-rule:evenodd;clip-rule:evenodd;fill:url(#SVGID_45_);}
	.st53{fill-rule:evenodd;clip-rule:evenodd;fill:url(#SVGID_46_);}
	.st54{fill-rule:evenodd;clip-rule:evenodd;fill:url(#SVGID_47_);}
	.st55{fill-rule:evenodd;clip-rule:evenodd;fill:url(#SVGID_48_);}
	.st56{fill-rule:evenodd;clip-rule:evenodd;fill:url(#SVGID_49_);}
	.st57{fill-rule:evenodd;clip-rule:evenodd;fill:url(#SVGID_50_);}
	.st58{fill-rule:evenodd;clip-rule:evenodd;fill:url(#SVGID_51_);}
	.st59{fill-rule:evenodd;clip-rule:evenodd;fill:url(#SVGID_52_);}
	.st60{fill-rule:evenodd;clip-rule:evenodd;fill:url(#SVGID_53_);}
	.st61{fill-rule:evenodd;clip-rule:evenodd;fill:url(#SVGID_54_);}
	.st62{fill-rule:evenodd;clip-rule:evenodd;fill:url(#SVGID_55_);}
	.st63{fill-rule:evenodd;clip-rule:evenodd;fill:url(#SVGID_56_);}
	.st64{fill-rule:evenodd;clip-rule:evenodd;fill:url(#SVGID_57_);}
	.st65{fill-rule:evenodd;clip-rule:evenodd;fill:url(#SVGID_58_);}
	.st66{fill-rule:evenodd;clip-rule:evenodd;fill:url(#SVGID_59_);}
	.st67{fill-rule:evenodd;clip-rule:evenodd;fill:url(#SVGID_60_);}
	.st68{fill-rule:evenodd;clip-rule:evenodd;fill:url(#SVGID_61_);}
	.st69{fill-rule:evenodd;clip-rule:evenodd;fill:url(#SVGID_62_);}
	.st70{fill-rule:evenodd;clip-rule:evenodd;fill:url(#SVGID_63_);}
	.st71{opacity:0.25;}
	.st72{fill-rule:evenodd;clip-rule:evenodd;fill:url(#SVGID_64_);}
	.st73{fill-rule:evenodd;clip-rule:evenodd;fill:url(#SVGID_65_);}
	.st74{fill-rule:evenodd;clip-rule:evenodd;fill:url(#SVGID_66_);}
	.st75{fill-rule:evenodd;clip-rule:evenodd;fill:url(#SVGID_67_);}
	.st76{fill-rule:evenodd;clip-rule:evenodd;fill:url(#SVGID_68_);}
	.st77{fill-rule:evenodd;clip-rule:evenodd;fill:url(#SVGID_69_);}
	.st78{fill-rule:evenodd;clip-rule:evenodd;fill:url(#SVGID_70_);}
	.st79{fill-rule:evenodd;clip-rule:evenodd;fill:url(#SVGID_71_);}
	.st80{fill-rule:evenodd;clip-rule:evenodd;fill:url(#SVGID_72_);}
	.st81{fill-rule:evenodd;clip-rule:evenodd;fill:url(#SVGID_73_);}
	.st82{fill-rule:evenodd;clip-rule:evenodd;fill:url(#SVGID_74_);}
	.st83{fill-rule:evenodd;clip-rule:evenodd;fill:url(#SVGID_75_);}
	.st84{fill-rule:evenodd;clip-rule:evenodd;fill:url(#SVGID_76_);}
	.st85{fill-rule:evenodd;clip-rule:evenodd;fill:url(#SVGID_77_);}
	.st86{fill-rule:evenodd;clip-rule:evenodd;fill:url(#SVGID_78_);}
	.st87{fill-rule:evenodd;clip-rule:evenodd;fill:url(#SVGID_79_);}
	.st88{fill-rule:evenodd;clip-rule:evenodd;fill:url(#SVGID_80_);}
	.st89{fill-rule:evenodd;clip-rule:evenodd;fill:url(#SVGID_81_);}
	.st90{fill-rule:evenodd;clip-rule:evenodd;fill:url(#SVGID_82_);}
	.st91{fill-rule:evenodd;clip-rule:evenodd;fill:url(#SVGID_83_);}
	.st92{fill-rule:evenodd;clip-rule:evenodd;fill:url(#SVGID_84_);}
	.st93{fill-rule:evenodd;clip-rule:evenodd;fill:url(#SVGID_85_);}
	.st94{fill-rule:evenodd;clip-rule:evenodd;fill:url(#SVGID_86_);}
	.st95{fill-rule:evenodd;clip-rule:evenodd;fill:url(#SVGID_87_);}
	.st96{fill-rule:evenodd;clip-rule:evenodd;fill:url(#SVGID_88_);}
	.st97{fill-rule:evenodd;clip-rule:evenodd;fill:url(#SVGID_89_);}
	.st98{fill-rule:evenodd;clip-rule:evenodd;fill:url(#SVGID_90_);}
	.st99{fill-rule:evenodd;clip-rule:evenodd;fill:url(#SVGID_91_);}
	.st100{fill-rule:evenodd;clip-rule:evenodd;fill:url(#SVGID_92_);}
	.st101{fill-rule:evenodd;clip-rule:evenodd;fill:url(#SVGID_93_);}
	.st102{fill-rule:evenodd;clip-rule:evenodd;fill:url(#SVGID_94_);}
	.st103{fill-rule:evenodd;clip-rule:evenodd;fill:url(#SVGID_95_);}
	.st104{fill-rule:evenodd;clip-rule:evenodd;fill:url(#SVGID_96_);}
	.st105{fill-rule:evenodd;clip-rule:evenodd;fill:url(#SVGID_97_);}
	.st106{fill-rule:evenodd;clip-rule:evenodd;fill:url(#SVGID_98_);}
	.st107{fill-rule:evenodd;clip-rule:evenodd;fill:url(#SVGID_99_);}
	.st108{fill-rule:evenodd;clip-rule:evenodd;fill:url(#SVGID_100_);}
	.st109{fill-rule:evenodd;clip-rule:evenodd;fill:url(#SVGID_101_);}
	.st110{fill-rule:evenodd;clip-rule:evenodd;fill:url(#SVGID_102_);}
	.st111{fill-rule:evenodd;clip-rule:evenodd;fill:url(#SVGID_103_);}
	.st112{fill-rule:evenodd;clip-rule:evenodd;fill:url(#SVGID_104_);}
	.st113{fill-rule:evenodd;clip-rule:evenodd;fill:url(#SVGID_105_);}
	.st114{fill-rule:evenodd;clip-rule:evenodd;fill:url(#SVGID_106_);}
	.st115{fill-rule:evenodd;clip-rule:evenodd;fill:url(#SVGID_107_);}
	.st116{fill-rule:evenodd;clip-rule:evenodd;fill:url(#SVGID_108_);}
	.st117{fill-rule:evenodd;clip-rule:evenodd;fill:url(#SVGID_109_);}
	.st118{fill-rule:evenodd;clip-rule:evenodd;fill:url(#SVGID_110_);}
	.st119{fill-rule:evenodd;clip-rule:evenodd;fill:url(#SVGID_111_);}
	.st120{fill-rule:evenodd;clip-rule:evenodd;fill:url(#SVGID_112_);}
	.st121{fill-rule:evenodd;clip-rule:evenodd;fill:url(#SVGID_113_);}
	.st122{fill-rule:evenodd;clip-rule:evenodd;fill:url(#SVGID_114_);}
	.st123{fill-rule:evenodd;clip-rule:evenodd;fill:url(#SVGID_115_);}
	.st124{fill-rule:evenodd;clip-rule:evenodd;fill:url(#SVGID_116_);}
	.st125{fill-rule:evenodd;clip-rule:evenodd;fill:url(#SVGID_117_);}
	.st126{fill-rule:evenodd;clip-rule:evenodd;fill:url(#SVGID_118_);}
	.st127{fill-rule:evenodd;clip-rule:evenodd;fill:url(#SVGID_119_);}
	.st128{fill-rule:evenodd;clip-rule:evenodd;fill:url(#SVGID_120_);}
	.st129{fill-rule:evenodd;clip-rule:evenodd;fill:url(#SVGID_121_);}
	.st130{fill-rule:evenodd;clip-rule:evenodd;fill:url(#SVGID_122_);}
	.st131{fill-rule:evenodd;clip-rule:evenodd;fill:url(#SVGID_123_);}
	.st132{fill-rule:evenodd;clip-rule:evenodd;fill:url(#SVGID_124_);}
	.st133{fill:none;stroke:#231F20;stroke-width:2;stroke-miterlimit:22.9256;}
	.st134{fill:#231F20;}
	.st135{fill-rule:evenodd;clip-rule:evenodd;fill:#00A6E8;}
	.st136{fill-rule:evenodd;clip-rule:evenodd;fill:#FFF100;}
	.st137{fill-rule:evenodd;clip-rule:evenodd;fill:#EB008B;}
	.st138{fill:url(#SVGID_125_);}
	.st139{opacity:0.25;clip-path:url(#SVGID_127_);}
	.st140{fill-rule:evenodd;clip-rule:evenodd;fill:url(#SVGID_128_);}
	.st141{fill-rule:evenodd;clip-rule:evenodd;fill:url(#SVGID_129_);}
	.st142{fill-rule:evenodd;clip-rule:evenodd;fill:url(#SVGID_130_);}
	.st143{fill-rule:evenodd;clip-rule:evenodd;fill:url(#SVGID_131_);}
	.st144{fill-rule:evenodd;clip-rule:evenodd;fill:url(#SVGID_132_);}
	.st145{fill-rule:evenodd;clip-rule:evenodd;fill:url(#SVGID_133_);}
	.st146{fill-rule:evenodd;clip-rule:evenodd;fill:url(#SVGID_134_);}
	.st147{fill-rule:evenodd;clip-rule:evenodd;fill:url(#SVGID_135_);}
	.st148{fill-rule:evenodd;clip-rule:evenodd;fill:url(#SVGID_136_);}
	.st149{fill-rule:evenodd;clip-rule:evenodd;fill:url(#SVGID_137_);}
	.st150{fill-rule:evenodd;clip-rule:evenodd;fill:url(#SVGID_138_);}
	.st151{fill-rule:evenodd;clip-rule:evenodd;fill:url(#SVGID_139_);}
	.st152{fill-rule:evenodd;clip-rule:evenodd;fill:url(#SVGID_140_);}
	.st153{fill-rule:evenodd;clip-rule:evenodd;fill:url(#SVGID_141_);}
	.st154{fill-rule:evenodd;clip-rule:evenodd;fill:url(#SVGID_142_);}
	.st155{fill-rule:evenodd;clip-rule:evenodd;fill:url(#SVGID_143_);}
	.st156{fill-rule:evenodd;clip-rule:evenodd;fill:url(#SVGID_144_);}
	.st157{fill-rule:evenodd;clip-rule:evenodd;fill:url(#SVGID_145_);}
	.st158{fill-rule:evenodd;clip-rule:evenodd;fill:url(#SVGID_146_);}
	.st159{fill-rule:evenodd;clip-rule:evenodd;fill:url(#SVGID_147_);}
	.st160{fill-rule:evenodd;clip-rule:evenodd;fill:url(#SVGID_148_);}
	.st161{fill-rule:evenodd;clip-rule:evenodd;fill:url(#SVGID_149_);}
	.st162{fill-rule:evenodd;clip-rule:evenodd;fill:url(#SVGID_150_);}
	.st163{fill-rule:evenodd;clip-rule:evenodd;fill:url(#SVGID_151_);}
	.st164{fill-rule:evenodd;clip-rule:evenodd;fill:url(#SVGID_152_);}
	.st165{fill-rule:evenodd;clip-rule:evenodd;fill:url(#SVGID_153_);}
	.st166{fill-rule:evenodd;clip-rule:evenodd;fill:url(#SVGID_154_);}
	.st167{fill-rule:evenodd;clip-rule:evenodd;fill:url(#SVGID_155_);}
	.st168{fill-rule:evenodd;clip-rule:evenodd;fill:url(#SVGID_156_);}
	.st169{fill-rule:evenodd;clip-rule:evenodd;fill:url(#SVGID_157_);}
	.st170{fill-rule:evenodd;clip-rule:evenodd;fill:url(#SVGID_158_);}
	.st171{fill-rule:evenodd;clip-rule:evenodd;fill:url(#SVGID_159_);}
	.st172{fill-rule:evenodd;clip-rule:evenodd;fill:url(#SVGID_160_);}
	.st173{fill-rule:evenodd;clip-rule:evenodd;fill:url(#SVGID_161_);}
	.st174{fill-rule:evenodd;clip-rule:evenodd;fill:url(#SVGID_162_);}
	.st175{fill-rule:evenodd;clip-rule:evenodd;fill:url(#SVGID_163_);}
	.st176{fill-rule:evenodd;clip-rule:evenodd;fill:url(#SVGID_164_);}
	.st177{fill-rule:evenodd;clip-rule:evenodd;fill:url(#SVGID_165_);}
	.st178{fill-rule:evenodd;clip-rule:evenodd;fill:url(#SVGID_166_);}
	.st179{fill-rule:evenodd;clip-rule:evenodd;fill:url(#SVGID_167_);}
	.st180{fill-rule:evenodd;clip-rule:evenodd;fill:url(#SVGID_168_);}
	.st181{fill-rule:evenodd;clip-rule:evenodd;fill:url(#SVGID_169_);}
	.st182{fill-rule:evenodd;clip-rule:evenodd;fill:url(#SVGID_170_);}
	.st183{fill-rule:evenodd;clip-rule:evenodd;fill:url(#SVGID_171_);}
	.st184{fill-rule:evenodd;clip-rule:evenodd;fill:url(#SVGID_172_);}
	.st185{fill-rule:evenodd;clip-rule:evenodd;fill:url(#SVGID_173_);}
	.st186{fill-rule:evenodd;clip-rule:evenodd;fill:url(#SVGID_174_);}
	.st187{fill-rule:evenodd;clip-rule:evenodd;fill:url(#SVGID_175_);}
	.st188{fill-rule:evenodd;clip-rule:evenodd;fill:url(#SVGID_176_);}
	.st189{fill-rule:evenodd;clip-rule:evenodd;fill:url(#SVGID_177_);}
	.st190{fill-rule:evenodd;clip-rule:evenodd;fill:url(#SVGID_178_);}
	.st191{fill-rule:evenodd;clip-rule:evenodd;fill:url(#SVGID_179_);}
	.st192{fill-rule:evenodd;clip-rule:evenodd;fill:url(#SVGID_180_);}
	.st193{fill-rule:evenodd;clip-rule:evenodd;fill:url(#SVGID_181_);}
	.st194{fill-rule:evenodd;clip-rule:evenodd;fill:url(#SVGID_182_);}
	.st195{fill-rule:evenodd;clip-rule:evenodd;fill:url(#SVGID_183_);}
	.st196{fill-rule:evenodd;clip-rule:evenodd;fill:url(#SVGID_184_);}
	.st197{fill-rule:evenodd;clip-rule:evenodd;fill:url(#SVGID_185_);}
	.st198{fill-rule:evenodd;clip-rule:evenodd;fill:url(#SVGID_186_);}
	.st199{fill-rule:evenodd;clip-rule:evenodd;fill:url(#SVGID_187_);}
	.st200{fill-rule:evenodd;clip-rule:evenodd;fill:url(#SVGID_188_);}
	.st201{fill-rule:evenodd;clip-rule:evenodd;fill:url(#SVGID_189_);}
	.st202{fill-rule:evenodd;clip-rule:evenodd;fill:url(#SVGID_190_);}
	.st203{fill-rule:evenodd;clip-rule:evenodd;fill:url(#SVGID_191_);}
	.st204{fill-rule:evenodd;clip-rule:evenodd;fill:url(#SVGID_192_);}
	.st205{fill-rule:evenodd;clip-rule:evenodd;fill:url(#SVGID_193_);}
	.st206{fill-rule:evenodd;clip-rule:evenodd;fill:url(#SVGID_194_);}
	.st207{fill-rule:evenodd;clip-rule:evenodd;fill:url(#SVGID_195_);}
	.st208{fill-rule:evenodd;clip-rule:evenodd;fill:url(#SVGID_196_);}
	.st209{fill-rule:evenodd;clip-rule:evenodd;fill:url(#SVGID_197_);}
	.st210{fill-rule:evenodd;clip-rule:evenodd;fill:url(#SVGID_198_);}
	.st211{fill-rule:evenodd;clip-rule:evenodd;fill:url(#SVGID_199_);}
	.st212{fill-rule:evenodd;clip-rule:evenodd;fill:url(#SVGID_200_);}
	.st213{fill-rule:evenodd;clip-rule:evenodd;fill:url(#SVGID_201_);}
	.st214{fill-rule:evenodd;clip-rule:evenodd;fill:url(#SVGID_202_);}
	.st215{fill-rule:evenodd;clip-rule:evenodd;fill:url(#SVGID_203_);}
	.st216{fill-rule:evenodd;clip-rule:evenodd;fill:url(#SVGID_204_);}
	.st217{fill-rule:evenodd;clip-rule:evenodd;fill:url(#SVGID_205_);}
	.st218{fill-rule:evenodd;clip-rule:evenodd;fill:url(#SVGID_206_);}
	.st219{fill-rule:evenodd;clip-rule:evenodd;fill:url(#SVGID_207_);}
	.st220{fill-rule:evenodd;clip-rule:evenodd;fill:url(#SVGID_208_);}
	.st221{fill-rule:evenodd;clip-rule:evenodd;fill:url(#SVGID_209_);}
	.st222{fill-rule:evenodd;clip-rule:evenodd;fill:url(#SVGID_210_);}
	.st223{fill-rule:evenodd;clip-rule:evenodd;fill:url(#SVGID_211_);}
	.st224{fill-rule:evenodd;clip-rule:evenodd;fill:url(#SVGID_212_);}
	.st225{fill-rule:evenodd;clip-rule:evenodd;fill:url(#SVGID_213_);}
	.st226{fill-rule:evenodd;clip-rule:evenodd;fill:url(#SVGID_214_);}
	.st227{fill-rule:evenodd;clip-rule:evenodd;fill:url(#SVGID_215_);}
	.st228{fill-rule:evenodd;clip-rule:evenodd;fill:url(#SVGID_216_);}
	.st229{fill-rule:evenodd;clip-rule:evenodd;fill:url(#SVGID_217_);}
	.st230{fill-rule:evenodd;clip-rule:evenodd;fill:url(#SVGID_218_);}
	.st231{fill-rule:evenodd;clip-rule:evenodd;fill:url(#SVGID_219_);}
	.st232{fill-rule:evenodd;clip-rule:evenodd;fill:url(#SVGID_220_);}
	.st233{fill-rule:evenodd;clip-rule:evenodd;fill:url(#SVGID_221_);}
	.st234{fill-rule:evenodd;clip-rule:evenodd;fill:url(#SVGID_222_);}
	.st235{fill-rule:evenodd;clip-rule:evenodd;fill:url(#SVGID_223_);}
	.st236{fill-rule:evenodd;clip-rule:evenodd;fill:url(#SVGID_224_);}
	.st237{fill-rule:evenodd;clip-rule:evenodd;fill:url(#SVGID_225_);}
	.st238{fill-rule:evenodd;clip-rule:evenodd;fill:url(#SVGID_226_);}
	.st239{fill-rule:evenodd;clip-rule:evenodd;fill:url(#SVGID_227_);}
	.st240{fill-rule:evenodd;clip-rule:evenodd;fill:url(#SVGID_228_);}
	.st241{fill-rule:evenodd;clip-rule:evenodd;fill:url(#SVGID_229_);}
	.st242{fill-rule:evenodd;clip-rule:evenodd;fill:url(#SVGID_230_);}
	.st243{fill-rule:evenodd;clip-rule:evenodd;fill:url(#SVGID_231_);}
	.st244{fill-rule:evenodd;clip-rule:evenodd;fill:url(#SVGID_232_);}
	.st245{fill-rule:evenodd;clip-rule:evenodd;fill:url(#SVGID_233_);}
	.st246{fill-rule:evenodd;clip-rule:evenodd;fill:url(#SVGID_234_);}
	.st247{fill-rule:evenodd;clip-rule:evenodd;fill:url(#SVGID_235_);}
	.st248{fill-rule:evenodd;clip-rule:evenodd;fill:url(#SVGID_236_);}
	.st249{fill-rule:evenodd;clip-rule:evenodd;fill:url(#SVGID_237_);}
	.st250{fill-rule:evenodd;clip-rule:evenodd;fill:url(#SVGID_238_);}
	.st251{fill-rule:evenodd;clip-rule:evenodd;fill:url(#SVGID_239_);}
	.st252{fill-rule:evenodd;clip-rule:evenodd;fill:url(#SVGID_240_);}
	.st253{fill-rule:evenodd;clip-rule:evenodd;fill:url(#SVGID_241_);}
	.st254{fill-rule:evenodd;clip-rule:evenodd;fill:url(#SVGID_242_);}
	.st255{fill-rule:evenodd;clip-rule:evenodd;fill:url(#SVGID_243_);}
	.st256{fill-rule:evenodd;clip-rule:evenodd;fill:url(#SVGID_244_);}
	.st257{fill-rule:evenodd;clip-rule:evenodd;fill:url(#SVGID_245_);}
	.st258{fill-rule:evenodd;clip-rule:evenodd;fill:url(#SVGID_246_);}
	.st259{fill-rule:evenodd;clip-rule:evenodd;fill:url(#SVGID_247_);}
	.st260{fill-rule:evenodd;clip-rule:evenodd;fill:url(#SVGID_248_);}
	.st261{fill-rule:evenodd;clip-rule:evenodd;fill:url(#SVGID_249_);}
	.st262{fill:url(#SVGID_250_);}
	.st263{fill:none;stroke:#FFFFFF;stroke-width:0.2798;stroke-miterlimit:22.9256;}
	.st264{fill:none;stroke:#231F20;stroke-width:0.2392;stroke-miterlimit:22.9256;}
	.st265{fill:none;stroke:#231C1E;stroke-width:1.0077;stroke-miterlimit:22.9256;}
	.st266{fill:none;stroke:#231C1E;stroke-width:0.5037;stroke-miterlimit:22.9256;}
</style>
<g id="hi-mod">
	<g id="txt_1_">
		<polygon class="st8" points="1002.2,15.6 1002.2,135.7 980,135.7 980,15.6 957.8,15.6 957.8,2.1 1024.8,2.1 1024.8,15.6 		"/>
		<path class="st8" d="M1135.1,2.1v114.7c0,3.7,6.4,7.5,12.5,7.5c6.4,0,12.8-3.9,12.8-7.5V2.1h22.2v114.7c0,11.5-16.1,21-35,21
			c-19,0-34.6-9.5-34.6-21V2.1H1135.1z"/>
		<path class="st8" d="M1328.1,25.2v-9.6c0,0-9.4,0-12.8,0c-6,0-12.5,3.9-12.5,7.6v93.6c0,3.7,6.4,7.6,12.5,7.6
			c6.4,0,12.8-3.9,12.8-7.6V112h22.2v4.8c0,11.5-16.1,21-35,21c-19,0-34.6-9.5-34.6-21V23.1c0-11.5,15.7-21,34.6-21c3.4,0,35,0,35,0
			v23.1H1328.1z"/>
		<path class="st8" d="M1491.3,85v50.7h22.2V21.2c0-11.5-16.1-21.2-35-21.2c-19,0-34.6,9.8-34.6,21.2v114.5h22.2V85H1491.3z
			 M1466,71.6V21.2c0-3.9,6.4-7.5,12.5-7.5c6.4,0,12.8,3.6,12.8,7.5v50.3H1466z"/>
		<polygon class="st8" points="1633.3,33.7 1659,59 1659,2.1 1681.2,2.1 1681.2,135.7 1659,135.7 1659,85 1633.3,59.7 1633.3,135.7 
			1611.1,135.7 1611.1,2.1 1633.3,2.1 		"/>
		<path class="st8" d="M1779.3,21.3v95.5c0,11.5,15.7,21,34.6,21c18.9,0,35-9.5,35-21V21.3c0-11.5-16.1-21.3-35-21.3
			C1795,0,1779.3,9.8,1779.3,21.3z M1801.5,21.3c0-3.9,6.4-7.6,12.5-7.6c6.4,0,12.8,3.7,12.8,7.6v95.5c0,3.7-6.4,7.6-12.8,7.6
			c-6,0-12.5-3.9-12.5-7.6V21.3z"/>
		<g>
			<path class="st8" d="M614,67.4c-0.5,0.3-1.1,1.2-1.7,2.9c-0.6,1.6-1,2.6-1.1,3c-0.5,1.3-1.1,2.6-1.6,3.7c-0.2,0.3-1.3,2.3-3.4,6
				c2.4,0.5,4.9,0.8,7.5,0.8c2.4,0,4.8-0.3,7.3-0.8c-1.1-5.9-3-11.3-5.9-16.5L614,67.4z"/>
			<path class="st8" d="M317.1,72.4c-2.7-2.3-5.8-3.5-9.3-3.5c-1.1,0-2.2,0.2-3.4,0.5c-1.2,0.4-2.6,1.2-4.2,2.6
				c-1.2,1.1-2,1.8-2.4,2.2c-1.6,1.4-3.1,3-4.4,4.7c-1.3,1.7-2.1,3.1-2.5,4.2h0.9c-0.4,0.1-0.7,0.2-0.9,0.3c-1.2,0.5-1.9,1.1-2,1.8
				V87l-0.9,1.1c-0.8,1.6-1.6,3.3-2.5,5.2c-0.9,1.9-1.3,3.5-1.3,4.8c0,1.7,0.6,3.2,1.9,4.5c2.2,2.1,4.7,3.2,7.7,3.2
				c5.3,0,10.9-3,16.9-8.9c6-6,9.3-11.2,9.9-15.8C321,77.6,319.8,74.7,317.1,72.4z"/>
			<g>
				<path class="st8" d="M858.4,67.4c-0.5,0.3-1.1,1.2-1.7,2.9c-0.6,1.6-1,2.6-1.1,3c-0.5,1.3-1.1,2.6-1.6,3.7
					c-0.2,0.3-1.3,2.3-3.4,6c2.4,0.5,4.9,0.8,7.5,0.8c2.4,0,4.8-0.3,7.3-0.8c-1.1-5.9-3-11.3-5.9-16.5L858.4,67.4z"/>
				<path class="st8" d="M717.1,44.4c1.2,0.2,2.3,0.6,3.2,1.2c1.5,1,2.3,2.7,2.3,5c0,0.8-0.1,1.8-0.4,2.8c-2.2-1.1-4-1.9-5.5-2.5
					c-1.5-0.6-3-0.8-4.5-0.8c-1.8,0-4.1,0.5-6.8,1.6c-3.8,1.5-7.1,4.4-10,8.7c-2.4,3.6-4.4,7.8-5.8,12.7c0.6,0.2,1.6,0.3,3,0.5
					c1.4,0.1,2.9,0.2,4.6,0.2c1,0,2.5,0,4.5,0c2,0,3.5,0,4.5,0c2.8,0,5.1,0.1,6.9,0.4c1.8,0.3,3.6,0.9,5.3,1.9
					c-2.9,1.2-5.5,2-7.8,2.4c-2.3,0.4-5.3,0.6-9,0.6c-5.4,0-8.6,0.2-9.7,0.5c-2.7,0.9-4.1,3.2-4.1,7c0,1,0,1.8,0.1,2.3
					c1.6,7.2,3.2,14.4,4.8,21.6h-0.9c-0.3,0.1-1-0.2-2.1-0.8c-1.1-0.6-1.7-1-1.8-1.1c-0.9-0.9-1.7-2.3-2.4-4.3
					c-0.7-1.9-1.2-3.8-1.5-5.6c-0.3-1.8-0.5-4-0.8-6.7c-0.3-2.7-0.4-5-0.4-7c0-7,1-13.5,3-19.5c2-6,5.3-11.1,9.9-15.2
					c1.7-1.6,4.4-3.1,8-4.4c2.2-0.8,4.4-1.4,6.5-1.7H0v82h914.3v-82H717.1z M57.2,111.5h-0.9c-0.4,0.2-0.9,0.1-1.5-0.3
					c-0.6-0.4-1.1-0.6-1.5-0.6c-0.7,0-1.4,0-2.1,0c-0.7,0-1.3,0-2,0.1c-0.9,0-1.5,0-1.9-0.1c-1.8-0.4-3.2-1.4-4.3-3.2
					c-1-1.8-1.6-3.9-1.6-6.4v-1.2c0.5-5,1.4-10.4,2.5-16.3c1.1-5.9,2.2-11.6,3.3-17.2c0.2-3.5,0.4-6.7,0.7-9.6
					c0.3-2.9,1.3-4.3,3.1-4.3c0.5,0,0.9,0,1.2,0.1c2.1,0.7,3.1,2.3,3.1,4.9c0,1.4-0.3,2.8-0.7,4.5c-0.5,1.6-1,3.1-1.4,4.5
					c-1.2,5.2-2.2,10.5-3.1,16c-0.9,5.4-1.8,11-2.8,16.5c0,2.8,1.6,5,4.9,6.5c3.2,1.6,5.3,3.3,6.1,5.2L57.2,111.5z M124,84.8
					c-0.2,1.6-0.6,3.3-1.2,5.2c-0.6,1.9-0.8,3.5-0.8,4.9c0,1.3,0,2.5,0.1,3.8c0.1,1.3,0.2,2.5,0.3,3.8c0,2.3-0.4,4.2-1.2,5.6
					c-0.8,1.4-2.5,2.2-5.1,2.6c-0.3-1-0.5-2-0.5-3.1c-0.1-1.1-0.1-2.4-0.1-3.8c0-2.3,0.2-4.9,0.6-7.8c0.4-2.9,0.8-5.3,1.1-7
					c0.3-1.7,0.5-3.6,0.6-5.6c0.1-2,0.1-4.8,0.1-8.2v-9c0.1,0,0.4,0,0.8,0c0.5,0,1,0,1.8,0c0.8,0,1.3,0,1.5,0.1
					c0.9,0.4,1.5,1.5,1.9,3.5c0.4,2,0.5,4.3,0.5,6.9C124.3,80.5,124.2,83.3,124,84.8z M216.7,66.3c-1.8-0.2-3.2-0.4-4.1-0.4
					c-2.3,0-4.6,0.5-7.2,1.5c0.5,1.2,0.9,2.4,1.1,3.7c0.2,1.3,0.3,2.7,0.3,4.2c0,1.7-0.1,3.7-0.4,6.1c-0.6,5.6-1,9.1-1,10.6v12.8
					c0,2.3-0.1,3.8-0.4,4.3c-0.3,0.5-1.5,1-3.6,1.5c-0.6-1.7-1.1-3.7-1.4-6.1c-0.3-2.3-0.4-4.7-0.4-7.2c0-3,0.2-6.6,0.6-11
					c0.4-4.4,0.8-8.5,1.2-12.2c0-2.4-0.5-4.2-1.4-5.2c-0.9-1-2.3-1.6-4.1-1.6c-1.9,0-4.4,0.6-7.6,1.9c-2.5,1-5,2-7.5,3
					c-0.5-2.2-0.8-3.3-0.8-3.4c0-0.8,0.6-1.7,1.9-2.6c1.6-1.2,3.5-2,5.7-2.6c2.2-0.5,4.9-1,8.1-1.4c5.7-0.7,10-1.3,12.9-1.7
					c2.9-0.4,5.5-0.8,7.8-1.3c0.2,0.3,0.7,0.5,1.6,0.6c0.9,0.1,1.6,0.2,2.4,0.3c1.6,0.7,2.7,1.6,3.2,2.6c0.5,1,0.7,2.4,0.7,4.3
					C223.4,67.1,221,66.8,216.7,66.3z M315.6,100.5c-6.5,6.7-13.1,10.1-19.8,10.1c-5.1,0-9.2-1.2-12.2-3.5c-3-2.3-4.5-5.7-4.5-10.2
					c0-2,0.3-4,0.9-6c2.1-7,5.1-12.9,9.2-17.6c4.8-5.4,10.3-8.5,16.5-9.2h0.9c0.5,0,1.4,0,2.4,0c3.7,0,6.9,0.9,9.6,2.8
					c2.7,1.8,4.6,4.6,5.8,8.3c0.5,1.6,0.8,3.3,0.8,5C325.3,87.1,322,93.8,315.6,100.5z M428.3,87.1c-3.7,0.7-7.3,1.3-10.8,1.8v2.1
					c0,0.4,0,0.9,0,1.6v2.7c0,2-0.3,3.5-0.8,4.5c-1.7,3.2-4.7,5.9-8.9,8.2c-4.2,2.3-8.4,3.4-12.6,3.4c-2.4,0-4.6-0.4-6.4-1.3
					c-1.8-0.9-3.4-2.3-4.7-4.4c-1.9-3.1-2.8-6.3-2.8-9.7c0-2.6,0.6-5.5,1.8-8.7c0.9-2.5,2.3-5.3,4.1-8.3c2.7-4.5,5.9-8.2,9.7-11.1
					c4.5-3.4,8.9-5.1,13.2-5.1c1.2,0,2.4,0.1,3.6,0.4c-0.8,1.8-2.3,3.4-4.5,4.7c-2.8,1.4-4.9,2.5-6.4,3.2c-2.9,1.4-5.8,3.8-8.7,7.1
					c-2.9,3.3-5,6.5-6.2,9.7c-0.8,2.2-1.2,4.2-1.2,6.1c0,3.3,1.1,6.1,3.3,8.2c2.2,2.1,4.9,3.2,8.2,3.2c2.1,0,4.1-0.5,6.1-1.4
					c2-0.9,3.8-2.4,5.5-4.4c1.7-2,2.5-3.8,2.5-5.4c0-1.4-1-3-3.1-4.6c-3-2.3-4.8-3.9-5.3-4.6c1.3-1.3,2.6-2.1,4.1-2.5
					c1.4-0.4,3.3-0.6,5.7-0.6c2.2,0.1,3.8,0.1,5,0.1h7.3c2.6,0,4.7,0.1,6.3,0.2c1.6,0.1,3.3,0.4,5.1,0.7
					C435,85.1,432,86.5,428.3,87.1z M532.7,118.5c-3.6-3.2-7.6-7.6-11.9-13c-2.9-3.6-6.5-8.4-10.8-14.5c-1.3-1.6-2.1-2.7-2.6-3.4
					c-0.8-1.2-1.2-2.1-1.2-2.8c0-1.2,1.4-2.1,4.2-2.8c2.8-0.7,5.1-1.7,7.1-3c1.9-1.3,3.7-3.3,5.3-5.9c-2.7-1.4-5.3-2.2-7.7-2.2
					c-2.3,0-4.5,0.7-6.4,2c-1.9,1.3-3.4,3.4-4.5,6.1c-0.6,1.5-1.3,5-1.9,10.5c-1,8.3-3.6,13-8,14v-0.9l-1.1-0.9v-3
					c0-2.4,0.3-5.2,0.9-8.3c0-0.2,0.7-3,2-8.4c0.5-2.2,1.1-4.5,1.6-6.9c0.8-2.7,1.9-4.4,3.4-5c2.6-1.2,5.3-2.3,8-3.5
					c3.6-1.4,6.6-2.2,9.1-2.2c1.6,0,3.2,0.3,4.6,0.9c1.4,0.6,2.8,1.6,4.1,3c1.3,1.4,1.9,2.9,1.9,4.5c0,2.6-1.8,5.3-5.5,8.1
					c-2.8,2.1-5.8,3.7-9.1,5c1.2,2.4,3.8,5.8,7.8,10.1c7.7,8.2,11.5,14.3,11.5,18.3C533.5,115.8,533.2,117.1,532.7,118.5z
					 M624.9,98.7c-1.3,6.5-3.9,10.2-7.9,11.1c0-1,0.5-3.4,1.4-7.2c1-3.8,1.4-6.7,1.4-8.7c0-1.6-0.3-2.9-0.9-3.9
					c-0.6-1-1.6-1.6-3-1.9c-1.4-0.3-2.7-0.4-3.8-0.4c-3.1,0-5.6,0.9-7.7,2.6c-2.1,1.8-3.8,4.3-5.2,7.7c-0.9,2.5-1.8,5.1-2.6,7.6
					c-1,2.3-2.7,3.4-5.1,3.4c-0.9,0-1.6,0-2.2-0.1c0.6-3.8,1.8-7.7,3.5-11.7c0.5-1.3,2.3-5.1,5.3-11.3c3-6.2,5.2-10.8,6.7-13.8
					c2.6-5.5,5.3-9.9,8.1-13.4c1.2,0,2.5,0.8,4,2.3c0.7,0.7,1.7,1.9,2.8,3.5c2.1,2.8,3.6,5.8,4.5,8.9c0.9,3.2,1.4,6.4,1.4,9.9
					C625.9,90.3,625.6,95.5,624.9,98.7z M778.1,84.8c-0.2,1.6-0.6,3.3-1.2,5.2c-0.6,1.9-0.8,3.5-0.8,4.9c0,1.3,0,2.5,0.1,3.8
					c0.1,1.3,0.2,2.5,0.3,3.8c0,2.3-0.4,4.2-1.2,5.6c-0.8,1.4-2.5,2.2-5.1,2.6c-0.3-1-0.4-2-0.5-3.1c-0.1-1.1-0.1-2.4-0.1-3.8
					c0-2.3,0.2-4.9,0.6-7.8c0.4-2.9,0.8-5.3,1.1-7c0.3-1.7,0.5-3.6,0.6-5.6c0.1-2,0.1-4.8,0.1-8.2v-9c0.1,0,0.4,0,0.8,0s1,0,1.8,0
					c0.8,0,1.3,0,1.5,0.1c0.9,0.4,1.5,1.5,1.9,3.5c0.4,2,0.5,4.3,0.5,6.9C778.4,80.5,778.3,83.3,778.1,84.8z M869.4,98.7
					c-1.3,6.5-3.9,10.2-7.9,11.1c0-1,0.5-3.4,1.4-7.2c1-3.8,1.4-6.7,1.4-8.7c0-1.6-0.3-2.9-0.9-3.9c-0.6-1-1.6-1.6-3-1.9
					c-1.4-0.3-2.7-0.4-3.8-0.4c-3.1,0-5.6,0.9-7.7,2.6c-2.1,1.8-3.8,4.3-5.2,7.7c-0.9,2.5-1.8,5.1-2.6,7.6c-1,2.3-2.7,3.4-5.1,3.4
					c-0.9,0-1.6,0-2.2-0.1c0.6-3.8,1.8-7.7,3.5-11.7c0.5-1.3,2.3-5.1,5.3-11.3c3-6.2,5.2-10.8,6.7-13.8c2.6-5.5,5.3-9.9,8.1-13.4
					c1.2,0,2.5,0.8,4,2.3c0.7,0.7,1.7,1.9,2.8,3.5c2.1,2.8,3.6,5.8,4.5,8.9c0.9,3.2,1.4,6.4,1.4,9.9C870.3,90.3,870,95.5,869.4,98.7
					z"/>
			</g>
		</g>
	</g>
</g>
<g id="remo1">
</g>
<g id="original">
</g>
</svg>
