<?xml version="1.0" encoding="utf-8"?>
<!-- Generator: Adobe Illustrator 21.0.0, SVG Export Plug-In . SVG Version: 6.00 Build 0)  -->
<svg version="1.1" id="Layer_1" xmlns="http://www.w3.org/2000/svg" xmlns:xlink="http://www.w3.org/1999/xlink" x="0px" y="0px"
	 viewBox="0 0 600 600" style="enable-background:new 0 0 600 600;" xml:space="preserve">
<style type="text/css">
	.st0{fill:#9BD65E;}
	.st1{fill:#91C656;}
	.st2{fill:#ACED70;}
	.st3{fill:#C8F29C;}
</style>
<g>
	<path class="st0" d="M144,456.1l96.7,0.4c7.2,0,13-5.8,13.1-12.9l0.2-50.9c0-7.2-5.8-13-12.9-13.1L100,379.1L144,456.1z"/>
	<path class="st1" d="M100,379.1l44,77.1l31,0.1c17.3-23.8,30.2-51.3,68-76.4C241.4,379.5,251.1,379.7,100,379.1z"/>
	<path class="st2" d="M144.1,456.1l68.3-117.1l14.4,8.4c4.5,2.6,9.7-1.7,8.1-6.6L216,285.9c-3.6-10.6-14.4-16.9-25.4-14.9
		l-57.3,10.6c-5.1,0.9-6.3,7.7-1.8,10.3l14.4,8.4L100,379.1C145.1,458,144,456.1,144.1,456.1z"/>
	<path class="st3" d="M216,285.9c-3.6-10.6-14.4-16.9-25.4-14.9l-57.3,10.6c-5.1,0.9-6.3,7.7-1.8,10.3l14.4,8.4l-31.4,53.8
		c12,3.5,25.1,3.2,38-4.8c19.2-11.9,38.6-8.4,54.3-0.9l5.5-9.4l14.4,8.4c4.5,2.6,9.7-1.7,8.1-6.6L216,285.9z"/>
	<path class="st0" d="M258.1,122.1l-48.3,83.8c-3.6,6.2-1.4,14.2,4.8,17.8l44.1,25.4c6.2,3.6,14.2,1.4,17.8-4.8L346.8,122
		L258.1,122.1z"/>
	<path class="st1" d="M346.8,122l-88.8,0.1l-15.5,26.8c12.1,26.8,29.6,51.6,32.7,97C276.4,244.5,271.5,252.9,346.8,122z"/>
	<path class="st2" d="M258,122.1l67.9,117.3l-14.5,8.4c-4.5,2.6-3.3,9.3,1.7,10.3l57,10.9c11,2.1,21.8-4.2,25.5-14.7l19.2-55
		c1.7-4.9-3.6-9.2-8-6.7l-14.4,8.3L346.8,122C255.9,122.1,258.1,122,258,122.1L258,122.1z"/>
	<path class="st3" d="M370.2,268.9c11,2.1,21.8-4.2,25.5-14.7l19.2-55c1.7-4.9-3.6-9.2-8-6.7l-14.4,8.3l-31.2-53.9
		c-9,8.7-15.2,20.2-14.7,35.3c0.8,22.5-11.8,37.7-26.2,47.6l5.5,9.5l-14.5,8.4c-4.5,2.6-3.3,9.3,1.7,10.3L370.2,268.9z"/>
	<path class="st0" d="M500,378.7l-48.5-83.7c-3.6-6.2-11.6-8.3-17.8-4.7l-44,25.5c-6.2,3.6-8.3,11.6-4.7,17.8l70.8,122L500,378.7z"
		/>
	<path class="st1" d="M455.7,455.7l44.3-76.9l-15.5-26.8c-29.3-2.9-59.5-0.1-100.3-20.1C384.7,333.4,380,325,455.7,455.7
		L455.7,455.7z"/>
	<path class="st2" d="M500,378.7l-135.5,0.2l0-16.7c0-5.2-6.4-7.5-9.8-3.6l-37.9,44c-7.3,8.5-7.3,21,0,29.4l38.1,44.1
		c3.4,3.9,9.8,1.5,9.8-3.6l0-16.6l91.1-0.1C501.8,375.5,500,378.8,500,378.7L500,378.7z"/>
	<path class="st3" d="M316.8,402.6c-7.3,8.5-7.3,21,0,29.4l38.1,44.1c3.4,3.9,9.8,1.5,9.8-3.6l0-16.6l62.3-0.1
		c-3.1-12.2-9.9-23.3-23.3-30.4c-19.9-10.6-26.8-29-28.2-46.5l-10.9,0l0-16.7c0-5.2-6.4-7.5-9.8-3.6L316.8,402.6z"/>
</g>
</svg>
