<?xml version="1.0" encoding="utf-8"?>
<!-- Generator: Adobe Illustrator 21.0.0, SVG Export Plug-In . SVG Version: 6.00 Build 0)  -->
<svg version="1.1" id="Layer_1" xmlns="http://www.w3.org/2000/svg" xmlns:xlink="http://www.w3.org/1999/xlink" x="0px" y="0px"
	 viewBox="0 0 600 600" style="enable-background:new 0 0 600 600;" xml:space="preserve">
<style type="text/css">
	.st0{fill:#6DC82A;}
	.st1{fill:#5EAC24;}
	.st2{fill:#4E901E;}
	.st3{fill:#91DC5A;}
	.st4{fill:#CC7400;}
	.st5{fill:#AA6100;}
</style>
<g>
	<path class="st0" d="M321,265.1c-3,3.2-7.3,4.9-11.7,4.6c-1.5-0.1-37.6-2.6-74.5-22.5c-34.9-18.8-77-56.9-79.4-131.9
		c-0.1-4.1,1.4-8,4.3-10.9c4.4-4.4,9.6-4.4,11.8-4.4c0,0,0,0,0,0c1.6,0,38.3,0.3,76.2,23c19.7,11.8,36,27.5,48.6,46.6
		c15.2,23.1,24.8,51.2,28.7,83.6C325.5,257.6,324,261.9,321,265.1z"/>
	<path class="st1" d="M296.8,170.3c-6.2,11.4-11.4,24.3-15.2,38.9c-3.4,10.1-8.5,27.8-12.8,52.3c22.4,7,39.5,8.2,40.5,8.3
		c4.4,0.3,8.7-1.4,11.7-4.6c3-3.2,4.5-7.5,4-11.9C321.2,221.1,311.7,193.2,296.8,170.3z"/>
	<path class="st2" d="M308.3,239.7l-31.9-31.1l-8.4-41.9c-0.7-3.3-3.9-5.5-7.2-4.8c-3.3,0.7-5.5,3.9-4.8,7.2l4.9,24.3l-17.6-17.1
		l-8.5-42.4c-0.7-3.3-3.9-5.5-7.2-4.8c-3.3,0.7-5.5,3.9-4.8,7.2l5,24.9l-41-40c-2.4-2.4-6.3-2.3-8.7,0.1c-2.4,2.4-2.3,6.3,0.1,8.7
		l45.1,44l-31.5-0.5c-3.4-0.1-6.2,2.6-6.2,6c-0.1,3.4,2.6,6.2,6,6.2l44.5,0.8l20.9,20.4l-31.9-0.5c-3.4-0.1-6.2,2.6-6.2,6
		c-0.1,3.4,2.6,6.2,6,6.2l44.9,0.8l29.9,29.2c1.2,1.2,2.7,1.7,4.3,1.7c1.6,0,3.2-0.6,4.4-1.8C310.8,246,310.8,242.1,308.3,239.7z"/>
	<path class="st3" d="M465.5,104.6c-3-3.2-7.3-4.9-11.7-4.6c-1.5,0.1-37.6,2.6-74.5,22.5c-28.4,15.3-61.5,43.4-74.2,93.6
		c-6.9,20.4-22.2,75.8-18.6,159.3c0.3,7.2,6.3,12.9,13.4,12.9c0.2,0,0.4,0,0.6,0c7.4-0.3,13.2-6.6,12.8-14
		c-1.9-43.2,1.7-78.6,6.3-104.6c10.3-0.6,41.1-3.9,72.6-22.8c19.7-11.8,36-27.5,48.6-46.6c15.2-23.1,24.8-51.2,28.7-83.6
		C470,112.2,468.5,107.8,465.5,104.6z"/>
	<path class="st1" d="M446.2,121.3c-2.4-2.4-6.2-2.5-8.7-0.1l-41,40l5-24.9c0.7-3.3-1.5-6.5-4.8-7.2c-3.3-0.7-6.5,1.5-7.2,4.8
		l-8.5,42.4l-17.6,17.1l4.9-24.3c0.7-3.3-1.5-6.5-4.8-7.2c-3.3-0.7-6.5,1.5-7.2,4.8l-8.4,41.9L316,239.7c-2.4,2.4-2.5,6.2-0.1,8.7
		c1.2,1.2,2.8,1.8,4.4,1.8c1.5,0,3.1-0.6,4.3-1.7l29.9-29.2l44.9-0.8c3.4-0.1,6.1-2.8,6-6.2c-0.1-3.3-2.8-6-6.1-6c0,0-0.1,0-0.1,0
		l-31.9,0.5l20.9-20.4l44.5-0.8c3.4-0.1,6.1-2.8,6-6.2c-0.1-3.3-2.8-6-6.1-6c0,0-0.1,0-0.1,0L401,174l45.1-44
		C448.5,127.6,448.6,123.8,446.2,121.3z"/>
	<path class="st4" d="M450.9,420.4c-6.2,0-12,1.7-16.9,4.8c-7.2-23.7-29.3-40.9-55.4-40.9c-2.9,0-5.7,0.2-8.5,0.6
		c-11.8-27-38.8-45.9-70.2-45.9s-58.4,18.9-70.2,45.9c-2.8-0.4-5.6-0.6-8.5-0.6c-26.1,0-48.1,17.2-55.4,40.9
		c-4.9-3-10.7-4.8-16.9-4.8c-17.8,0-32.2,14.4-32.2,32.2c0,17.8,14.4,32.2,32.2,32.2c9.5,0,18.1-4.1,24-10.7
		c10.4,15.6,28.1,25.8,48.2,25.8c16.3,0,31-6.7,41.5-17.6c11,6.1,23.7,9.6,37.2,9.6c13.5,0,26.2-3.5,37.2-9.6
		c10.5,10.8,25.2,17.6,41.5,17.6c20.1,0,37.8-10.3,48.2-25.8c5.9,6.6,14.5,10.7,24,10.7c17.8,0,32.2-14.4,32.2-32.2
		C483.2,434.8,468.7,420.4,450.9,420.4z"/>
	<g>
		<path class="st5" d="M342.1,370.2c7.6,0,15,1.1,21.9,3.2c-13.7-20.8-37.2-34.5-64-34.5c-31.4,0-58.4,18.9-70.2,45.9
			c-2.8-0.4-5.6-0.6-8.5-0.6c-26.1,0-48.1,17.2-55.4,40.9c-4.9-3-10.7-4.8-16.9-4.8c-17.8,0-32.2,14.4-32.2,32.2
			c0,17.8,14.4,32.2,32.2,32.2c9.5,0,18.1-4.1,24-10.7c10.4,15.6,28.1,25.8,48.2,25.8c16.3,0,31-6.7,41.5-17.6
			c4.8,2.7,9.9,4.8,15.3,6.4c-7.9-12.1-12.6-26.5-12.6-42C265.5,404.5,299.8,370.2,342.1,370.2z"/>
		<circle class="st5" cx="330.5" cy="428.9" r="13.9"/>
		<circle class="st5" cx="386.4" cy="461.6" r="13.9"/>
		<circle class="st5" cx="377.9" cy="414.1" r="5.3"/>
		<circle class="st5" cx="300" cy="467" r="5.3"/>
		<circle class="st5" cx="316.6" cy="394.1" r="5.3"/>
		<circle class="st5" cx="431.5" cy="442.8" r="5.3"/>
	</g>
	<g>
		<circle class="st4" cx="400.3" cy="347.8" r="13.9"/>
		<circle class="st4" cx="431.5" cy="378.9" r="5.3"/>
		<circle class="st4" cx="431.5" cy="353.2" r="5.3"/>
	</g>
	<g>
		<circle class="st5" cx="187.9" cy="342.9" r="13.9"/>
		<circle class="st5" cx="164.9" cy="373.5" r="5.3"/>
	</g>
</g>
</svg>
