<?xml version="1.0" encoding="utf-8"?>
<!-- Generator: Adobe Illustrator 21.0.0, SVG Export Plug-In . SVG Version: 6.00 Build 0)  -->
<svg version="1.1" id="Layer_1" xmlns="http://www.w3.org/2000/svg" xmlns:xlink="http://www.w3.org/1999/xlink" x="0px" y="0px"
	 viewBox="0 0 600 600" style="enable-background:new 0 0 600 600;" xml:space="preserve">
<style type="text/css">
	.st0{fill:#5EB3D1;}
	.st1{fill:#4FA1B7;}
	.st2{fill:#87CED9;}
	.st3{fill:#B9E6ED;}
</style>
<g id="surface1">
	<path class="st0" d="M189.7,100h262.1v358.6H189.7V100z"/>
	<path class="st1" d="M362.1,148.3h-13.8v310.3h75.9V210.3L362.1,148.3z"/>
	<path class="st2" d="M410.3,500H148.3V141.4h193.1l69,69V500z"/>
	<path class="st3" d="M410.3,210.3h-69v-69L410.3,210.3z"/>
	<path class="st0" d="M196.6,231h165.5v13.8H196.6V231z"/>
	<path class="st0" d="M196.6,189.7h55.2v13.8h-55.2V189.7z"/>
	<path class="st0" d="M196.6,272.4h110.3v13.8H196.6V272.4z"/>
	<path class="st0" d="M320.7,272.4h41.4v13.8h-41.4V272.4z"/>
	<path class="st0" d="M196.6,313.8h165.5v13.8H196.6V313.8z"/>
	<path class="st0" d="M196.6,396.6h165.5v13.8H196.6V396.6z"/>
	<path class="st0" d="M258.6,355.2h103.4V369H258.6V355.2z"/>
	<path class="st0" d="M196.6,355.2h48.3V369h-48.3V355.2z"/>
	<path class="st0" d="M196.6,437.9h27.6v13.8h-27.6V437.9z"/>
	<path class="st0" d="M237.9,437.9h124.1v13.8H237.9V437.9z"/>
</g>
</svg>
