<?xml version="1.0" encoding="utf-8"?>
<!-- Generator: Adobe Illustrator 21.0.0, SVG Export Plug-In . SVG Version: 6.00 Build 0)  -->
<svg version="1.1" id="Layer_1" xmlns="http://www.w3.org/2000/svg" xmlns:xlink="http://www.w3.org/1999/xlink" x="0px" y="0px"
	 viewBox="0 0 600 600" style="enable-background:new 0 0 600 600;" xml:space="preserve">
<style type="text/css">
	.st0{fill:#FC3E81;}
	.st1{fill:#F01054;}
	.st2{fill:#FDB659;}
	.st3{fill:#FD9E28;}
	.st4{fill:#FD8724;}
	.st5{fill:#FC5820;}
	.st6{fill:#43A3F9;}
	.st7{fill:#1685FB;}
	.st8{fill:#5BE167;}
	.st9{fill:#1FC974;}
	.st10{fill:#64BDFF;}
</style>
<g>
	<path class="st0" d="M500,354.5c0,48.4-39.2,87.6-87.6,87.6c-17.8,0-34.4-5.3-48.3-14.5c-23.7-15.7-39.4-42.6-39.4-73.2
		c0-21.6,17.5-64.1,36.8-104.5c18.2-38.1,38.1-74.4,46.6-89.6c1.8-3.3,6.6-3.3,8.4,0C434.1,191.7,500,312.5,500,354.5z"/>
	<path class="st1" d="M397.3,354.5c0,29.1-12.9,55.3-33.2,73.2c-23.7-15.7-39.4-42.6-39.4-73.2c0-21.6,17.5-64.1,36.8-104.5
		c2.7,5.7,5.4,11.5,7.9,17.2C388.2,308.7,397.3,337.3,397.3,354.5z"/>
	<path class="st2" d="M387.6,354.5c0,48.4-39.2,87.6-87.6,87.6c-13.8,0-26.8-3.2-38.4-8.8c-3.4-1.7-6.7-3.6-9.9-5.7
		c-23.7-15.7-39.4-42.6-39.4-73.2c0-21.6,17.5-64.1,36.8-104.5c18.2-38.1,38.1-74.4,46.6-89.6c1.8-3.3,6.6-3.3,8.4,0
		c10,18,36.1,65.6,56.4,110.7C375.7,304.5,387.6,336.6,387.6,354.5z"/>
	<path class="st3" d="M387.6,354.5c0,48.4-39.2,87.6-87.6,87.6c-13.8,0-26.8-3.2-38.4-8.8c0,0,0.1,0,0.1,0
		c99.7-10.8,108.9-94,99-162.2C375.7,304.5,387.6,336.6,387.6,354.5z"/>
	<path class="st1" d="M500,354.5c0,48.4-39.2,87.6-87.6,87.6c-13.8,0-26.8-3.2-38.4-8.8c0,0,0.1,0,0.1,0
		c99.7-10.8,108.9-94,99-162.2C488.1,304.5,500,336.6,500,354.5z"/>
	<path class="st4" d="M387.6,354.5c0,27-12.2,51.2-31.5,67.3c-7.8-6.5-14.4-14.4-19.6-23.2c-7.6-12.9-11.9-28-11.9-44.1
		c0-19.6,14.4-56.4,31.5-93.2c1.5,3.3,3,6.6,4.5,9.8C375.7,304.5,387.6,336.6,387.6,354.5z"/>
	<path class="st5" d="M387.6,354.5c0,27-12.2,51.2-31.5,67.3c-7.8-6.5-14.4-14.4-19.6-23.2c28.9-33,30.5-83.3,24.1-127.5
		C375.7,304.5,387.6,336.6,387.6,354.5z"/>
	<path class="st3" d="M284.9,354.5c0,29.1-12.9,55.3-33.2,73.2c-23.7-15.7-39.4-42.6-39.4-73.2c0-21.6,17.5-64.1,36.8-104.5
		c2.7,5.6,5.3,11.2,7.8,16.8C275.8,308.5,284.9,337.2,284.9,354.5z"/>
	<path class="st6" d="M275.3,354.5c0,48.4-39.2,87.6-87.6,87.6c-13.8,0-26.8-3.2-38.4-8.9C120.1,419,100,389.1,100,354.5
		c0-42,65.9-162.8,83.4-194.1c1.8-3.3,6.6-3.3,8.4,0c10,17.9,36,65.3,56.3,110.4C263.3,304.3,275.3,336.6,275.3,354.5z"/>
	<path class="st7" d="M275.4,354.5c0,48.4-39.2,87.6-87.6,87.6c-13.8,0-26.8-3.2-38.4-8.9c99.9-10.9,109-94.2,98.9-162.5
		C263.4,304.3,275.4,336.6,275.4,354.5z"/>
	<path class="st8" d="M275.3,354.5c0,27-12.2,51.2-31.5,67.3c-7.8-6.5-14.5-14.4-19.6-23.2c-7.5-12.9-11.8-28-11.8-44
		c0-19.6,14.4-56.4,31.5-93.2c1.5,3.1,2.9,6.3,4.3,9.4C263.3,304.3,275.3,336.6,275.3,354.5z"/>
	<path class="st9" d="M275.3,354.5c0,27-12.2,51.2-31.5,67.3c-7.8-6.5-14.5-14.4-19.6-23.2c28.9-33.1,30.4-83.6,23.9-127.8
		C263.3,304.3,275.3,336.6,275.3,354.5z"/>
	<path class="st10" d="M153.8,409.8c-1.2,0-2.3-0.3-3.4-1c-18.1-12.2-28.9-32.5-28.9-54.3c0-3.3,2.7-6,6-6s6,2.7,6,6
		c0,17.8,8.8,34.3,23.6,44.3c2.8,1.9,3.5,5.6,1.6,8.4C157.6,408.9,155.7,409.8,153.8,409.8z"/>
</g>
</svg>
